<svg xmlns="http://www.w3.org/2000/svg" width="1080" viewBox="0 0 810 810" height="1080" version="1.0"><defs><clipPath id="a"><path d="M93.262 44H714v723H93.262zm0 0"/></clipPath></defs><path fill="#9b6150" d="M711.3 585.887c-.405-2.852-.816-5.094-1.425-6.926-1.426-4.484-5.496-15.488-11.605-25.469-6.922-12.637-16.29-26.898-19.137-31.176-.817-1.425-1.63-2.855-2.446-4.28l-10.789-20.579c-1.02-2.852-2.035-5.094-2.035-5.094s2.239-27.508 2.239-32.601c0-4.89-.204-9.782.609-12.024.613-2.238 5.5-9.777 5.297-14.058-.41-4.278-4.887-17.727-4.887-17.727s-1.02-3.262 0-5.297c1.016-2.242 1.629-10.39-2.648-16.3-2.645-3.668-5.903-7.54-9.364-10.598v-2.649l.407.204.406-2.239c1.02-.41 3.867-1.836 6.515-3.058 3.258-1.426 10.18-10.188 10.18-10.188s3.867-2.035 9.363-4.89c5.704-2.852 10.184-13.04 12.625-18.747 2.649-5.703 1.832-22.207 1.832-22.207s6.313-17.726 6.922-24.453c.614-6.722-.609-15.281-.609-15.281s2.238-11.613 1.832-15.281c-.406-3.668-2.852-16.098-6.719-21.395-4.07-5.094-12.418-19.36-19.75-28.12-7.328-8.966-14.25-29.544-14.25-29.544-5.703-14.469-4.886-27.305-5.5-34.23-.61-6.93-4.476-23.84-9.363-36.676-4.887-12.84-17.918-25.27-25.652-32.602-7.739-7.132-19.75-11.41-29.524-13.449-9.773-2.039-18.527 2.649-18.527 2.649s-5.293-2.446-9.567-1.223c-4.277 1.223-7.128 1.832-12.015 6.316-4.883 4.688-14.656 14.059-21.988 32.196-7.329 18.132-8.957 25.875-10.993 38.101-2.035 12.227 4.48 45.031 3.664 50.125-.609 4.278-3.867 8.149-5.09 9.578-2.851-.816-7.738-1.632-14.25-1.222l-21.581 6.316s-13.641 6.316-25.653 14.262c-12.015 7.945-18.937 20.988-18.937 20.988l-1.016.813c-.203-.61-.41-1.223-.816-2.036-3.664-9.984-3.258-14.875-3.258-14.875s-3.258-24.246-10.18-33.62c-6.922-9.372-18.527-12.227-18.527-12.227s-16.695-5.906-23.82-5.906-13.032 3.054-13.032 3.054-3.867-.61-9.16-.203c-5.293.406-8.55 5.297-8.55 5.297s-2.036-1.426-4.481-3.055c-2.442-1.633-6.516-3.465-15.27-3.87-8.55-.411-9.566-1.634-15.27-4.282-4.273-1.832-8.347-1.223-10.179-.813l-8.55-21.601-4.481-15.89 2.445-2.04s5.903-3.668 7.328-7.336c1.426-3.668 1.426-14.875.817-18.949-.614-4.074-4.887-12.02-9.164-12.836-1.22-.203-2.442-.406-3.461-.406l.203-9.578-5.09-12.227s-5.7-9.371-11.398-11c-5.704-1.633-5.297-2.242-8.145-5.3-2.648-3.258-8.144-9.169-14.66-11-6.516-2.04-12.012-1.837-17.508.609-5.5 2.445-12.219 5.5-12.219 5.5s-3.867-.203-6.511-1.426c-2.243-1.223-6.516-.61-13.438 1.426-6.926 2.039-5.906 8.968-5.906 8.968s-3.664-.816-8.957-.816c-5.293 0-4.887 1.02-9.367 4.074-4.684 3.059-2.645 11.41-2.848 17.117-.207 5.704-11.402 11.614-16.902 22.82-5.496 11.41 3.668 21.598 6.312 25.063 2.649 3.465 0 7.54 1.426 12.836 1.426 5.297 19.547 11.613 19.547 11.613l2.644-.406 3.055 3.262 12.012 17.727s.816 6.722 2.035 10.39c1.223 3.668 11.2 13.246 11.2 13.246s-1.02 2.239-2.65 5.5c-4.476 1.02-11.808 2.852-21.577 5.91-17.106 5.5-23.008 10.797-30.95 19.559-7.937 8.762-15.27 25.063-15.27 25.063l-16.695 38.308v2.035l-8.347 8.762s-5.496 9.168-9.77 28.324c-4.277 19.356 4.274 28.32 8.754 34.434 1.016 1.426 2.645 2.851 4.477 4.074-3.051 3.059-10.79 11.617-17.508 24.453-8.348 16.3-12.012 32.805-10.79 37.492 1.423 5.703 2.645 13.653 9.161 18.54 4.277 3.261 12.828 8.355 18.324 12.023 2.035 6.113 4.07 12.023 5.496 15.894 3.055 8.149 21.176 38.918 21.176 38.918s.813 1.63.61 3.461c-.204 1.836 1.628 7.133 1.628 7.133s6.11 14.875 12.829 31.176c-.817 3.055-6.516 23.226-6.516 26.894 0 3.871-1.832 11.004 11.402 23.434 13.23 12.43 42.348 35.656 42.348 35.656l7.734 5.504s-3.258 12.02-8.55 24.246c-.61 1.426-1.223 2.649-1.833 3.871-1.425 2.852-2.851 5.5-4.273 8.153-8.758 14.668-14.863 27.3-14.863 28.117 0 0 0 .203.203.406l-.203.41.61.813c0 3.668-.204 13.246 1.222 18.746 1.629 6.93.203 7.133 5.902 8.762 5.703 1.628 20.973 4.074 33.39 3.058 12.423-1.02 13.845-3.465 17.305-5.707 3.461-2.242 10.18-8.762 10.18-8.762l.41-3.464.203.203v.41s-2.238 13.039-.816 18.133c1.426 4.89 10.18 7.336 16.898 7.742 6.72.41 26.266 0 33.188-1.832 6.922-1.836 19.547-7.742 22.598-12.43 3.054-4.687 2.445-23.023 2.445-23.023v-.203c.406-.41.61-.817.61-.817l-4.887-71.926-.204-1.222c.614-3.465 2.446-13.246 2.852-18.137.406-5.094 3.664-11.41 4.684-13.04 5.293.204 8.753-4.073 8.753-4.073l26.672-45.645.813-6.926-.406.204c.609-.407 1.02-.817 1.02-.817s0 3.059-.614 8.152c-.406 5.094 1.426 22.82 2.242 27.098.813 4.281 1.832 7.133 2.645 6.93.816-.203 4.886-4.074 6.515-8.762 1.63-4.89 2.649-17.726 6.11-27.914 3.46-9.984 8.14-24.453 8.14-24.453s-1.015 20.375-1.219 21.394c-.203 1.02-2.039 16.711-3.257 23.23-1.223 6.52-.817 13.856 1.015 18.337 1.832 4.484 4.075 3.87 6.11 3.465 2.035-.407 3.46-7.54 3.46-7.54s6.516-2.648 8.755-3.464c2.035-.813 8.55-9.778 9.976-13.242 1.426-3.465 5.496-12.227 5.496-12.227s8.145-7.945 10.59-10.594c.61-.613 1.219-1.633 1.832-2.855l9.363 29.547s-4.68-.614-5.699 3.054c-1.02 3.668-1.832 21.805 1.832 32.196 3.664 10.39 6.516 29.543 11.2 32.398 4.679 2.852 9.976 3.258 14.859 3.461 5.09.207 8.758-.61 8.758-.61v26.692c0 4.484-11.2 31.79-11.2 31.79s-6.922 14.464-6.922 16.91c0 2.445-.203 4.89-.203 4.89l.203.203c-.203 1.629-1.425 9.168-.816 13.652.613 5.094 1.629 9.371 4.074 11.207 2.645 1.832 25.653 5.907 38.887 5.297 13.234-.61 22.598-4.484 26.875-9.78 4.273-5.298 2.441-22.618 2.441-22.618-.203-2.445-2.238-29.34-2.035-36.063 0-3.261-.203-8.355-1.02-13.652-.406-4.281-1.218-8.355-2.238-10.394-3.664-6.723-6.921-12.633-8.55-16.301-1.223-3.258-1.832-5.703-1.832-5.703h-.204s7.532-3.465 7.942-6.93c.406-3.461-5.09-17.93-5.09-17.93l-3.871-18.336s.613.203 1.629.813c0 .406.203.406.203.406s1.426.613 3.258 1.633c1.02.406 5.5 1.629 10.793 3.258 4.273 1.43 8.957 2.855 13.843 3.87 1.223.41 2.645.614 4.07.817.614.203 1.223.203 1.63.406h.41c.812.207 1.629.41 2.441.41 3.664.813 7.125 1.426 10.586 2.036 7.332 1.222 13.844 2.242 15.473 2.648 0 1.02-.61 8.969 1.02 11.82 1.831 3.055 3.663 4.48 5.09 4.891 1.222.406 2.85.61 2.85.61s-9.773 28.933-11.605 37.085c-.203.61-.406 1.223-.609 1.63-2.242 5.91-4.074 14.874-5.5 21.8-.203.41-.203.613-.203 1.02-.61 2.242-1.016 4.89-1.223 7.132-.406 2.04-.406 3.055-.406 3.055s.203 0 .406-.203v1.02s.207 0 .41-.204c-.613.407-1.02.813-1.02 1.223 0 0 1.02 13.04 1.833 17.32.816 4.48 4.48 8.149 4.48 8.149s15.88 5.707 26.262 7.539c10.383 1.836 17.102 2.242 23.414 1.836 6.313-.613 13.438-1.02 14.457-4.485 1.016-3.464 2.442-5.91 1.223-13.039-.817-4.687-1.02-6.316-1.02-6.93l.203.204v-.203c.203 0 .203.203.203.203s-.406-3.668-3.664-11.613c-2.238-5.5-4.48-14.06-5.906-20.579a205.083 205.083 0 0 1-1.219-15.078c0-6.726.204-14.062.204-14.062s15.675 8.761 21.988 10.597c6.312 1.832 15.066 3.668 20.765-1.836 1.02-1.015 2.036-2.445 3.055-3.87.817-1.223 1.63-2.649 2.445-4.481.204-.41.407-.816.61-1.426 1.832-4.281 3.258-8.355 3.867-11.004 2.445-7.945 4.887-16.914 6.719-23.636 1.832-5.094 3.664-9.372 4.886-10.801 4.07-4.074 10.18-6.317 13.438-13.446.61-1.425 1.223-3.261 1.426-5.093 0-.203.203-.41.203-.614 1.02-3.668.812-7.742-.203-12.43zM192.13 719.757c0-.202-.203-.202-.203-.41.203.208.406.208.406.41l.61.61c.206.41.613.613 1.019 1.02-.813-.61-1.426-1.02-1.832-1.63zm34.406-351.077s-14.25 7.336-25.246 12.43c-5.496-5.298-11.601-10.798-15.473-14.06-7.734-6.316-16.285-6.316-18.117-6.113 2.848-6.113 12.824-24.652 17.711-32.398 2.442-4.074 9.367-15.078 15.676-25.266.41 1.223 3.871 11.207 4.48 13.856.61 2.855 9.57 24.453 13.438 30.156 1.832 2.856 4.887 11.82 7.738 21.395zm0 0"/><path fill="#d8d8d8" d="M106.21 395.578c8.349-16.3 18.731-25.676 18.731-25.676l57.211 18.137 8.551-2.648c8.55-2.649 35.832-16.711 35.832-16.711l7.332-1.832 175.906-15.692-49.882 135.5-43.16 73.762 12.62 86.191 4.887 71.926s-4.476 5.297-9.773 8.149c-5.293 2.855-14.25 4.89-14.25 4.89s-13.438 2.242-28.3 3.059c2.444 0 5.292-.207 8.144-.41 26.062-1.832 27.687-4.075 32.37-6.114 4.684-1.832 11.2-8.554 11.2-8.554s.61 18.336-2.445 23.023c-3.051 4.688-15.676 10.594-22.598 12.43-6.922 1.832-26.469 2.242-33.188 1.832-6.718-.406-15.472-2.852-16.898-7.742-1.422-5.094.816-18.133.816-18.133s1.223 1.222 5.7 2.242c-3.868-1.02-5.7-2.445-5.903-2.855l-.41 3.464s-6.719 6.52-10.18 8.762c-3.46 2.242-4.882 4.688-17.304 5.707-12.418 1.016-27.688-1.43-33.39-3.058-5.7-1.63-4.274-1.832-5.903-8.762-1.426-5.91-1.223-16.3-1.223-19.356-.406-.41-.61-.816-.61-1.02 0-.816 6.106-13.448 14.864-28.116 8.754-14.672 14.656-36.27 14.656-36.27l-7.734-5.504s-29.117-23.226-42.348-35.656c-13.234-12.43-11.402-19.563-11.402-23.434 0-3.87 6.719-27.3 6.719-27.3l-14.254-82.93s-20.969-6.93-22.395-9.172c-1.222-2.035-17.101-11.207-23.617-16.098-6.516-4.886-7.738-12.836-9.16-18.539-1.223-4.687 2.441-21.191 10.789-37.492zm155.345 317.047s-16.285 8.965-19.75 11.004c8.96-1.629 19.75-11.004 19.75-11.004zm-58.637 12.023h.41c-5.5-1.222-9.164-3.464-11.402-5.3 0 .207.203.207.203.41 2.035 2.851 10.18 4.89 10.789 4.89zm237.394-447.863-13.437 25.676 19.547 80.281s2.441-1.02 7.328-2.445c4.887-1.426 21.988-2.649 21.988-2.649s17.102 2.239 19.953 4.075c2.852 1.832 8.551 18.543 8.551 18.543s2.649-1.02 5.906-.614c3.258.407 12.418 4.075 17.102 7.54 4.477 3.464 8.754 12.023 8.754 12.023s12.418 3.87 21.172 3.87c8.758.204 22.804-3.87 22.804-3.87s2.649-8.152 6.11-17.117c3.46-8.965 6.308-11.207 12.418-19.356 5.902-8.152 15.676-12.023 15.676-12.023l5.703-1.02 12.824-.203 22.805 11.817 4.886-31.172-38.074-96.176c-51.918-24.043-89.582-41.77-96.707-45.031-.613-.204-2.242-1.02-4.683-1.832-2.239-.817-7.942-2.243-15.88-1.63l-21.581 6.317s-13.641 6.316-25.653 14.262c-12.015 7.945-18.937 20.988-18.937 20.988s1.425 6.52 3.664 16.91c1.629 11.004-2.238 12.836-2.238 12.836zM571.43 714.867s1.02 13.04 1.832 17.32c.812 4.481 4.48 8.149 4.48 8.149s15.88 5.707 26.262 7.539c10.383 1.836 17.101 2.242 23.414 1.836 6.312-.613 13.437-1.02 14.457-4.484 1.016-3.465 2.441-5.91 1.219-13.04-1.219-7.132-1.016-7.132-1.016-7.132s-13.234-10.188-23.617-13.45c-10.383-3.46-27.895-3.054-27.895-3.054s-18.117 2.851-19.136 6.316zm-107.907 19.766s-1.628 8.965-.816 14.058c.613 5.094 1.629 9.371 4.074 11.207 2.645 1.832 25.653 5.907 38.887 5.297 13.234-.61 22.598-4.484 26.875-9.78 4.273-5.298 2.441-22.618 2.441-22.618l-20.359 7.133s-12.621 3.054-27.484 2.242c-14.66-.613-23.618-7.54-23.618-7.54zm0 0"/><path fill="#9b6150" d="M304.105 175.723s5.5-2.243 11.403.406c5.703 2.648 6.719 3.871 15.27 4.281 8.55.406 12.827 2.238 15.269 3.871 2.445 1.63 4.48 3.055 4.48 3.055s3.258-4.89 8.551-5.297c5.293-.406 9.16.203 9.16.203s5.907-3.054 13.032-3.054 23.82 5.906 23.82 5.906 11.605 2.855 18.527 12.226c6.922 9.375 10.18 33.621 10.18 33.621s-.406 4.891 3.258 14.875c3.664 9.985 5.496 17.114 5.703 19.559.203 2.445-.207 8.965-.817 9.578-.609.61-7.328-3.668-12.824-4.484 0 0-16.695-4.278-25.656-.61-9.16 3.871-22.395 13.04-22.395 13.04s-3.46 4.89 1.223 20.988c4.684 16.3 5.496 27.71 5.496 27.71l1.02 25.063s-10.996-2.242-21.38 8.149c-10.585 10.187-17.1 19.156-19.343 24.453-2.238 5.297-6.105 14.875-6.105 14.875s-6.516-.817-17.715 7.129c-11.196 7.949-14.25 11.41-28.707 12.632-14.453 1.223-18.325-.406-25.653.817-7.328 1.223-12.214 1.223-14.25-.203-2.039-1.223-3.257-4.89-3.257-4.89l-.614-7.54s-.61.406-4.68-.816c-4.074-1.223-5.906-2.446-5.906-2.446s-6.515-4.074-8.347-15.687c-1.832-11.613-10.18-40.14-13.844-45.848-3.867-5.703-12.828-27.3-13.438-30.156-.609-2.852-4.48-14.059-4.48-14.059l-62.3-.406-10.18-9.168 16.695-38.308s7.332-16.301 15.27-25.063c7.94-8.762 13.843-14.059 30.949-19.559 17.101-5.504 26.667-6.93 26.667-6.93zm0 0"/><path fill="#d8d8d8" d="M304.105 175.723s5.5-2.243 11.403.406c5.703 2.648 6.719 3.871 15.27 4.281 8.753.406 12.827 2.238 15.269 3.871 2.445 1.63 4.48 3.055 4.48 3.055s3.258-4.89 8.551-5.297c5.293-.406 9.16.203 9.16.203s5.907-3.054 13.032-3.054c6.921 0 23.82 5.906 23.82 5.906s11.605 2.855 18.527 12.226c6.922 9.375 10.18 33.621 10.18 33.621s-.406 4.891 3.258 14.875c3.664 9.985 5.496 17.114 5.703 19.559.203 2.445-.207 8.965-.817 9.578-.609.61-7.328-3.668-12.824-4.484 0 0-16.695-4.278-25.656-.61-9.16 3.871-22.395 13.04-22.395 13.04s-3.46 4.89 1.223 20.988c4.684 16.3 5.496 27.71 5.496 27.71l1.02 25.063s-10.996-2.242-21.38 8.149c-10.585 10.187-17.1 19.156-19.343 24.453-2.238 5.297-6.105 14.875-6.105 14.875s-6.516-.817-17.715 7.129c-11.196 7.949-14.25 11.41-28.707 12.632-14.453 1.223-18.325-.406-25.653.817-7.328 1.223-12.214 1.223-14.25-.203-2.039-1.223-3.257-4.89-3.257-4.89l-.614-7.54s-.61.406-4.68-.816c-4.074-1.223-5.906-2.446-5.906-2.446s-6.515-4.074-8.347-15.687c-1.832-11.613-10.18-40.14-13.844-45.848-3.867-5.703-12.828-27.3-13.438-30.156-.609-2.852-4.48-14.059-4.48-14.059l-62.3-.406-10.18-9.168 16.695-38.308s7.332-16.301 15.27-25.063c8.144-8.762 13.843-14.059 30.949-19.559 17.101-5.504 26.667-6.93 26.667-6.93zm0 0" fill-opacity=".498"/><path fill="#9b6150" d="M388.805 357.883s-1.426 21.597 1.629 32.398c3.05 10.797 7.937 46.047 5.09 57.664-2.852 11.41-19.141 38.914-19.141 38.914s-6.516 9.985-7.531 17.73c-.817 7.54.812 26.49-1.426 33.212-2.238 6.722-7.328 17.93-6.516 20.578.817 2.652 4.277 2.855 4.277 2.855l7.735-3.668-.813 6.926-26.671 45.645s-4.278 5.297-10.79 3.87c-6.312-1.425-31.761-12.429-35.425-16.71-3.668-4.074-2.243-8.149-.614-14.262 1.832-6.113 5.704-16.504 8.957-28.933 3.258-12.43 5.09-21.192 5.09-21.192s-4.07 1.02-9.77 6.317c-5.702 5.296-18.12 20.988-18.12 20.988s-15.676 2.445-23.414 2.445c-7.739 0-8.957-.613-8.957-.613s2.644 6.726.203 10.598c-2.446 3.87-6.922 13.652-24.637 21.8-17.711 8.153-34.406 10.39-34.406 10.39s-7.942 1.837-10.996-3.054c-2.848-4.89-30.743-72.742-30.743-72.742s-1.832-5.297-1.629-7.133c.204-1.832-.609-3.46-.609-3.46s-18.121-30.77-21.176-38.919c-2.847-8.152-8.957-25.472-10.992-34.027-1.832-8.559-1.629-14.469-1.629-14.469l14.656-3.054s6.516-1.836 8.551-1.223c1.836.61 6.313 1.223 6.313 1.223s-9.16-11.004-10.992-25.676c-1.832-14.465.203-25.672.203-25.672s7.941 4.277 17.71-1.223c9.774-5.504 15.067-14.469 15.067-14.469s9.774-1.019 18.527 6.114c8.754 7.133 28.707 26.898 28.707 26.898l15.68 19.559 10.992-4.278s3.461 1.832 5.7 2.649c2.242.812 4.074.61 4.074.61s-.817 10.8 3.258 12.429c4.07 1.629 15.878-.406 15.878-.406s12.215.61 19.141.61l13.844-2.24s-6.11 6.11-7.535 15.485c-1.426 9.371-2.035 16.504-2.645 33.211-.613 16.711-.406 45.848-.406 45.848l1.219 11.41s5.293-15.895 9.57-23.23c4.273-7.333 11.605-11.208 11.605-11.208l7.735-2.441 1.832-.207s.41-2.852 1.223-3.258c.816-.41 2.445-.203 2.445-.203l4.07-45.848s3.867-25.671 9.977-41.363c5.902-15.687 14.25-26.691 18.933-31.785 4.684-5.094 15.883-11.613 18.528-11.613 2.648 0 9.164.203 9.164.203zm0 0"/><path d="M388.805 357.883s-1.426 21.597 1.629 32.398c3.05 10.797 7.937 46.047 5.09 57.664-2.852 11.41-19.141 38.914-19.141 38.914s-6.516 9.985-7.531 17.73c-.817 7.54.812 26.49-1.426 33.212-2.238 6.722-7.328 17.93-6.516 20.578.817 2.652 4.277 2.855 4.277 2.855l7.735-3.668-.813 6.926-26.671 45.645s-4.278 5.297-10.79 3.87c-6.312-1.425-31.761-12.429-35.425-16.71-3.668-4.074-2.243-8.149-.614-14.262 1.832-6.113 5.704-16.504 8.957-28.933 3.258-12.43 5.09-21.192 5.09-21.192s-4.07 1.02-9.77 6.317c-5.702 5.296-18.12 20.988-18.12 20.988s-15.676 2.445-23.414 2.445c-7.739 0-8.957-.613-8.957-.613s2.644 6.726.203 10.598c-2.446 3.87-6.72 13.855-24.434 22.003-17.71 8.153-34.406 10.395-34.406 10.395s-7.942 1.832-10.996-3.059c-2.848-4.89-30.742-72.742-30.742-72.742s-1.833-5.297-1.63-7.129c.204-1.836-.609-3.465-.609-3.465s-18.12-30.77-21.176-38.918c-3.05-8.152-8.957-25.468-10.992-34.027-1.832-8.558-1.629-14.469-1.629-14.469l14.66-3.054s6.512-1.836 8.551-1.223c1.832.61 6.309 1.223 6.309 1.223s-9.16-11.004-10.992-25.676c-1.832-14.465.203-25.672.203-25.672s7.941 4.277 17.71-1.223c9.774-5.5 15.067-14.468 15.067-14.468s9.774-1.016 18.528 6.113c8.757 7.133 28.707 26.898 28.707 26.898l15.68 19.559 10.991-4.277s3.461 1.832 5.704 2.648c2.238.816 4.07.61 4.07.61s-.813 10.8 3.258 12.43c4.07 1.632 15.879-.407 15.879-.407s12.218.61 19.14.61l13.844-2.24s-6.11 6.114-7.535 15.485c-1.422 9.375-2.035 16.504-2.645 33.211-.61 16.711-.406 45.848-.406 45.848l1.219 11.41s5.297-15.894 9.57-23.226c4.277-7.336 11.606-11.208 11.606-11.208l7.738-2.445 1.832-.203s.406-2.855 1.219-3.262c.816-.406 2.445-.203 2.445-.203l4.07-45.847s3.867-25.672 9.977-41.364c5.906-15.687 14.254-26.691 18.933-31.785 4.684-5.094 15.883-11.613 18.528-11.613h8.96zM190.094 716.906l2.847 3.461c2.852 3.465 10.387 5.094 10.387 5.094s31.352-1.016 38.07-1.629c6.72-.61 19.954-11.207 19.954-11.207l-2.036 18.543s3.664 2.039 7.125 2.648c3.664.614 11.606.614 11.606.614s19.34-.614 33.187-2.653c13.641-1.832 22.598-13.445 22.598-13.445l-1.426-25.473-3.867-45.437s-8.55-11.613-15.473-17.524c-6.921-5.906-17.308-6.316-21.582-5.5-4.277.61-7.535 3.262-10.996 8.965-3.664 5.707-6.511 20.375-6.511 20.375s-8.758-20.172-11.403-23.226c-2.648-3.059-2.035-3.871-6.922-4.074-4.886-.41-27.078-1.633-27.078-1.633s-4.48-.407-5.297 5.91c-.812 6.316-1.422 17.726-7.125 32.805-5.699 15.078-13.027 28.73-13.027 28.73l-10.996 19.355-2.035 5.301" fill-opacity=".447"/><path fill="#9b6150" d="M580.184 418.398s-11.606 4.075-20.36 4.075-22.8-2.852-22.8-2.852-6.72-12.023-16.29-16.3c-9.57-4.075-17.511-3.262-17.511-3.262s-3.461-15.282-8.551-18.54c0 0-7.125-3.261-17.102-3.667-9.976-.41-19.136.609-23.207 1.832-4.074 1.222-7.332 2.242-7.332 2.242s-1.832 22.617-4.683 33.21c-2.848 10.598-7.532 24.86-6.106 35.25 1.426 10.395 6.922 37.493 6.922 37.493l1.426 51.55s.406 1.837-.613 6.317c-1.016 4.484-2.848 8.152-2.848 8.152l9.566 30.157s-4.68-.614-5.699 3.054c-1.02 3.668-1.832 21.805 1.832 32.196 3.664 10.39 6.516 29.543 11.2 32.398 4.679 2.852 9.976 3.258 14.859 3.461 5.09.207 8.758-.61 8.758-.61v26.692c0 4.484-11.2 31.785-11.2 31.785s-6.922 14.469-6.922 16.914c0 2.446-.203 4.89-.203 4.89s13.438 10.188 31.762 8.56c18.324-1.836 24.836-2.856 30.742-6.114 5.903-3.261 8.957-4.074 8.957-4.074l-2.238-29.344s.812-24.246-2.852-31.176c-3.664-6.925-7.125-13.039-8.754-16.707-1.832-3.668-1.832-5.296-1.832-5.296s7.532-3.465 7.942-6.93c.406-3.461-5.09-17.93-5.09-17.93l-3.871-18.34s14.254 6.32 29.726 9.985c15.27 3.668 34.407 6.316 34.407 6.316s-.813 8.969 1.02 12.024c1.831 3.054 3.663 4.484 5.09 4.89 1.222.406 2.85.61 2.85.61s-10.59 31.379-11.808 37.902c-1.223 6.52-4.683 18.95-6.11 23.633-1.425 4.687-1.222 11.004-1.222 11.004s6.516-3.258 14.457-4.075c7.942-.613 20.36-.613 29.113 1.63 8.957 2.242 26.875 14.058 26.875 14.058s-.406-3.668-3.664-11.613c-3.258-7.946-6.515-22.004-6.922-27.305-.406-5.5 0-22.41 0-22.41s15.676 8.762 21.989 10.594c6.312 1.832 15.066 3.668 20.765-1.832 5.496-5.504 9.774-18.543 10.383-22.211.613-3.668 7.535-28.934 11.403-33.008 4.07-4.078 10.18-6.317 13.437-13.45 3.258-7.132 1.629-19.968 0-25.265-1.629-5.297-7.125-19.563-14.863-30.566-7.735-11-23.617-39.934-25.856-43.602-2.238-3.871-5.293-12.43-5.293-12.43s2.239-27.508 2.239-32.601c0-4.89-.204-9.782.609-12.024.613-2.238 5.5-9.777 5.297-14.058-.41-4.278-4.887-17.727-4.887-17.727s-1.02-3.262 0-5.297c1.016-2.242 1.629-10.39-2.648-16.3-4.274-6.114-10.383-12.227-15.88-15.692-5.292-3.46-16.491-8.555-16.491-8.555l-8.551.813-6.922-.813s-12.215 4.684-16.695 10.797c-4.48 5.707-13.438 17.117-19.75 37.492zm0 0"/><path d="M578.96 680.023c-4.07 11.207-7.327 33.008-7.327 33.008s12.215-4.074 27.687-3.664c15.68.61 32.578 9.985 32.578 9.985l10.383 6.109s-1.222-5.703-5.906-16.3c-4.68-10.595-5.09-42.583-5.09-42.583l.817-16.3s-6.922 0-14.457-2.856c-7.532-2.852-17.508-5.297-20.563-5.5-3.055-.203-5.7-.817-5.7-.817s-8.347 27.508-12.421 38.918zm-110.956 39.532c4.883-7.54 13.844-30.973 14.25-40.14.406-8.966.203-24.657.203-24.657l29.93-2.852 6.922-1.222s3.054 11.613 7.738 17.523c4.68 5.906 6.105 21.598 5.902 28.523-.203 7.133 2.035 36.27 2.035 36.27s-16.488 8.355-28.91 9.578c-12.418 1.223-28.3-1.223-33.39-3.055-5.293-1.836-8.754-5.503-8.754-5.503s-.813-6.926 4.074-14.465zm0 0" fill-opacity=".749"/><path fill="#d8d8d8" d="m632.508 650.277-.61 13.446s17.305 11.207 26.672 11.207c9.364 0 15.676 2.445 21.578-10.39 6.11-12.837 12.22-43.606 15.067-46.052 2.851-2.648 14.254-11.41 16.289-19.968 2.035-8.555-1.02-18.133-7.942-34.434-6.921-16.098-25.246-42.992-25.246-42.992l-14.453-27.305s-6.515 26.691-7.332 33.211c-.61 6.316-2.847 14.469-3.867 22.617-1.016 8.153-1.832 22.824-1.832 22.824s4.684-.613 5.7 2.036c1.019 2.648 3.054 2.648 1.425 13.652l-6.309 44.418s-2.039 11.617-4.074 13.855c-1.832 2.243-15.066 3.875-15.066 3.875zM507.5 483.602c-3.055 8.148-3.258 20.171-3.258 20.171l5.293 65.813h.613l.813 11.207s2.035 0 4.07 1.426c1.836 1.43 2.446 2.445 2.446 9.781s2.441 16.707 2.441 16.707 1.426.613 3.258 1.633c1.832.812 14.457 4.074 23.414 6.722 8.754 2.649 36.039 6.93 36.039 6.93l2.035-17.32s3.258-30.156 4.887-33.215c1.629-3.055 6.308-4.074 6.308-4.074s-.203-10.188-.203-12.227c0 0-5.496 1.02-14.453.614-8.96-.407-17.715-4.075-17.715-4.075l-3.258 4.278v-.203s7.942-9.168 9.977-15.282c2.035-5.91-.203-13.043-.203-13.043l-11.2-32.601s-5.495-17.524-7.124-21.598c-1.63-4.074-7.532-35.86-7.532-35.86s-4.886-18.949-14.66-30.359c-9.773-11.414-24.84-8.558-24.84-8.558l4.684 34.636s4.074 9.375 4.684 15.489c-.203 6.11-3.461 24.652-6.516 33.008zm16.29 89.449c3.663 1.426 8.14 2.851 12.01 3.465 7.735 1.222 11.81.609 17.305-1.223 5.497-1.836 7.942-4.89 8.145-7.336 0-1.223-.406-3.871-.816-6.113.816 2.648 1.629 6.316.613 8.558-1.832 3.871-8.55 7.336-16.899 7.336-8.347 0-15.27-.613-20.156-4.281 0-.203 0-.203-.203-.406zm0 0" fill-opacity=".447"/><path fill="#9b6150" d="M575.297 71.602s8.754-4.688 18.527-2.649c9.57 2.04 21.785 6.317 29.524 13.45 7.734 7.331 20.765 19.761 25.652 32.6 4.887 12.837 8.754 29.747 9.363 36.677.614 6.925-.203 19.761 5.5 34.23 0 0 6.922 20.578 14.25 29.543 7.332 8.762 15.68 23.027 19.75 28.121 3.867 5.297 6.313 17.727 6.719 21.395.406 3.668-1.832 15.281-1.832 15.281s1.223 8.559.61 15.281c-.61 6.727-6.923 24.453-6.923 24.453s.817 16.504-1.832 22.207c-2.44 5.707-6.921 15.895-12.625 18.747-5.496 2.855-9.363 4.89-9.363 4.89s-6.922 8.762-10.18 10.188c-3.257 1.425-6.921 3.261-6.921 3.261l1.832-28.12-52.938-74.778-6.308-44.012h-40.516l-10.996 6.723-9.567 22.617s-11.402 18.34-11.402 26.898c0 8.555 1.629 20.985 1.629 20.985s-4.887-3.668-6.719-11.817c-1.832-8.148-1.02-16.3-1.02-16.3s-2.644 5.5-2.644 10.187c0 0-4.48-6.316-3.46-19.558 1.218-13.45 3.866-22.008 10.991-33.622 7.125-11.613 12.829-26.488 13.235-29.75l.61-3.464s-4.071 3.464-7.735 3.87c-3.668.614-11.606-2.034-11.606-2.034s4.684-4.891 5.496-9.985c.817-5.094-5.699-37.898-3.664-50.125 2.036-12.226 3.664-19.969 10.993-38.101 7.332-18.137 17.105-27.508 21.988-32.196 4.887-4.484 7.738-5.093 12.015-6.316 4.274-1.223 9.567 1.223 9.567 1.223zm0 0"/><path d="M575.297 71.602s8.754-4.688 18.527-2.649c9.774 2.04 21.785 6.317 29.524 13.45 7.734 7.331 20.765 19.761 25.652 32.6 4.887 12.837 8.754 29.747 9.363 36.677.614 7.129-.203 19.761 5.5 34.23 0 0 6.922 20.578 14.25 29.543 7.332 8.762 15.68 23.027 19.75 28.121 3.867 5.297 6.313 17.727 6.719 21.395.406 3.668-1.832 15.281-1.832 15.281s1.223 8.559.61 15.281c-.61 6.727-6.923 24.453-6.923 24.453s.817 16.504-1.832 22.207c-2.44 5.707-6.921 15.895-12.625 18.747-5.496 2.855-9.363 4.89-9.363 4.89s-6.922 8.762-10.18 10.188c-3.257 1.425-6.921 3.261-6.921 3.261l1.832-28.12-52.938-74.778-6.308-44.012h-40.516l-10.996 6.723-9.567 22.617s-11.402 18.34-11.402 26.898c.203 8.555 1.629 20.985 1.629 20.985s-4.887-3.668-6.719-11.817c-1.832-8.148-1.02-16.3-1.02-16.3s-2.644 5.5-2.644 10.187c0 0-4.48-6.316-3.46-19.558 1.218-13.45 3.866-22.008 10.991-33.622 7.125-11.613 12.829-26.488 13.235-29.75l.61-3.464s-4.071 3.464-7.735 3.87c-3.668.614-11.606-2.034-11.606-2.034s4.684-4.891 5.496-9.985c.817-5.094-5.699-37.898-3.664-50.125 2.036-12.226 3.664-19.969 10.993-38.101 7.332-18.137 17.105-27.508 21.988-32.196 4.887-4.484 7.738-5.093 12.015-6.316 4.274-1.223 9.567 1.223 9.567 1.223zm0 0" fill-opacity=".529"/><path fill="#9b6150" d="M221.445 53.262s6.72-3.055 12.22-5.5c5.495-2.446 10.991-2.649 17.507-.61 6.516 1.832 12.012 7.743 14.66 11 2.848 3.059 2.441 3.668 8.145 5.301 5.699 1.629 11.398 11 11.398 11l5.09 12.227-.203 13.652-9.16 38.918-96.301 15.688s-18.121-6.317-19.547-11.614c-1.426-5.297 1.223-9.37-1.426-12.836-2.644-3.465-11.808-13.652-6.312-25.062 5.5-11.207 16.695-17.117 16.898-22.82.207-5.708-1.832-14.06 2.852-17.118 4.48-3.054 4.074-4.074 9.367-4.074 5.293 0 8.957.816 8.957.816s-1.02-6.93 5.906-8.968c6.922-2.035 11.195-2.649 13.438-1.426 2.644 1.223 6.511 1.426 6.511 1.426zm0 0"/><path fill="#f2dbbf" d="M539.059 127.84c-.817 7.336 1.425 36.062 2.644 45.64 1.223 9.579 9.367 16.098 9.367 16.098s2.035 15.688 1.223 24.45c-.816 8.761-5.5 25.472-5.5 25.472s3.258 4.48 7.738 6.316c4.684 1.832 9.774 3.055 18.934 1.63 9.164-1.426 14.457-6.93 14.457-6.93l4.07 32.398 10.996 63.98s2.848 23.84 6.719 28.325c3.867 4.48 14.25 5.703 19.95 5.094 5.702-.817 16.288-4.282 25.042-12.43 8.754-8.153 12.012-22.414 12.219-29.547 0-7.129-7.129-20.172-7.129-20.172l-16.488-20.578-14.66-16.914s-10.793-32.602-13.032-38.102c-2.238-5.297-3.664-13.855-3.664-13.855s2.239-4.48 3.867-5.91c1.63-1.223 21.176-16.91 26.47-20.578 5.292-3.668 7.53-11.004 8.753-13.653 1.426-2.648.203-4.48.203-4.48s.817-5.707-.203-9.985c-1.222-4.28-2.644-3.058-2.644-3.058s-3.258-6.317-5.5-8.149c-2.239-1.836-8.754-6.52-10.79-6.726-2.035-.203-2.851 1.426-2.851 1.426l-2.645-1.22-2.851-2.652s-8.957-8.351-12.215-13.855c-3.258-5.5-7.129-13.445-8.144-18.133-1.02-4.687-8.348-14.875-14.047-19.562-5.703-4.684-15.68-8.149-15.68-8.149-4.273 4.48-9.363 9.168-12.621 11.207-3.461 2.035-9.977 8.149-12.422 11.614-2.441 3.261-8.754 13.449-9.566 20.988zM368.035 517.629c-.203-7.945 1.832-18.34 4.684-23.434 2.851-5.093 17.918-30.968 20.562-38.71 2.649-7.95 2.649-20.786.614-39.126-2.04-18.336-5.704-38.304-5.704-43.601.204-5.094-.406-31.992-1.218-41.567-.817-9.578-4.887-27.507-6.313-33.011-1.426-5.297.406-15.89.406-15.89s10.586-7.134 17.508-10.599c6.719-3.464 13.645-4.89 22.805-2.851 0 0 12.215 2.242 15.676 3.262 3.46 1.015 3.87 4.886 3.87 4.886l.407 19.36 3.258 36.879 1.832 41.566s.61 21.394-2.445 31.582c-3.051 10.191-6.516 26.285-6.516 26.285s-1.832 15.488.613 28.934c2.238 13.246 5.293 26.285 5.293 26.285l.406 25.473s2.036 23.43 1.426 27.914c-.61 4.48-3.258 13.445-5.699 16.097-2.445 2.649-10.59 10.594-10.59 10.594s-4.07 8.762-5.496 12.227c-1.426 3.464-7.941 12.43-9.976 13.242-2.239.816-8.754 3.465-8.754 3.465s-1.426 7.132-3.461 7.539c-2.036.406-4.278 1.02-6.11-3.465-1.832-4.48-2.238-11.817-1.015-18.336 1.218-6.524 3.054-22.211 3.257-23.23.204-1.02 1.22-21.395 1.22-21.395s-4.68 14.469-8.141 24.453c-3.461 10.188-4.48 23.023-6.11 27.914-1.629 4.688-5.699 8.559-6.515 8.762-.813.203-1.832-2.649-2.645-6.93-.816-4.277-2.648-22.004-2.242-27.098.613-5.093.613-8.152.613-8.152s-4.074 3.465-6.926 3.871c-2.644.41-6.308-1.629-5.699-3.87.406-2.243 6.922-19.153 6.922-19.153s.406-12.227.203-20.172zM110.488 332.617c4.274-19.156 9.77-28.324 9.77-28.324l9.164-9.574 8.55 7.129 11.81-16.707s14.452-16.707 24.023-26.082c9.773-9.168 23.617-29.137 28.504-35.25 4.886-6.114 13.437-24.653 13.437-24.653s-9.976-9.578-11.2-13.246c-1.218-3.668-2.034-10.39-2.034-10.39L190.5 157.793l-11.2-11.82-4.07-13.04s4.887 6.114 5.497 9.782c0 0 4.886-4.485 6.312-12.84 1.629-8.148-.406-17.93-.406-17.93s5.902 5.094 6.515 10.188c.61 5.094.813 6.316.813 6.316l3.46-2.648 3.056-4.89s4.07-1.02 6.515-5.5c2.442-4.485 4.274-11.208 2.442-17.118-1.832-5.906-5.293-12.43-5.293-12.43s11.199 7.133 14.66 12.024c3.258 5.093 5.09 9.168 5.09 12.836 0 3.668-2.239 8.761-2.239 8.761s4.07-4.48 5.903-9.578c1.629-5.094-2.442-17.316-2.442-17.316s5.7 8.351 5.7 14.058c0 4.075-1.02 5.91-1.63 6.723 1.426-1.629 6.72-7.539 7.739-12.223 1.016-5.503-1.629-15.488-1.629-15.488s4.273 7.336 4.07 11.82c-.203 4.48-1.222 9.168-1.222 9.168s6.312-3.464 7.738-8.761c1.426-5.297 3.867-4.485 4.887-9.375 0 0 .609 4.89-1.223 9.781 0 0 5.496-5.5 6.719-8.965.816-2.445.816-6.52.61-8.762.41 3.465 1.425 12.024 6.312 18.137 6.109 7.945 17.101 10.188 17.101 10.188s1.63-8.356 4.277-10.598c2.645-2.445 4.887-2.445 9.16-1.629 4.278.816 8.551 8.762 9.165 12.836.61 4.074.61 15.281-.817 18.95-1.425 3.667-7.328 7.335-7.328 7.335l-2.445 2.04 4.48 15.89 15.676 39.734 7.738 16.098s-1.02 7.539-8.144 14.465c-7.125 7.133-17.102 13.449-26.469 15.281-9.363 1.633-13.23 1.223-18.933-1.223-5.7-2.441-15.27-9.574-15.27-9.574l-36.852 52.977s-23.82 38.714-29.113 47.066c-5.293 8.356-16.492 29.547-18.324 33.621-1.832 4.074-11.195 14.059-21.785 14.266-10.586.203-21.582-3.262-26.059-9.375-4.48-6.113-13.031-15.078-8.754-34.434zM256.465 81.18c0-1.02-.203-1.633-.203-1.633s.203.613.203 1.633zm59.86 526.511c8.347 4.891 20.562 6.11 20.562 6.11s-4.48 7.543-4.887 13.449c-.406 5.91-3.055 19.36-3.055 19.36s-12.824-14.063-16.898-16.915c-4.07-2.851-14.047-6.316-18.121-5.5-4.07.813-8.348 3.055-8.348 3.055l14.457-28.934c.203 0 8.145 4.485 16.29 9.375zm-67.802-27.304s2.243 18.543 4.684 25.672c2.445 7.132 7.332 20.582 7.332 20.582l-31.762-1.633-15.882-24.45s13.437-4.277 21.785-8.964c8.347-4.688 13.843-11.207 13.843-11.207zM531.93 209.344c3.465-1.02 6.718-4.89 6.718-4.89l-6.308 19.968s-2.445-1.836-3.871-4.484c-1.422-2.649-3.051-10.188-3.051-10.188s3.258.61 6.512-.406zm0 0"/><path fill="#0d88cc" d="M223.688 141.492c2.847 9.985-4.481 17.317-8.961 19.559-4.477 2.242-16.286 2.242-21.375-4.89-5.293-7.337-3.872-15.485-1.63-19.56 2.239-4.078 11.403-10.187 20.97-7.132 9.57 3.054 10.995 12.023 10.995 12.023zm37.664-33.418s-3.664-3.054-11.403-1.629c-7.734 1.426-12.215 6.317-13.64 11.817-1.426 5.504-.407 14.875 5.496 18.949 5.906 3.871 18.324 4.281 23.824-2.852 5.496-7.132 3.867-15.28 3.258-18.34-.614-3.054-7.535-7.945-7.535-7.945zm292.363 25.063c-8.754-3.055-14.25-2.852-20.36 2.648-6.105 5.5-6.515 13.856-2.644 18.95 3.867 5.296 9.566 9.984 20.969 6.93 11.402-3.06 11.402-17.118 11.402-17.118s-.406-8.356-9.367-11.41zm55.582-4.485s-2.035-4.277-13.438-4.277c-11.398 0-15.675 10.188-15.675 10.188s-2.036 6.519 1.425 12.43c3.461 5.91 10.586 9.167 18.528 8.148 7.941-1.016 12.62-7.743 14.25-12.426 1.629-4.688-5.09-14.063-5.09-14.063zm0 0" fill-opacity=".447"/><g clip-path="url(#a)"><path d="M581 154.734c0-.812-.816-1.425-1.629-1.425-.41 0-.816.203-1.223.203-.816.203-1.222 1.02-1.02 1.836.204.609.817 1.222 1.427 1.222h.406c.207 0 .41-.207.613-.207.813 0 1.426-.812 1.426-1.629zm-12.828 2.852c-.203 0-.406 0-.61-.203l-.816-.203c-.812-.203-1.223-1.223-.812-2.04.406-.812 1.218-1.218 2.035-.812l.812.203c.817.203 1.223 1.223.817 2.04-.203.609-.817 1.015-1.426 1.015zm23.82 13.652c-2.441 0-4.887-1.02-6.719-2.035l-1.015-.41c-2.649-1.223-4.48-1.426-5.906-.813-.204 0-.204.204-.407.204a9.972 9.972 0 0 1-1.425.609c-1.426.41-2.852-.203-3.868-.406-.41-.203-1.02-.407-1.425-.407-1.426-.203-3.055.813-4.684 2.036-1.832 1.425-3.867 3.058-6.313 3.058-.812 0-1.628-.613-1.628-1.426 0-.816.613-1.632 1.425-1.632 1.63 0 3.055-1.223 4.684-2.446 1.832-1.425 4.273-3.054 6.922-2.648.816.203 1.426.41 2.035.613.816.203 1.426.61 2.035.406.207 0 .41-.203.817-.406.203-.203.406-.203.609-.41 2.242-1.016 5.09-.813 8.55.816l1.02.407c1.832.816 3.664 1.836 5.293 1.632.817 0 1.63.61 1.63 1.426-.204 1.223-.813 1.832-1.63 1.832zm-21.172 3.059c1.016.61 2.442 1.02 4.274 1.02 2.445 0 5.09-.41 7.328-1.223.816-.207 1.629.203 2.039.812.203.817-.203 1.633-.816 2.04-2.645 1.019-5.293 1.425-7.942 1.425h-.61c-2.44 0-4.273-.613-5.902-1.426-.816-.406-1.02-1.425-.41-2.039.41-.812 1.426-1.02 2.04-.61zm104.035 101.676c-.203 0-.406.203-.609.203-.61 0-1.223-.41-1.426-1.02-2.851-6.93-8.754-11.816-14.66-17.117-3.664-3.055-7.328-6.316-10.383-9.984-5.699-6.723-9.363-15.078-10.382-23.84 0-.813.406-1.63 1.222-1.63.813 0 1.63.407 1.63 1.224 1.015 8.152 4.476 16.097 9.769 22.21 2.851 3.465 6.515 6.52 9.976 9.575 6.11 5.3 12.219 10.597 15.477 18.136.406 1.02 0 2.036-.614 2.243zM276.621 111.539c-.406 0-.61-.203-1.02-.41-9.363-7.129-15.269-18.336-16.081-30.156 0-.813.609-1.63 1.425-1.63.813 0 1.63.614 1.63 1.427.609 10.8 6.105 21.19 14.863 27.918.609.406.812 1.425.203 2.238a1.12 1.12 0 0 1-1.02.613zm-26.262-11.207c-.207.203-.613.203-.816.203-.406 0-1.02-.203-1.223-.61-.406-.612-.203-1.632.41-2.038 3.254-2.04 5.293-5.91 5.497-10.598.203-4.48-1.02-8.965-2.446-12.836-.203-.812.203-1.629 1.02-2.035.812-.207 1.629.203 2.035 1.016 1.426 4.078 2.851 8.968 2.648 14.062-.406 5.5-3.054 10.188-7.125 12.836zm-11.808 8.356c-.207.203-.41.203-.613.203-.61 0-1.016-.41-1.426-.817-.407-.816 0-1.629.816-2.039 1.629-.812 2.848-2.238 4.274-4.48 2.445-4.282 3.46-9.375 2.648-14.059-.816-4.687-3.055-9.375-6.719-12.84a1.599 1.599 0 0 1 0-2.238 1.591 1.591 0 0 1 2.239 0 25.03 25.03 0 0 1 7.535 14.465c.812 5.504-.203 11.207-3.055 16.097-1.629 2.852-3.46 4.688-5.7 5.707zm-8.758 7.128c-.203.204-.61.41-1.016.41-.41 0-.816-.206-1.222-.41-.61-.609-.407-1.629.203-2.242 2.035-1.832 3.46-4.683 3.664-7.945.203-2.649-.203-5.703-1.219-9.371a43.672 43.672 0 0 0-9.976-16.711 1.591 1.591 0 0 1 0-2.238 1.591 1.591 0 0 1 2.238 0c4.887 4.886 8.754 11.203 10.789 17.93 1.223 3.87 1.629 7.335 1.426 10.593-.61 4.281-2.239 7.742-4.887 9.984zm-6.106 2.243c-.816 2.242-2.035 3.668-3.664 4.277h-.41c-.61 0-1.218-.406-1.425-1.016-.204-.816.207-1.632 1.019-1.836.61-.203 1.223-1.02 1.832-2.445 1.832-4.89 1.223-10.797-1.426-15.281-1.218-2.04-3.054-4.074-5.699-6.317-2.035-1.832-4.277-3.464-6.312-5.093 2.035 3.668 3.46 7.336 4.074 11.004 1.219 6.925-1.426 14.464-6.926 20.171-.406.407-.813.407-1.219.407-.406 0-.816-.203-1.02-.407a1.604 1.604 0 0 1 0-2.242c4.887-4.89 7.126-11.613 6.11-17.523-1.02-5.707-3.871-11.613-8.96-17.727-.204-.203-.204-.406-.204-.613-.406-.406-.812-.813-1.016-1.223-2.242-3.054-2.648-6.925-3.257-10.187-.204-.813.406-1.63 1.222-1.832.813-.203 1.625.406 1.832 1.222.407 3.055 1.016 6.317 2.645 8.965 1.222 1.63 2.851 2.852 4.683 4.278l2.036 1.632a128.74 128.74 0 0 1 8.347 6.52c2.852 2.445 4.887 4.687 6.11 7.133 3.054 5.5 3.664 12.222 1.629 18.133zm109.536 156.488c-2.04 14.262-3.668 28.933-5.09 43.195l-.203 2.242c-1.02 12.836-2.243 26.079-7.942 37.899-4.683 9.781-12.625 18.746-23.21 25.875-10.383 7.133-21.989 12.023-31.15 15.488-.206 0-.41.203-.612.203-.61 0-1.223-.406-1.426-1.02-.203-.816 0-1.628.816-2.038 8.957-3.461 20.36-8.149 30.336-15.079 10.18-6.925 17.711-15.484 22.192-24.652 5.496-11.207 6.515-24.246 7.53-36.879l.208-2.242c1.219-14.469 2.848-29.137 5.09-43.402 1.422-9.371 3.05-18.133 8.957-24.86.61-.609 1.629-.609 2.238-.203.613.613.613 1.633.203 2.242-5.09 5.91-6.719 14.47-7.937 23.23zm-34.207 116.75-.61.41c-3.867 3.055-7.941 6.113-10.18 10.188-1.425 2.445-2.035 6.113-.203 8.148 2.645 2.855 8.145.41 9.774-.406 4.887-2.446 9.77-5.707 14.25-8.762 6.922-4.688 14.047-9.578 22.394-12.023.817-.204 1.63.207 1.832 1.02.207.815-.203 1.632-1.015 1.835-7.738 2.242-14.457 6.723-21.582 11.41-4.684 3.258-9.363 6.52-14.66 8.965-2.645 1.223-5.293 2.04-7.329 2.04-2.44 0-4.273-.817-5.902-2.243-3.055-3.059-2.242-8.152-.207-11.82 2.649-4.684 6.926-7.946 10.996-11l.61-.41c28.503-22.004 47.03-45.844 55.378-70.704.204-.816 1.02-1.222 2.036-1.02.816.204 1.222 1.223 1.02 1.837-8.755 25.875-27.688 50.125-56.602 72.535zM95.422 442.238c1.422 3.871 6.105 11.207 11.808 14.465 5.09 2.652 11.81 7.133 16.082 12.43 1.426 3.668 2.852 7.539 4.481 11.41 5.7 13.45 13.234 26.082 20.562 38.105-.609 2.036 0 3.872.61 5.297 4.277 11.817 8.55 23.434 13.437 34.844-.203.203-.406.61-.406 1.02-.203 4.683-1.629 9.37-2.851 14.058-2.036 7.54-4.274 15.281-1.833 23.024 2.04 6.316 6.72 11.207 11.403 15.894 15.27 14.465 31.558 27.914 48.863 39.934a158.65 158.65 0 0 1-16.289 39.328c-1.016 1.832-2.035 3.465-3.05 5.297-3.462 5.707-6.923 11.613-9.571 18.34v.203c0 .203-.203.61 0 .812-.203 6.93.203 13.856 1.223 20.582.406 2.446 1.015 5.5 3.05 7.336 1.836 1.63 4.075 2.238 6.313 2.649 7.738 1.629 15.473 2.238 23.21 2.238 4.071 0 8.349-.203 12.419-.61 2.648-.203 5.703-.609 8.55-2.039 2.649-1.222 4.887-3.054 7.13-4.886l6.515-5.504c-.41 3.87-.613 7.945-1.02 12.226v.61c2.442 7.336 20.563 9.172 30.133 9.172h.407c15.27 0 27.28-2.856 36.851-8.153 2.035-1.02 4.48-2.648 6.313-5.093 2.847-3.465 3.664-7.946 4.273-11.41 1.426-9.579.817-19.356.406-28.934l-1.832-33.824c-.406-8.149-1.015-16.301-2.035-24.45v-.207c.817-3.664 1.426-7.539 1.832-11.203.817-6.93 1.832-13.449 4.684-19.562.203-.203.203-.614.203-.817h.61c.41 0 1.019 0 1.628-.203 4.278-.816 6.926-4.687 8.961-8.148l22.395-37.903c.203 6.93 1.222 13.856 2.238 20.582.41 3.055 1.02 6.114 1.832 9.372.207.41.41.816.816 1.02.407.202.813.202 1.223 0 3.461-1.02 6.309-4.075 8.14-7.946 1.426-3.262 2.04-6.727 2.65-9.985v-.406c2.237-12.637 5.292-25.473 8.956-37.902-.406 11.004-1.629 21.191-3.46 30.77l-.407 2.034c-1.426 7.54-3.055 15.286-.61 22.825.813 2.445 2.036 4.277 3.462 5.297.812.609 2.035 1.02 3.257 1.02 1.426 0 2.848-.614 3.664-1.837.61-.812.813-1.629 1.016-2.242l1.02-3.461c9.976-3.059 15.066-10.8 18.527-17.32 2.035-3.668 4.07-7.54 5.496-11.41.203 0 .203 0 .41-.204 4.274-3.261 8.14-7.746 10.992-12.43 2.442 7.54 5.7 17.321 8.145 25.673-3.664.41-5.496 4.484-5.906 8.152-2.036 18.95 4.277 37.695 9.976 54.402.817 2.242 1.63 4.688 3.258 6.723 3.461 4.078 8.754 5.094 14.457 5.094h3.258l7.328-.407c-.406 4.075-.406 7.946-.203 11.817 0 5.094.203 10.394-.817 15.285-1.015 5.703-3.05 11.41-5.293 16.91-2.44 6.317-4.886 12.633-7.734 18.746l-.613 1.426a56.152 56.152 0 0 0-3.05 7.336c-1.63 5.094-5.704 30.36 3.866 33.621 10.383 3.668 21.582 5.094 31.559 5.094 15.27 0 28.297-3.465 33.59-9.172 3.465-3.664 4.074-9.168 4.277-13.856.203-8.351-.406-16.91-1.02-25.058-.406-5.91-.812-11.82-1.015-17.73v-4.278c-.203-8.558-.203-17.32-3.664-25.266-1.223-2.648-2.649-5.093-4.074-7.539-2.442-4.28-4.887-8.355-5.496-12.836 3.664-1.632 6.109-4.078 6.921-6.93 1.02-3.257 0-6.519-1.02-9.37-2.44-7.742-4.476-15.895-6.105-23.84 4.07 2.035 8.348 3.258 12.825 4.48 15.476 4.078 31.355 7.54 47.234 10.188 0 1.02-.203 2.242-.203 3.262-.203 4.277.203 10.187 4.683 12.835 1.223.817 2.649 1.02 4.075 1.223-7.942 19.152-12.828 39.531-17.512 59.293-.61 2.856-1.426 5.91-1.832 8.969-1.223 7.945-.406 16.297 2.238 24.043.41 1.426 1.02 2.851 2.04 4.074 2.034 2.852 5.495 4.074 8.956 5.094 12.418 3.668 25.246 6.722 38.48 6.722 4.274 0 8.552-.406 12.825-1.02 5.5-1.015 8.96-3.054 9.977-6.519.613-1.629.406-3.257.406-4.683l-.203-6.93c-.203-2.851-.203-5.5-.813-8.355-.61-3.055-1.832-5.907-3.055-8.555-.406-.816-.812-1.836-1.222-2.652-5.903-14.262-6.922-30.157-6.516-45.438 6.719 3.871 13.848 7.133 21.38 9.375 3.054.813 6.515 1.832 10.179 1.832 2.445 0 5.09-.406 7.535-1.629 7.328-3.465 10.18-11.816 12.418-19.355l8.348-28.121c.812-3.055 1.832-5.91 3.46-8.352 1.426-2.039 3.665-3.668 5.907-5.504 1.832-1.426 3.664-2.851 5.09-4.48 8.754-9.578 5.699-24.657 3.254-32.809-5.293-16.707-14.454-31.172-23.618-45.027-8.14-12.633-16.691-25.88-22.191-40.957 2.242-13.653 2.648-27.711 2.851-42.18.61-2.851 1.832-5.094 3.055-7.332 1.223-2.242 2.442-4.484 2.645-6.93.207-2.445-.407-4.687-1.016-6.52l-3.664-12.226c-.41-1.222-.613-2.445-.613-3.465 0-.812.41-1.628.613-2.445.203-.61.406-1.016.61-1.629 1.222-4.687-.204-9.984-4.481-15.89-2.442-3.465-5.293-6.524-8.348-9.375.203-.817.203-1.426.41-2.243 5.7-2.445 10.79-6.722 15.473-12.836h.203c12.215-5.093 21.38-15.484 24.024-27.101.816-3.258 1.02-6.723 1.02-11.203 0-2.446-.204-4.89-.407-7.336.203-.203.406-.203.406-.41 6.516-12.223 8.55-26.692 5.903-40.344.41-.203.613-.406.613-.813 5.09-13.246.203-26.898-3.258-33.824-3.664-7.539-8.55-14.265-13.438-20.988-1.832-2.445-3.664-4.89-5.293-7.336-9.773-14.059-15.882-27.098-18.734-40.14-1.422-6.52-2.035-13.446-2.644-20.173-.407-4.687-.817-9.78-1.63-14.464-5.292-33.621-25.245-61.536-52.324-73.149-7.125-3.058-20.562-7.133-32.168-.816-.406-.203-.613-.614-1.019-.817-1.832-1.02-4.07-.812-5.7-.406-13.03 2.445-21.988 13.856-27.69 22.414-16.286 24.653-23.618 51.348-20.766 74.778.406 3.261 1.02 6.52 1.629 9.578 1.425 7.132 2.648 13.855 1.832 20.578-.407 3.058-2.852 7.539-5.293 8.762-4.684-1.426-10.18-1.426-16.696 0-9.976 2.242-18.933 6.519-27.89 11.003-7.535 3.668-15.27 7.336-21.582 13.04-5.293 4.687-9.367 10.394-13.235 16.3-1.425-5.297-2.441-10.797-3.46-16.094-1.223-7.335-2.649-14.671-5.09-22.007-2.036-5.91-4.278-10.188-7.329-13.45-5.296-5.906-13.03-8.761-19.75-11.207-5.906-2.238-11.808-4.48-18.12-5.093-5.903-.61-11.403.41-15.676 2.855-.407-.207-1.02 0-1.426.203-.817 0-1.426-.203-2.238-.41-1.833-.406-3.872-.61-5.907-.406-4.07.406-7.328 2.445-9.773 5.094-4.274-3.871-10.18-5.094-14.86-5.91-1.02-.204-2.039-.204-3.054-.407-4.074-.406-7.942-1.02-11.606-2.445-.613-.203-1.222-.61-1.832-.813-1.426-.613-2.851-1.43-4.48-1.836-2.852-.609-5.903-.203-8.551.204-4.684-11.207-8.957-22.618-11.809-34.23 0-.204.204-.61.204-.817.203-.407.203-.813.406-1.016.203-.207.613-.41 1.02-.613l.406-.203c3.257-1.426 5.906-4.485 7.332-8.356 1.421-3.668 1.628-7.742 1.628-10.594 0-3.87-.207-9.578-2.851-14.468-2.242-4.278-5.906-7.336-9.977-8.559 1.63-7.539-1.832-15.281-5.496-21.8-1.629-3.055-3.668-6.317-6.718-8.356-1.223-.813-2.649-1.426-4.075-2.035-1.218-.614-2.441-1.02-3.46-1.63-1.63-1.019-2.848-2.652-4.274-4.28-.41-.61-1.02-1.223-1.426-1.63-4.887-5.296-11.2-8.964-18.12-10.39-7.126-1.43-14.661 0-20.563 3.461-.407.207-1.02.613-1.426.816-1.832 1.223-3.664 2.243-5.496 2.243-1.223 0-2.446-.41-3.871-.817l-1.832-.61c-4.477-1.222-9.364-.41-13.438 2.036-3.254 2.039-5.902 4.89-7.328 8.559-4.887-1.63-10.18-1.223-14.453 1.02-4.684 2.444-7.942 7.538-8.145 12.429 0 1.426 0 2.851.203 4.277.204 1.836.407 3.668 0 5.504-.613 2.445-2.648 4.48-4.886 6.52l-.817 1.222c-4.68 4.48-7.937 9.574-9.566 14.668-2.035 6.113-1.426 12.633 1.219 17.524.816 1.425 1.629 2.648 2.445 3.87 1.832 2.653 3.664 5.301 3.46 8.153 0 .61-.202 1.02-.202 1.629-.203.816-.203 1.633-.406 2.445 0 3.059 1.628 6.114 4.886 8.965 4.68 4.078 10.383 6.93 16.488 8.356h.41c.813 0 1.423-.407 1.423-1.223 5.5 5.91 10.386 12.43 14.66 19.355.203 1.02.406 2.243.61 3.465.41 2.446.612 5.094 1.835 7.54.813 1.628 1.832 2.85 2.848 4.073 1.222 1.43 2.242 2.649 3.664 4.079 1.425 1.629 2.851 3.257 4.48 5.093-.812 1.426-1.426 3.055-2.238 4.48-16.29 3.263-32.984 7.743-45.809 18.747-13.03 11.004-20.363 27.305-26.672 41.566l-12.421 27.711c-.204.41-.407 1.02-.407 1.836 0 .813.407 1.223.817 1.63-11.2 10.8-18.121 26.894-18.528 44.827-.207 6.114.407 11.207 1.832 15.688 1.832 6.113 5.7 11.82 10.586 15.894-9.773 11.004-16.086 24.45-21.582 37.492-1.629 3.872-3.257 8.149-4.273 12.43a52.007 52.007 0 0 0-1.223 8.149c-.61 4.484 0 8.761 1.223 12.43zm114.625-234.933c-8.758 16.3-19.344 31.582-31.762 45.234-3.664 4.074-7.535 7.945-11.2 11.816-7.94 8.153-16.288 16.508-22.8 25.88-2.242 3.261-4.48 6.722-6.312 10.39a67.638 67.638 0 0 1-7.942-7.336l-.203-.203s0-.203.203-.203l12.422-27.711c6.309-14.059 13.438-29.75 26.059-40.344 11.199-9.984 26.468-14.469 41.535-17.523zm-5.906-30.766c2.851 1.426 5.906 2.441 9.164 2.441 1.629 0 3.05-.203 4.68-.406.613-.203 1.425-.203 2.038-.203 6.309-.816 12.825.816 18.118 4.484 5.293 3.665 9.164 8.965 10.996 15.079.203.812 1.015 1.222 1.832 1.015.812-.203 1.222-1.015 1.015-1.832 0-.406-.203-.816-.406-1.02 5.09 2.446 8.55 6.114 9.367 10.188 1.016 5.707-2.648 11.41-6.718 16.707-31.762 41.57-60.47 86.395-85.106 132.649l-.203.203c-2.035 3.87-4.07 7.742-7.125 11.004-6.719 7.539-17.711 10.8-27.688 8.148-9.773-2.441-17.917-10.594-20.972-20.375-1.223-4.074-1.832-8.965-1.63-14.668.407-17.117 6.923-32.601 17.716-42.789 2.238 2.238 4.476 4.277 6.922 6.11-1.426 2.855-2.852 5.91-4.075 8.968-.203.813 0 1.63.817 2.035.203 0 .406.203.61.203.612 0 1.222-.406 1.425-1.02 3.055-7.538 6.922-14.87 11.605-21.394 6.516-9.37 14.66-17.52 22.598-25.671 3.871-3.872 7.738-7.743 11.402-11.817 14.864-16.3 27.282-34.844 36.852-54.812.203-.61.203-1.223-.203-1.63-1.832-2.241-3.664-4.077-5.293-5.91-1.223-1.425-2.445-2.648-3.461-3.87-.816-1.02-1.832-2.243-2.445-3.465-1.016-2.036-1.223-4.278-1.63-6.723-.202-.613-.202-1.02-.202-1.629zm-.203 204.367a144.084 144.084 0 0 0 21.378-9.781c1.832 6.316 3.461 12.633 4.68 19.156l.207.813c1.016 5.504 2.238 11.004 5.902 15.488a11.68 11.68 0 0 0 2.239 2.238l-6.719 2.856c-9.16-11.41-18.32-21.602-27.688-30.77zm-8.348-7.945c-7.125-6.316-15.473-12.836-25.246-13.246.406-.813.816-1.63 1.222-2.238l.204-.207c8.957-16.707 18.324-33.211 28.3-49.31 1.426 7.946 5.09 15.282 8.957 22.618.61 1.223 1.223 2.242 1.832 3.465 5.7 11.004 10.18 22.617 13.844 34.434-7.328 4.28-15.066 7.742-23.004 10.394-2.242-2.242-4.074-4.078-6.11-5.91zm96.3-237.176c-.609.613-.812 1.426-1.015 2.04-.613.405-.816 1.019-.613 1.628v.203c-1.016 3.262-2.239 6.52-3.055 9.781-.812 3.465-1.422 6.926-2.035 10.391-1.223 6.93-2.442 13.45-5.293 19.563-4.07 8.148-11.2 14.668-19.547 17.93-.203 0-.406.202-.406.202-3.258-3.257-7.328-4.89-9.774-5.703-2.238-4.687-5.902-8.761-10.18-11.82-5.902-3.871-13.23-5.703-20.156-4.89-.812 0-1.421.206-2.238.206-1.426.204-2.851.407-4.07.407-3.461 0-6.719-1.426-10.59-3.668h-.203c-4.477-7.133-9.567-13.856-15.27-19.97-.61-.608-1.015-1.019-1.629-1.628-2.238-2.445-4.683-4.89-6.515-7.539-2.442-3.668-3.461-7.54-3.051-10.8.203-.813-.41-1.63-1.223-1.63-.816 0-1.832.61-1.832 1.426-.816 5.094 1.426 9.781 3.461 12.836 2.035 3.059 4.477 5.504 6.719 7.95l.813.812c-5.293-1.223-10.383-3.871-14.454-7.336-2.648-2.238-4.074-4.48-3.87-6.52 0-.61.206-1.222.206-1.832.203-.613.203-1.426.203-2.039.204-3.87-1.832-7.133-4.074-10.187-.812-1.223-1.629-2.446-2.238-3.668-2.238-4.278-2.649-9.782-1.02-15.282 1.426-4.687 4.48-9.168 8.758-13.449l1.016-.812c2.445-2.242 4.887-4.485 5.7-7.95.612-2.242.41-4.48.206-6.519-.207-1.223-.207-2.445-.207-3.668.207-4.074 2.852-7.945 6.516-9.984 3.46-1.832 7.941-2.243 12.011-.813 0 .61.41 1.219 1.02 1.426.816.203 1.629-.207 1.832-1.02 1.02-3.668 3.46-6.93 6.719-8.964 3.258-2.04 7.332-2.649 11.199-1.633.61.207 1.016.41 1.629.41 2.035.61 3.46 1.02 5.293 1.02 2.644-.208 4.887-1.43 6.922-2.856.406-.203.812-.61 1.425-.813 5.497-3.261 12.215-4.28 18.528-3.058 6.312 1.222 12.012 4.484 16.492 9.375.406.61 1.016 1.015 1.422 1.629 1.426 1.832 2.851 3.465 4.887 4.89 1.222.813 2.648 1.426 4.074 2.036 1.219.613 2.441 1.02 3.46 1.632 2.442 1.63 4.071 4.278 5.7 7.13 3.46 6.113 6.719 13.245 5.293 19.968-1.426 0-3.258.41-4.68 1.633-1.02 1.015-1.629 2.238-2.242 3.46-1.426 3.262-2.441 6.524-3.46 9.782-.204.816.202 1.629 1.019 1.836.812.203 1.629-.207 1.832-1.02 1.015-3.261 2.035-6.316 3.257-9.375.407-.812.813-1.832 1.426-2.238 1.016-.816 2.442-.816 3.258-.816 3.867.406 7.531 3.054 9.77 7.336 1.629 3.257 2.445 7.539 2.445 13.039 0 2.648-.203 6.316-1.426 9.578-1.223 3.055-3.258 5.5-5.906 6.722l-.203.204c-.61 0-1.219.203-2.035 1.02zm-.202 9.375c4.277 15.89 10.996 31.172 17.507 46.047 2.852 6.316 5.703 12.633 8.348 19.152.203.41.41 1.02.41 1.43 0 .203-.207.813-.41 1.223-3.461 8.351-10.992 15.89-21.172 21.187-7.332 3.871-14.66 5.707-21.379 5.504-7.328-.203-16.898-5.504-21.785-10.39 1.02-1.43 2.242-3.06 3.258-4.485 4.48-5.91 8.55-12.023 7.328-19.152-.406-2.04-1.219-3.871-2.238-5.301 8.957-3.664 16.695-10.594 20.765-19.355 3.055-6.317 4.278-13.45 5.703-20.172.61-3.465 1.223-6.926 2.036-10.188.609-2.039 1.02-3.87 1.628-5.5zm144.757 104.73c.407 1.63 1.016 3.055 1.426 4.481 1.016 3.059 2.035 6.113 2.848 9.172.816 3.668.816 6.926.207 9.984-2.852-3.464-8.348-4.484-10.59-4.89-6.922-1.223-13.844-2.649-21.172-2.04-8.348.614-18.937 7.95-25.45 12.227-1.222.817-2.648 1.832-3.667 2.446-1.219-3.668-4.274-12.633-4.477-13.653-1.222-8.965 5.496-11.816 12.825-14.672 4.277-1.832 8.55-3.46 10.996-6.52.609-.609.406-1.628-.204-2.241-.613-.61-1.628-.407-2.242.207-2.035 2.441-5.902 4.074-9.77 5.703-5.292 2.242-11.605 4.687-13.847 10.39-7.531-14.261-7.125-32.394.817-46.25.406-.816.203-1.632-.61-2.039-.816-.406-1.629-.203-2.039.61-9.16 15.691-8.957 36.472.613 51.96l.204.204c0 1.02 0 2.242.203 3.258.203 1.632 4.683 14.468 5.09 15.691.203.406.609.816 1.019 1.02-1.629 8.148.61 17.113 2.848 25.875 1.425 5.3 2.648 10.187 3.054 14.875l.407 4.28c.816 9.372 1.628 16.91 1.628 25.673-8.347-.817-16.285 3.87-21.375 7.945-9.164 7.336-16.492 17.726-21.988 30.566-1.222 2.649-2.242 5.5-3.054 8.352-.204 0-.407-.203-.614 0-7.328 1.02-13.437 5.3-19.34 9.375-2.445 1.832-5.09 3.465-7.738 5.094-6.922 4.074-14.656 6.113-22.598 6.316-2.648 0-5.293 0-7.94-.203-2.645-.203-5.497-.203-8.145-.203-4.07 0-8.141.812-12.012 1.426-1.832.203-3.461.609-4.887.203-1.629-.407-3.05-1.836-3.867-3.871-.61-1.633-.813-3.668-.61-6.114v-.203c1.22.203 2.239.203 3.258.203h.203c3.461 0 6.72-.406 9.977-.816 3.664-.406 7.328-.813 10.79-.61.815 0 1.628-.613 1.628-1.425 0-.817-.61-1.633-1.426-1.633-3.867 0-7.531.41-11.195.613-3.258.406-6.516.61-9.774.61-4.683 0-13.03-.813-17.714-6.52-3.055-3.871-4.274-8.965-5.09-14.058l-.203-.817c-4.07-19.969-10.586-39.324-19.75-57.457-.61-1.223-1.22-2.242-1.832-3.465-4.07-7.945-8.348-16.097-8.957-24.86v-.202c4.07-6.52 8.144-13.04 12.418-19.563.816 8.965 4.48 17.32 8.144 25.676 4.277 9.574 8.145 18.543 8.145 28.32 0 .817.609 1.633 1.425 1.633.813 0 1.426-.613 1.63-1.43.202-10.39-4.075-20.171-8.348-29.746-4.075-8.964-8.145-18.34-8.145-27.914 0-.207 0-.41-.203-.613 8.55-13.04 17.508-25.879 26.672-38.512 16.285 20.582 26.672 42.996 30.133 65 .203.817.812 1.223 1.422 1.223h.207c.812-.203 1.421-.816 1.218-1.832-3.46-22.617-14.25-45.848-30.945-67.04l-.203-.202 5.496-7.336c5.293 5.3 15.27 10.8 23.414 11.004h1.02c6.921 0 14.25-1.832 21.785-5.703 10.992-5.504 18.933-13.653 22.597-22.825.204-.609.61-1.425.61-2.238 0-1.02-.406-1.836-.61-2.652a417.489 417.489 0 0 0-8.347-19.153c-1.832-4.277-3.867-8.558-5.7-13.039 2.239-.406 4.477-.613 6.72-.203 1.218.203 2.644.813 3.866 1.63.61.202 1.426.608 2.036.815 4.07 1.63 8.144 2.239 12.214 2.649 1.02.203 2.04.203 3.055.406 4.277.613 9.57 1.836 13.235 5.094-1.426 1.836-2.442 3.668-3.258 5.094-.813 1.629-1.426 3.261-2.239 4.89-1.832 4.278-3.46 8.153-6.515 11.207a1.596 1.596 0 0 0 0 2.243c.203.203.61.406 1.015.406.41 0 .817-.203 1.02-.406 3.258-3.465 5.09-7.95 7.125-12.024.613-1.629 1.426-3.258 2.242-4.687 1.832-3.871 6.106-10.391 12.418-10.797 1.629-.203 3.258.203 5.09.406-3.055 2.852-5.293 6.727-7.125 9.984l-11.2 19.36c-.406.812-.202 1.629.614 2.035.813.41 1.625.203 2.035-.61l11.195-19.359c2.04-3.668 4.278-7.539 7.739-10.187 4.07-3.258 9.976-4.688 16.492-4.075 5.902.61 11.809 2.852 17.508 4.891 6.515 2.445 13.844 5.094 18.527 10.39 2.649 2.852 4.684 6.93 6.516 12.43 2.238 6.93 3.664 14.262 5.09 21.598 1.628 6.316 2.851 13.246 4.886 19.766zm-131.93 174.008c3.462-1.015 6.923-2.648 10.18-4.48 2.645-1.629 5.293-3.465 7.938-5.094 5.703-3.87 10.996-7.539 17.308-8.558-2.851 8.964-4.48 17.523-5.906 24.859-1.832 10.188-3.258 20.781-4.48 31.176-.813 8.351-1.422 16.707-2.035 24.855h-1.016c-.817.41-1.629 1.426-2.649 3.668-9.57.203-17.304 7.95-21.378 15.078-2.645 4.891-4.477 10.188-6.309 15.282-.41 1.222-.816 2.445-1.223 3.668-.61-8.555-.406-17.317-.406-25.875l.406-36.883c0-6.317.203-12.836 1.426-19.153 1.426-6.925 4.07-12.632 7.942-16.707.203-.613.406-1.222.203-1.836zm31.15 67.243c-1.63-1.02-3.462-2.243-5.497-3.262.61-8.559 1.223-17.32 2.035-25.875a391.265 391.265 0 0 1 4.277-30.973c1.832-10.187 4.68-23.433 9.77-35.656 5.297-12.43 12.422-22.21 21.176-29.344 4.683-3.87 12.012-8.148 19.547-7.336 0 2.243 0 4.485-.207 6.93-.407 12.227 1.425 24.656 3.46 36.473.614 3.464 1.02 6.93 1.63 10.39 2.039 14.266 3.46 30.77-2.036 45.848-2.441 7.129-6.515 13.652-10.382 20.172-5.7 9.37-11.606 19.355-13.032 30.562-.203 1.223-.203 2.243-.203 3.465-9.976-7.336-20.156-14.672-30.539-21.394zm181.608-283.02c1.016.203 1.832.61 2.848 1.016 1.223.41 2.445 1.02 3.668 1.222v.207c1.016 6.317 2.848 9.371 6.309 14.262h.207c-.207.61-.614 1.223-.817 1.832-.61 1.43-1.222 2.856-2.035 4.078-2.851 6.114-5.906 12.223-7.328 18.95-2.242 10.593-.207 21.8 5.7 30.968 0 .207.202.207.202.207-1.02 3.055-1.832 6.11-2.035 9.371-.406 5.297.406 11.41 2.645 18.133.203.613.816 1.02 1.426 1.02h.406c.816-.203 1.222-1.223 1.02-1.832-2.036-6.52-2.852-12.024-2.442-16.914.61-7.54 4.07-14.465 7.531-21.395 3.867-7.945 8.55-17.316 12.215-27.3 3.664 3.87 9.164 6.316 15.066 6.925 1.02.203 2.243.203 3.258.203 4.278 0 8.957-.812 14.051-2.445 2.238-.813 4.883-1.832 7.328-3.461l17.102 108.602c.609 4.277 1.629 9.78 4.886 13.855 1.426 1.629 3.055 2.852 4.887 3.668-4.277 1.426-8.348 4.277-12.625 8.148-7.937 7.54-14.25 17.524-18.527 29.954-.813 2.242-1.63 4.687-2.239 7.132-.203.817-.609 1.63-.812 2.446h-.207c-13.438 4.687-28.297 4.89-41.938.816-.816-1.633-1.836-3.262-2.851-4.687 1.629.203 3.055.203 4.683.203 3.868 0 7.735-.407 11.602-1.836 2.852-1.016 5.5-2.649 8.145-4.074.613-.407 1.425-.813 2.039-1.223 3.664-2.035 7.53-3.871 11.398-5.297.816-.203 1.426-.61 2.035-.406 1.02.203 1.836 1.426 1.63 2.445-.204 1.223-1.016 2.445-2.442 3.258-1.426.816-3.258 1.223-4.887 1.836-.813.203-1.223 1.02-1.223 1.832.207.816 1.02 1.223 1.832 1.223 1.836-.407 3.871-1.02 5.703-2.036 2.239-1.43 3.665-3.464 3.868-5.707.203-2.851-1.832-5.5-4.48-5.91-1.22-.203-2.24.203-3.462.613-4.07 1.63-8.14 3.465-11.808 5.5-.813.407-1.422.817-2.239 1.223-2.441 1.426-4.886 2.852-7.53 3.871-5.704 2.04-11.606 1.633-17.716 1.223-.812-.813-1.425-1.63-2.238-2.445-6.922-6.926-16.492-10.594-25.043-9.575-.203-1.43-.61-2.648-1.02-3.87 4.278-.41 8.348-1.223 12.626-1.837 3.257-.61 6.718-1.222 10.18-1.629 8.956-1.02 16.081-.41 21.784 2.243.813.406 1.63 0 2.036-.817.406-.816 0-1.629-.813-2.039-6.312-2.851-13.848-3.668-23.414-2.445-3.461.41-6.922 1.02-10.387 1.633-3.664.609-7.328 1.222-10.789 1.628 6.11-8.761 14.047-16.503 23.008-22.007 4.477-2.852 9.363-5.297 14.25-7.743 7.332-3.667 15.066-7.539 21.582-12.835 6.313-5.297 11.402-12.024 14.66-19.356.813-1.633 1.016-4.078.203-5.91-.613-1.02-1.425-1.426-2.445-1.629-1.219-.207-2.238.406-3.258 1.016-2.238 1.43-4.07 3.261-5.902 5.3-.61.61-.406 1.63.203 2.239.61.613 1.629.41 2.238-.203 1.426-1.832 3.258-3.461 5.293-4.891.207-.203.817-.61 1.02-.61.406.61.406 2.04-.203 3.055-3.055 6.93-7.942 13.246-13.844 18.34-6.313 5.297-13.64 8.965-20.973 12.43-4.886 2.445-9.77 4.89-14.453 7.742-9.367 5.91-17.715 14.059-24.023 23.23-1.223-2.855-2.446-5.503-4.075-7.746-1.628-2.238-4.48-2.851-6.921-3.46-.407-.208-.813-.208-1.223-.208-4.274-1.015-8.754-1.628-13.234-2.035v-5.093h.207c.609 0 1.218-.41 1.421-.817 2.243-5.094 8.145-7.133 15.067-8.965 9.773-2.648 19.547-6.113 28.91-10.187 6.313-2.649 13.234-6.114 18.324-12.024.614-.61.41-1.629-.203-2.238-.61-.613-1.629-.41-2.238.203-4.48 5.297-11.2 8.555-17.102 11.207-9.164 4.074-18.73 7.332-28.504 9.985-5.293 1.425-12.422 3.46-15.882 8.554-.204-12.222-.813-24.449-1.63-36.676.614 0 1.223-.609 1.426-1.222 2.446-13.04 4.278-26.488 5.5-39.938 0-.812-.613-1.629-1.425-1.629-.817 0-1.63.614-1.63 1.426-1.019 11.207-2.648 22.617-4.48 33.621-1.222-13.246-2.851-26.691-4.886-39.734-.204-.813-.813-1.426-1.832-1.223-.813.207-1.426.817-1.223 1.836a638.88 638.88 0 0 1 7.332 92.504v.207c-8.754-.207-17.512 1.426-25.656 4.48.41-16.91-1.22-34.027-2.848-50.734-1.629-16.707-3.258-34.027-2.852-50.941l.61-.61c1.836-4.28 2.242-9.375 1.02-15.28-.61-3.263-1.833-6.524-2.852-9.579-.406-1.426-.813-2.648-1.422-4.074 4.273-6.317 8.55-12.836 14.25-17.93 6.11-5.504 13.64-9.172 20.969-12.637 8.757-4.277 17.714-8.554 27.082-10.593 6.308-.407 11.398-.407 15.675.816zm-9.57 209.258c-.812-5.297-1.426-10.797-2.441-15.89 7.531-.817 16.082 2.238 22.191 8.554.61.613 1.223 1.426 2.035 2.039.203.406.407.61.817.816 4.07 5.094 7.328 11.817 9.77 19.965 1.628 5.504 2.648 11.414 3.667 16.914.61 3.055 1.219 6.317 1.832 9.578 1.832 8.149 4.07 15.891 6.512 23.84v.203c2.242 6.926 4.684 13.856 7.129 20.579 2.644 7.539 5.496 15.28 7.937 22.82 1.02 3.058 1.832 6.113 1.832 8.965.207 6.93-4.273 13.246-9.363 19.36-1.426-4.688-1.832-9.782-2.238-15.079-.207-2.04-.207-3.871-.41-5.91-1.016-15.485-2.035-31.582-8.348-46.051-.406-.812-1.219-1.016-2.035-.812-.813.406-1.223 1.222-.813 2.035 6.309 13.855 7.125 29.75 8.145 45.03.203 2.04.203 3.872.406 5.911.406 6.317 1.016 12.43 3.055 18.133.203.41.406 1.02.61 1.633 1.222 3.258 2.648 6.52 1.222 9.168-.817 1.425-2.242 2.445-4.48 3.668-8.348 3.668-18.731 3.668-28.505-.614-1.222-.406-2.238-1.015-3.46-1.629-3.665-1.832-7.739-3.464-11.81-3.668l-4.272-50.328c-.614-6.316-1.02-13.039-.41-19.355.613-6.317 2.445-12.836 4.074-18.95 2.644-9.78 5.496-19.968 3.867-30.359-.61-3.465-1.63-6.726-2.852-9.984v-.41c-1.832-5.297-2.644-12.43-3.664-20.172zm40.719 41.77c-.61-3.055-1.219-6.317-1.832-9.372-1.016-5.707-2.238-11.613-3.664-17.32-1.02-3.871-2.239-7.336-3.867-10.39 5.902 1.628 11.808 2.242 17.914 2.242 7.129 0 14.457-1.02 21.379-3.262-1.02 2.851-2.239 5.91-3.461 8.558-2.036 4.075-4.887 7.946-7.532 11.614-1.836 2.445-3.668 5.094-5.093 7.539-4.477 7.133-7.532 16.3-9.16 27.101-2.036-5.504-3.461-11.207-4.684-16.71zm79.605-90.47c-3.46.41-12.215.817-16.898-4.48-2.848-3.262-3.664-8.152-4.274-12.43l-17.304-109.417v-.204c-2.852-9.375-3.871-16.914-4.278-23.027-.406-4.887-.406-10.39 1.02-15.078 1.219-3.871 3.46-7.742 7.125-12.02 3.664-4.28 7.738-8.355 12.012-11.82 1.629-1.223 3.258-2.445 4.683-3.664 5.496-4.078 11.403-8.355 14.864-14.469.406-.816.812-1.629 1.015-2.445.203-1.223-.203-2.242-.61-3.262v-.203c-1.019-2.851-1.425-5.906-1.425-8.965 0-.61.203-1.222.406-1.425.203.203.203.406.203.406 2.446 3.465 4.887 6.726 7.332 10.394 1.22 1.832 2.442 3.668 2.036 5.5-.204 1.426-1.223 2.852-2.442 4.075-.816 1.02-1.836 2.039-2.445 3.261-.406.813 0 1.63.61 2.035.816.41 1.628.207 2.038-.609.407-1.02 1.22-1.832 2.035-2.852 1.426-1.632 2.852-3.261 3.258-5.707.407-2.851-1.02-5.5-2.648-7.742-1.426-2.039-2.848-4.277-4.274-6.316.204-.203.204-.406.204-.613 0-.407.609-.813 1.222-.813.813 0 1.625.406 2.645 1.02a42.968 42.968 0 0 1 10.18 8.964c1.019 1.223 1.831 2.649 1.831 3.872 0 1.02-.609 2.242-1.222 3.054-1.625 2.649-3.664 5.094-5.903 7.336a1.604 1.604 0 0 0 0 2.242c.204.203.61.407 1.02.407.406 0 .812-.204 1.016-.407 2.445-2.445 4.48-5.093 6.312-7.945.61-.816 1.02-1.836 1.426-2.855 1.629 2.855 1.223 6.726 0 9.375-1.629 3.668-4.684 6.722-7.535 9.78-.61.61-.61 1.63 0 2.24.203.206.613.41 1.02.41.405 0 .812-.204 1.019-.41 1.832-1.833 3.867-3.872 5.699-6.317-.406 1.222-1.02 2.445-1.629 3.87-3.664 6.727-9.57 11.821-13.844 15.079-2.242 1.836-4.683 3.668-6.922 5.3-3.257 2.446-6.718 4.891-9.773 7.743-2.852 2.445-5.703 5.297-6.719 8.965v.61c.203 2.855 3.258 11.616 9.16 28.323 2.446 6.926 5.09 14.672 7.942 22.618 0 .203.203.609.203.816.61 1.832 1.223 3.46 1.832 5.297 3.258 9.781 6.719 19.558 10.586 28.933 1.02 2.243 1.836 4.278 2.851 6.52 3.055 6.723 6.11 13.855 7.942 20.988.203.61.812 1.223 1.426 1.223h.406c.812-.203 1.223-1.02 1.02-1.836-1.836-7.54-5.09-14.668-8.145-21.598-1.02-2.242-1.832-4.277-2.852-6.316-3.664-8.559-6.922-17.524-9.976-26.488l4.887 5.5c10.18 11.41 21.988 24.25 25.246 35.25 3.257 11.003 1.02 23.636-5.903 33.214-5.906 9.168-17.105 15.485-28.71 17.114zm-24.836-252.452c1.016 2.851 2.036 5.703 3.461 8.554-2.851-1.629-6.109-2.445-9.773-2.445-9.57 0-17.508 6.523-18.73 14.875-5.09-1.02-10.587 0-15.067 2.648-2.852-6.113-9.57-10.39-17.305-10.39-2.035 0-4.074.406-5.906.816.406-2.242 1.02-4.484 1.832-6.52.203 0 .613 0 .817-.206 5.496-3.668 13.027-4.278 18.933-1.63.813.407 1.629 0 2.035-.816.407-.812 0-1.629-.812-2.035-6.11-2.648-13.438-2.242-19.344.61 3.664-8.56 9.367-16.504 16.695-22.208 1.223-1.02 2.446-1.835 3.664-2.652 3.668-2.648 7.332-5.5 9.977-9.168 0 0 .203 0 .203.203 10.793 2.856 20.156 10.801 25.45 21.395 1.019 1.836 1.835 3.87 2.445 5.91-.61-.203-1.223-.203-1.832-.203-5.496-.613-10.18.203-14.051 2.242-.813.406-1.016 1.426-.61 2.035.407.613 1.223 1.02 2.036.613 3.257-1.628 7.332-2.242 12.218-1.835 1.422-.204 2.645 0 3.664.207-.203 0 0 0 0 0zm-73.093 30.562c0-7.742 7.129-14.059 15.882-14.059 8.754 0 15.88 6.317 15.88 14.06 0 7.741-7.126 14.058-15.88 14.058-8.753 0-15.882-6.317-15.882-14.059zm82.457-7.133c0 7.742-7.125 14.059-15.88 14.059-8.753 0-15.882-6.317-15.882-14.059 0-7.742 7.129-14.058 15.883-14.058s15.879 6.113 15.879 14.058zm3.054 0c0-.61 0-1.222-.203-1.832 2.035 2.035 4.07 4.074 6.516 5.906-.817 1.02-1.02 2.243-1.02 3.262 0 3.465.41 6.723 1.63 9.985v.203c.202.613.405 1.425.405 1.836 0 .406-.203.812-.609 1.425-3.258 5.704-8.754 9.575-14.047 13.446l-4.886 3.668c-4.48 3.668-8.754 7.742-12.418 12.226-2.243 2.649-5.297 6.723-7.13 11.41h-.609c-4.07.817-8.55-1.02-12.215-2.851-5.09-2.445-10.18-5.094-15.066-7.945-1.426-.817-2.852-1.836-4.277-2.653-.203-.406-.61-.812-1.016-.812-.816-.614-1.426-1.223-2.242-1.836-5.09-5.297-6.516-13.242-7.328-21.801 1.426.406 3.054.61 4.48.61 10.383 0 18.73-7.743 18.73-17.114 0-1.426-.202-2.648-.41-3.871 4.075-2.445 9.165-3.465 13.848-2.445.406 9.168 8.754 16.3 18.73 16.3 10.79 0 19.137-7.742 19.137-17.117zm-29.726 100.656c-2.442 1.836-5.293 2.856-7.531 3.668-5.903 2.04-11.2 2.649-15.88 2.243-5.702-.614-10.59-3.055-13.847-6.723-.203-.207-.406-.207-.406-.41 1.02-2.852 2.035-5.906 2.851-8.762 3.867-13.855 4.477-26.691 2.239-38.305.613.407 1.02.61 1.629 1.02 4.886 2.852 9.976 5.703 15.269 8.148 3.461 1.63 7.332 3.262 11.402 3.262.61 0 1.223 0 1.832-.203-1.222 4.887-1.02 9.984-.812 14.668 0 6.113.812 13.043 3.254 21.394zm-53.953-18.335c-2.645-3.668-3.867-6.114-4.68-10.801 3.258.203 6.516-1.02 9.16-3.055-1.222 4.89-2.851 9.574-4.48 13.856zM573.87 78.53c-1.629 5.703-6.922 9.778-12.012 13.649-1.218 1.02-2.441 1.836-3.664 2.855-11.199 8.965-19.136 22.41-21.582 36.676v.203c-5.699 2.852-9.566 8.559-9.566 14.875 0 6.926 4.476 13.04 10.992 15.688.816 9.578 2.238 18.543 8.348 24.859.816.816 1.832 1.836 2.851 2.445 3.055 11.817 2.645 25.266-1.426 39.938-3.867 13.855-10.585 27.508-16.085 38.508-1.63 3.058-3.051 6.32-4.274 9.375-4.48-8.153-6.11-17.93-4.277-26.895 1.222-6.316 4.277-12.43 7.129-18.34.61-1.426 1.422-2.851 2.035-4.277 4.476-9.578 10.18-24.047 7.531-38.309-.203-.816-1.016-1.426-1.832-1.222-.812.203-1.426 1.02-1.223 1.836.817 3.87.817 7.945.41 11.816l-.203.203c-2.039 3.668-6.312 6.113-10.59 5.5-1.831-.203-3.46-.812-5.09-1.629h-.202c2.648-2.445 4.48-6.722 4.683-9.574.813-7.336-.61-14.469-1.832-21.602-.613-3.054-1.222-6.316-1.629-9.37-2.851-22.821 4.274-48.497 20.157-72.743 5.293-7.945 13.64-18.95 25.652-21.191 1.832-.407 2.851-.203 3.867.203 2.035 1.02 2.445 4.078 1.832 6.523zm83.477 298.91a136.932 136.932 0 0 0 1.222-22.41c.407-.613.813-1.02 1.22-1.633 7.534-10.39 9.976-24.043 6.312-35.859-3.461-11.617-15.473-24.86-25.856-36.473-3.664-4.078-7.129-7.949-9.773-11.207-2.852-8.152-5.496-15.894-7.942-23.027-4.476-13.039-8.55-24.246-8.957-27.3 1.02-2.856 3.258-5.302 5.7-7.337 1.425-1.222 3.054-2.445 4.48-3.668 0 8.762 2.035 18.133 5.902 27.305 3.668 8.352 8.758 16.504 15.68 25.266 2.441 2.851 4.887 5.703 7.328 8.558 3.258 3.871 6.719 7.742 9.774 11.817 6.109 8.148 9.976 15.687 11.402 23.023.203.817.812 1.223 1.426 1.223h.203c.812-.203 1.422-1.02 1.218-1.832-1.628-7.742-5.496-15.692-12.011-24.246-3.055-4.079-6.516-8.153-9.977-11.82-2.441-2.852-4.886-5.704-7.328-8.56-6.922-8.35-11.808-16.3-15.27-24.449-4.07-9.375-5.906-18.949-5.496-27.914v-.41c.813-.61 1.426-1.015 2.239-1.629 2.238-1.832 4.683-3.464 7.125-5.297 4.277-3.464 10.59-8.964 14.457-16.097 2.441-4.278 3.258-8.149 2.644-11.613 0-.204-.203-.41-.203-.614 1.02-4.277.203-8.351-2.238-11.207-.406-.406-.817-.61-1.223-.406-.406-1.629-1.222-3.055-2.238-4.074-3.055-3.871-6.719-7.133-10.996-9.781-1.219-.817-2.848-1.426-4.274-1.426-1.222 0-2.648.61-3.46 1.629-.41-.407-.614-1.02-1.02-1.426-.203-.406-.813-1.02-1.629-1.426 0-.203-.203-.203-.203-.406-6.922-5.3-11.809-10.8-15.066-16.711-1.223-2.445-2.442-5.094-3.258-7.742.203.203.613.406 1.02.406.405 0 .812-.203 1.222-.61.61-.613.406-1.628-.207-2.242-1.016-.812-2.238-1.425-3.461-1.832-1.016-2.648-2.035-5.504-3.258-8.152-5.496-11.004-15.473-19.559-26.668-22.82.61-1.02 1.016-2.242 1.422-3.465.613-2.035.613-4.684-.406-6.723 10.383-5.297 22.601-1.629 29.113 1.223 26.063 11.004 45.402 38.101 50.29 70.5.816 4.687 1.222 9.578 1.628 14.262.613 6.726 1.223 13.855 2.852 20.582 2.851 13.445 9.16 26.894 19.136 41.16 1.832 2.441 3.664 4.887 5.293 7.539 4.684 6.52 9.774 13.242 13.235 20.375 2.851 5.906 7.125 17.32 4.074 28.523-4.277-14.87-14.254-27.71-23.008-39.12-.406-.61-1.426-.813-2.238-.204-.614.406-.817 1.426-.203 2.242 8.754 11.41 18.73 24.246 22.8 38.918 3.461 12.633 2.446 26.692-3.054 38.715-2.035-13.45-7.532-27.71-15.88-42.383-.405-.816-1.425-1.02-2.034-.613-.817.41-1.02 1.43-.614 2.039 10.793 18.746 16.493 36.879 16.493 53.387 0 4.074-.204 7.539-1.016 10.39-2.242 9.168-8.758 17.727-17.918 22.82 2.852-4.687 4.887-9.167 5.902-13.449 2.243-10.187-.203-20.578-2.441-29.746-.203-.816-1.02-1.222-1.832-1.222-.817.203-1.223 1.015-1.223 1.832 2.035 8.965 4.48 18.949 2.239 28.527-1.016 4.277-3.051 8.965-6.31 13.856-4.48 6.722-9.366 11.613-14.862 14.464zm-3.664 3.262c-5.5-4.484-11.606-8.148-18.121-10.594 7.53-2.242 14.457-6.316 19.953-11.82 0 7.54-.614 15.078-1.832 22.414zm11.398 68.258v.203c-.203 15.488-.61 30.77-3.46 45.234-.61 3.875-1.63 7.747-2.442 11.414l-.817 4.075c-2.847 12.633-4.883 25.468-6.511 38.508-.207.207-.207.41-.41.816 0 .203 0 .613.203.816-1.22 9.575-2.036 19.356-2.645 28.934v.406c-17.508 2.242-35.223.406-51.918-4.89 0-21.598 0-43.809-1.832-65.61-.203-3.262-.61-6.316-.813-9.578-1.019-10.797-2.039-22.004-1.425-33.008.812-16.097 4.886-29.34 12.011-39.527.407-.613.407-1.633-.406-2.04a1.663 1.663 0 0 0-2.242.407c-3.258 4.484-5.7 9.578-7.734 15.078-.203-3.46-.41-7.129 0-10.594.406-5.91 2.238-12.023 5.09-17.117.406-.812.203-1.629-.614-2.035-.812-.41-1.629-.203-2.035.61-3.055 5.707-4.887 12.023-5.496 18.34-.406 4.277 0 8.761.203 13.038l.203 3.668c0 .407.203.817.61 1.02-1.422 5.91-2.442 12.226-2.645 18.95-.406 11.206.406 22.413 1.426 33.417.203 3.055.61 6.317.812 9.371 1.223 15.281 1.63 30.973 1.832 46.457-9.77.817-18.933.203-28.707-2.242 3.871-5.297 6.922-10.797 6.922-17.32 0-3.258-1.015-6.52-2.035-9.778-2.441-7.746-5.293-15.488-7.941-23.027-2.442-6.723-4.883-13.445-7.125-20.375 1.222-13.242 4.48-24.246 9.57-32.602 1.629-2.445 3.258-5.093 5.09-7.539 2.648-3.87 5.496-7.742 7.738-12.02 2.441-4.89 4.07-9.983 5.7-15.077.812-2.242 1.425-4.688 2.238-6.93 4.277-12.023 10.18-21.598 17.714-28.73 4.887-4.48 9.567-7.336 14.25-8.352.204 0 .614-.207.817-.41 2.035.41 4.07.613 5.902.613 1.63 0 3.055-.203 4.48-.203 1.223-.207 2.442-.41 3.665-.613 0 .613.406 1.222 1.02 1.426 11.808 4.074 22.19 12.023 29.519 22.007 3.664 5.094 5.09 9.778 4.074 13.446-.207.41-.207 1.02-.41 1.43-.406 1.015-.813 2.034-.813 3.257-.203 1.63.407 3.262.813 4.485l3.664 12.222c.613 1.836 1.02 3.668 1.02 5.504-.204 1.832-1.223 3.668-2.239 5.703-1.832 2.649-3.258 5.301-3.871 8.762zm-31.758 214.152c0-3.87.203-7.742.406-11.41 4.48 0 8.551-1.02 12.012-3.058 2.035-1.223 3.461-2.446 4.48-4.075 1.016-1.629 1.426-3.668 1.833-5.297 3.46-18.543 7.125-37.898 7.937-57.257 0-2.446 0-4.688-1.015-6.926-1.223-2.242-3.664-3.871-6.313-3.465.406-6.93 1.223-13.855 2.035-20.578 10.383 1.629 20.973 7.539 28.91 16.504 7.13 8.148 12.625 18.746 16.493 31.785.203.61.816 1.02 1.425 1.02h.407c.816-.204 1.222-1.02 1.02-1.836-3.868-13.446-9.571-24.653-17.102-33.008-8.348-9.578-19.547-15.895-30.743-17.524 1.63-12.633 3.664-25.062 6.512-37.492l.817-3.871c.609-3.055 1.425-6.316 2.035-9.371 5.496 13.242 13.03 25.266 20.562 36.676 8.758 13.652 17.918 27.914 23.211 44.215 2.445 7.539 5.09 21.19-2.644 29.75-1.426 1.628-3.055 2.851-4.887 4.074-2.242 1.832-4.684 3.668-6.516 6.113-2.035 2.852-3.054 6.316-3.87 9.371l-8.345 28.121c-2.039 7.13-4.683 14.465-10.793 17.524-4.886 2.238-10.789 1.015-15.472-.41a92.856 92.856 0 0 1-21.582-9.575c-.61.203-.813.203-.813 0zm-56.398 73.965c-.203-.207-.203-.41-.406-.816 12.418-3.668 25.855-1.832 38.683.203 8.957 1.426 17.508 3.262 24.024 8.355-1.223.813-3.055 1.223-5.09 1.63-16.696 3.054-33.797-1.02-49.88-5.5-3.054-.817-5.702-1.634-7.331-3.872zm-4.07-20.988.203-.203c.406-1.02 1.832-1.426 3.257-1.836 21.786-6.723 47.438-1.63 65.149 12.836.207 1.633.207 3.261.41 4.89l.203 6.93c0 1.223 0 2.648-.203 3.668 0 .203-.203.406-.41.61-7.125-5.704-16.285-7.743-25.856-9.169-13.234-2.242-27.28-3.87-40.312 0-1.832-5.91-2.645-11.816-2.442-17.726zm2.238-13.45c4.683-19.968 9.57-40.546 17.715-59.699 4.476.407 8.754 1.223 13.23 2.446 2.445.61 4.887 1.426 7.332 2.238 3.867 1.223 7.942 2.445 12.012 3.262 1.832.406 3.664.613 5.496.613-.813 19.559-1.832 41.77 6.312 61.531.407.817.813 1.836 1.223 2.653 1.016 2.238 1.832 4.277 2.441 6.52-18.527-13.653-43.16-17.93-65.152-11.208-.61.203-1.422.406-2.035.817v-.614c0-2.851.816-5.707 1.426-8.558zm8.957-73.761c.613-15.281 2.445-31.785 5.906-51.55.203-1.63.61-3.259 1.426-4.684.61-.817 1.629-1.426 2.644-1.223v2.242c-.609 0-1.425.203-1.629 1.016-.203.816.204 1.633 1.02 2.039 13.031 4.484 26.875 6.93 40.719 6.93 6.922 0 13.843-.614 20.562-1.837.817-.203 1.426-1.019 1.223-1.832-.203-.816-1.02-1.43-1.832-1.222-.817.203-1.426.203-2.238.406 0-1.426.203-2.851.203-4.074h.61c1.222-.41 2.648.61 3.257 1.832.816 1.426.816 3.465.61 5.297-.813 19.156-4.274 38.308-7.735 56.851-.203 1.63-.613 3.055-1.426 4.278-.61 1.02-1.832 2.039-3.46 2.851-6.11 3.262-13.438 2.856-18.325 1.836-3.867-.816-7.941-2.039-11.606-3.262-2.44-.812-4.886-1.628-7.328-2.242-4.886-1.222-9.976-2.238-14.863-2.648h-.203c-1.629-.203-3.258-.203-4.48-1.02-2.442-1.426-3.461-4.683-3.055-9.984zm-63.723-22.004c-.41-2.445-.816-4.688-1.223-7.133-.406-2.445-.816-5.094-.609-7.539 0-.61.203-1.223.203-1.832.203-2.242.61-4.687-.41-6.93-1.016-2.035-3.05-3.46-5.496-3.87h-.813v-.204l-.816-9.168c3.461.203 6.922 1.832 10.383 3.465 1.223.61 2.445 1.016 3.668 1.629 5.496 2.242 11.195 3.465 16.691 3.465 5.09 0 9.977-1.02 14.254-3.059 1.832-.812 4.48-2.242 5.903-4.89 2.039-3.871.41-7.946-1.016-11.817 0-.203-.203-.406-.203-.406.203 0 .203-.207.203-.207.812-.813 1.426-1.629 2.035-2.649 7.738 2.04 15.066 3.06 22.598 3.06 2.648 0 5.297-.204 7.941-.411v9.578c-2.035 0-3.867 1.02-5.09 2.648-1.426 1.836-1.832 4.075-2.035 5.91-3.055 17.32-4.887 31.989-5.703 45.641-15.676-2.445-31.352-5.91-46.621-9.984-4.684-1.223-9.57-2.649-13.844-5.297zm-55.992 129.996c4.887 3.262 10.996 5.504 18.734 6.727 4.07.609 8.14 1.02 12.215 1.02 13.027 0 26.262-3.263 37.867-9.376 0 2.852.203 5.707 0 8.356-.203 4.277-.609 8.965-3.46 11.816-7.942 8.356-37.258 11.613-61.895 3.059-4.274-1.426-4.477-12.84-3.461-21.602zm19.547-80.687 4.887-.204c9.16-.406 18.73-.816 27.89-3.261.613-.203 1.02-.203 1.63-.407.815 4.891 3.257 9.168 5.702 13.247 1.426 2.238 2.848 4.683 3.867 7.129 3.258 7.335 3.258 15.894 3.461 24.042v4.282c.203 5.91.61 12.02 1.02 17.93.406 4.28.61 8.558.812 13.042-15.066 8.352-32.574 11.41-49.472 8.758-7.535-1.219-13.438-3.258-18.121-6.52-.204-.202-.61-.202-.813-.202.406-2.036.813-3.872 1.016-5.094.816-2.446 1.832-4.688 2.851-6.926l.61-1.43c2.851-6.11 5.5-12.633 7.738-18.949 2.238-5.703 4.273-11.41 5.293-17.523.816-5.297.816-10.594.816-15.891.407-4.074.407-8.152.813-12.023zm-34.817-70.704c.817 0 1.63.407 2.446 1.02l.406.203c6.11 3.465 13.234 3.668 19.547 3.871 6.719.203 13.844.406 20.562-.816 1.016-.203 2.036-.203 3.055-.203 4.273-.203 9.363-.61 13.438-5.5.609-.817 1.832-1.223 2.847-1.223h.613c1.426.203 2.645 1.02 3.051 2.035.614 1.43.41 3.262.207 5.301 0 .61-.207 1.223-.207 2.035-.203 2.856.207 5.504.614 8.152 1.832 12.02 4.683 23.84 8.347 35.454.813 2.648 1.63 5.296 1.016 7.539-.813 2.851-3.867 5.093-9.363 6.52-8.957 2.241-18.325 2.648-27.282 3.058l-5.703.203h-.203c-.203 0-.406 0-.812.203l-8.551.406c-5.906.203-12.016 0-15.067-3.87-1.222-1.63-2.039-3.669-2.648-5.704-5.496-16.3-11.809-34.844-9.774-52.976.204-2.04 1.426-5.708 3.461-5.708zm-6.718-32.195c1.425-2.851 2.445-5.703 3.054-8.351 1.223-5.504 1.02-11.004.817-16.301l-1.63-42.383v-.203l-.41-1.223c-3.663-14.672-7.53-29.75-5.902-44.828.61-6.316 2.239-12.633 3.868-18.746.816-3.055 1.628-6.316 2.242-9.574 2.035-9.172 3.05-18.543 3.258-27.711h.812c12.828-4.89 27.078-5.707 40.313-2.242.406.203.812.203 1.425.406 2.035.406 4.07 1.02 5.09 2.242 5.7 7.54 7.531 20.988 9.16 34.027.407 3.465.817 6.723 1.426 9.985-.812-1.426-1.629-2.852-2.441-4.074-2.852-4.688-5.703-9.579-7.739-14.47-.406-.812-1.222-1.222-2.035-.812-.816.407-1.222 1.22-.816 2.036 2.242 5.296 5.09 10.187 7.941 14.875 4.48 7.742 8.957 15.078 10.18 23.433 1.629 9.574-1.02 19.152-3.664 28.934-1.832 6.316-3.461 12.836-4.074 19.558-.61 6.727 0 13.45.41 19.969l5.09 62.555c0 .203 0 .203.203.406-1.02.41-2.035 1.02-2.649 1.836-3.257 3.871-7.328 4.074-11.398 4.48-1.223 0-2.242.203-3.465.41-6.512 1.016-13.437.813-20.152.813-5.907-.203-12.828-.406-18.325-3.465l-.41-.203c-.406-.203-.609-.406-1.015-.61v-.202c-2.852-9.375-6.719-21.395-9.367-29.547.406-.813.203-.813.203-1.02zm-68 6.93c.609-5.707 2.238-11.41 3.867-16.914 2.039-7.54 4.277-15.485 4.277-23.633 0-.816-.61-1.43-1.629-1.43-.816 0-1.629.614-1.425 1.633 0 7.742-2.036 15.078-4.07 22.617-1.02 4.074-2.243 8.149-3.055 12.223-.204 0-.614.207-.817.41-1.219 1.629-2.848 3.465-4.68 4.277-1.425.614-3.668.204-4.277-1.222-.406-.813-.203-2.035.203-3.055.817-2.648 1.832-5.297 2.852-7.95 1.222-3.257 2.441-6.519 3.258-9.98 1.222-5.3 1.015-10.597.812-15.691-.203-4.074-.203-8.148.203-12.227 1.223-10.593 6.719-19.761 12.625-29.34 4.07-6.519 8.145-13.449 10.586-20.785 5.703-15.687 4.277-32.601 2.035-47.27-.406-3.464-1.015-6.929-1.629-10.39-1.832-11.82-3.867-24.047-3.46-35.863.613-13.855-.204-23.227-1.422-36.27l-.41-4.277c-.407-4.89-1.833-10.187-3.258-15.488-2.239-8.965-4.68-18.336-2.442-26.078v-.207c.813-.61 1.832-1.22 3.258-2.239 6.105-4.28 16.285-11.207 23.82-11.82 6.72-.61 13.64.817 20.36 2.04 5.496 1.019 8.55 2.85 9.57 5.296-.203.203-.41.613-.41 1.02-.406 17.32 1.223 35.046 2.851 52.16 2.649 26.695 5.293 54.203-.406 80.691-.61 3.258-1.426 6.317-2.238 9.371-1.629 6.317-3.258 12.633-3.871 19.36-1.63 15.484 2.242 30.968 5.906 45.843l.203 1.223 1.63 42.18c.202 5.093.405 10.39-.817 15.484-1.422 6.723-6.106 14.262-11.809 19.766 1.832-7.336 1.629-15.078 1.426-22.617-.203-6.114-.203-12.633.816-18.747.203-.816-.41-1.632-1.222-1.836-.817-.203-1.63.41-1.832 1.223-1.02 6.317-.817 12.836-.817 19.152.207 8.153.41 15.895-1.832 23.434-1.426 5.094-4.07 9.984-6.719 14.672-2.847 5.5-7.328 12.02-14.859 15.078l3.664-12.226c1.426-4.891 2.848-9.985 3.867-15.282 2.035-10.39 2.035-20.988 2.239-31.176 0-.816-.61-1.628-1.63-1.628-.812 0-1.628.609-1.628 1.628 0 10.188-.203 20.579-2.035 30.77-1.016 5.094-2.442 10.188-3.868 15.078l-5.699 19.559c-.207.406-.207 1.02-.613 1.426-.61.816-2.035.613-2.852.203-1.015-.61-1.629-1.832-2.238-3.664-2.238-6.727-.812-14.063.61-21.192l.41-2.039c2.441-12.836 3.664-26.691 3.664-42.18 0-.812-.61-1.425-1.223-1.425-.813-.203-1.426.203-1.629 1.02-5.293 15.894-9.363 32.194-12.215 48.698v.407c-.61 3.058-1.222 6.316-2.441 9.172-1.223 2.44-2.852 4.48-4.887 5.703a47.222 47.222 0 0 1-1.223-7.133c-1.222-9.574-2.648-19.559-1.425-29.543zm-40.922 51.347c-9.977-3.261-20.36-6.726-29.113-12.43-3.872-2.648-5.907-5.093-6.11-7.538-.203-2.04.61-4.074 1.426-6.114 5.293-13.246 11.195-36.27 16.285-56.44 4.277-16.911 8.961-35.864 11.402-39.325 2.446 1.02 4.684 2.445 6.72 3.87 10.792 7.13 21.581 14.669 32.167 22.415h.203c0 1.832 0 3.668.203 5.5.207 5.297.41 10.188-.812 15.078-.61 3.262-1.832 6.317-3.055 9.371-1.015 2.653-2.035 5.301-2.851 8.153-.407 1.628-.813 3.261 0 5.093 1.02 2.242 3.257 3.262 5.5 3.262.812 0 1.832-.207 2.644-.41 1.426-.61 2.649-1.426 3.664-2.445-.203 1.222-.203 2.445-.406 3.668-.203 0-.203.203-.406.41l-24.84 41.77c-1.832 3.054-3.867 6.112-6.922 6.722-2.035.613-4.07 0-5.7-.61zm-78.184-42.992c0-1.836-.203-3.465-.812-5.097 2.851.207 5.902.41 8.754.41 6.515 0 12.828-.613 19.343-2.04-1.832 2.446-3.668 5.095-5.297 7.54-3.05 4.281-6.308 8.762-8.753 13.652-5.903 11.207-7.735 24.246-9.16 36.067-4.481-12.633-7.739-25.88-9.57-39.122 1.222-1.632 2.444-3.464 3.46-5.3.816-1.426 1.832-3.668 2.035-6.11zm-26.058 54.809c-4.07-7.54-8.957-14.875-14.047-21.8 5.902-1.837 12.824-4.485 19.34-8.356 4.886-2.852 9.164-6.317 12.625-9.985 2.238 14.266 6.105 28.324 11.195 41.977-1.016-.207-2.035-.207-2.848-.41l-24.23-1.223h-1.63l-.405-.203zm82.05-88.43c-4.683 18.336-9.773 37.696-14.457 49.309-1.02 2.242-2.035 4.89-1.629 7.539.204 2.445 1.426 4.484 2.852 6.113l-.406.406-12.422 27.102c-.203.203-.203.61 0 .812-4.684 3.465-7.125 8.97-8.957 14.47-1.02 3.054-2.035 6.316-2.852 9.37-2.441-7.332-5.496-14.261-9.57-20.78-.406-.817-1.016-1.427-1.422-2.04v-.406c-.203-.614-.41-1.02-.613-1.63.203-.206.203-.41.203-.612 1.426-13.04 2.851-27.711 9.367-40.141 2.442-4.688 5.496-8.965 8.55-13.242 8.958-12.84 18.528-26.285 31.356-36.27zm18.32 100.656-1.218 8.56c-1.02-1.224-2.035-2.243-3.055-3.466-4.07-4.687-8.347-9.375-13.64-13.039-6.313-4.281-15.067-6.523-22.395-3.668l10.992-23.84c.817.61 1.426 1.223 2.239 1.63 9.164 6.113 19.75 9.577 29.93 12.835.613.203 1.425.406 2.034.613-3.05 6.317-4.07 13.446-4.886 20.375zm2.04 70.297.61 12.227H332c-3.664 3.46-7.535 7.129-12.012 9.168-4.074 2.035-8.55 2.851-12.625 3.258-10.18 1.633-20.765 2.242-31.148 2.242-4.887 0-10.18-.203-14.66-2.649-.203 0-.407-.203-.61-.203 1.016-8.965 2.035-17.117 4.07-25.879 1.63-7.129 3.055-14.464 4.278-21.597 2.644-13.653 5.293-27.711 9.773-41.16 1.832-5.094 3.868-10.188 7.938-13.243 6.719-4.89 16.492-2.648 22.805 1.63 4.886 3.261 9.16 7.945 13.03 12.429 1.423 1.629 3.052 3.465 4.68 5.094 0 .203.204.406.204.613 1.02 7.742 1.425 15.688 1.832 23.43zm-72.278 43.602c.407-5.703.813-11 1.223-16.094 4.883 2.445 10.586 2.852 15.473 2.852h.61c10.382 0 20.765-.817 30.944-2.242 4.278-.61 9.164-1.426 13.438-3.668 4.074-2.036 7.738-5.094 10.793-7.946 0 4.074-.203 7.946-.817 12.024-.406 3.258-1.218 7.129-3.664 9.98-1.628 2.04-3.867 3.262-5.496 4.281-9.164 5.094-20.765 7.743-35.425 7.946h-.407c-11.402-.203-24.84-2.852-26.672-7.133zm-67.593-28.524c2.441 2.243 5.496 4.075 8.144 4.891 2.848.813 5.7.813 8.551.813h2.441c6.516 0 13.032-.204 19.547-.407 3.055-.203 6.719-.203 10.18-1.02 7.125-1.628 13.437-5.702 19.137-9.573-1.02 5.703-1.63 11.41-2.239 17.523l-8.96 7.332c-2.036 1.633-4.07 3.262-6.31 4.281-2.444 1.02-5.089 1.426-7.534 1.63-11.606 1.222-23.414.612-34.813-1.63-1.832-.41-3.668-.816-4.683-1.836-1.426-1.222-1.832-3.668-2.243-5.703-.812-5.297-1.218-10.8-1.218-16.3zm12.62-26.898c10.997-19.152 18.325-40.75 21.177-62.758.203-1.832.406-3.258 1.425-4.074.813-.813 2.442-.813 4.07-.61l24.227 1.223c1.426 0 2.852.203 4.074.813.813.613 1.426 1.426 2.036 2.445 4.683 7.54 8.347 15.895 10.586 24.453v.203c-2.239 8.762-3.868 17.727-5.497 26.489a402.207 402.207 0 0 1-4.273 21.394c-.613 2.445-1.02 5.094-1.629 7.54-5.906 4.277-12.828 9.167-20.363 10.8-3.254.61-6.715.813-9.77 1.016-6.515.207-13.031.41-19.547.41-3.257 0-6.922 0-10.18-.817-3.054-.816-6.921-3.668-8.753-6.113 2.441-6.316 5.902-12.02 9.16-17.32 1.02-1.63 2.242-3.258 3.258-5.094zm-39.698-129.59c5.09 12.024 10.382 23.84 16.082 35.66.203 3.461 3.46 6.114 6.515 6.926 1.02.203 2.035.406 3.055.406 2.035 0 4.07-.406 5.902-.812 4.684-1.02 9.57-2.242 14.254-3.668.61-.203 1.016-.406 1.629-.406 0 .203 0 .203.203.406 5.09 6.723 9.774 14.058 13.844 21.394-.406.204-.813.407-1.223.817-2.035 1.629-2.238 4.277-2.441 6.11-.813 6.316-2.035 12.84-3.664 19.155-16.899-12.226-32.781-25.265-47.64-39.53-4.684-4.481-8.962-8.966-10.794-14.466-2.238-6.93-.203-13.855 1.832-21.394a89.383 89.383 0 0 0 2.446-10.598zm-13.032-44.62c.407-1.02 1.832-1.837 3.055-2.446l55.785-27.914c4.07-2.04 8.145-4.078 11.809-6.93 5.09 3.668 6.515 8.762 7.941 13.652 6.719 22.211 13.64 44.829 20.969 67.036.61 1.835 1.223 3.464 1.02 5.3 0 1.832-1.02 3.461-1.833 5.094-3.668 6.52-9.773 12.426-17.511 17.113-7.942 4.688-16.493 7.54-23.211 9.375-4.68 1.426-9.364 2.446-14.047 3.668-2.649.61-5.293 1.016-7.531.407-2.04-.407-4.075-2.243-4.075-4.282 0-.203 0-.406-.203-.61-12.011-24.655-22.394-49.51-31.558-75.796-.61-1.426-1.016-2.648-.61-3.668zm-33.39-87.415c.406 0 .816-.203 1.222-.203 4.274-1.02 8.754-2.04 13.235-3.055 4.476-1.02 8.957-1.836 12.418 0 .609.203 1.425.203 1.832-.41.406-.61.406-1.223 0-1.832-9.774-14.059-13.844-31.582-11.606-48.496 1.832.41 3.664.613 5.703.613 8.754 0 17.305-3.668 23.004-9.984 1.832-2.04 3.258-4.281 4.48-6.52.204 0 .407.203.61.203 9.164 0 17.102 6.114 24.23 12.43 2.036 1.832 4.07 3.871 6.106 5.703.203.406.41.614.816.817 9.977 9.574 19.543 20.172 29.114 32.191v.207c.203.406.406.61.61.813 11.401 14.468 22.804 31.175 35.019 50.53.203.411.816.817 1.222.817.203 0 .61 0 .813-.203.816-.406 1.02-1.426.41-2.039-11.809-19.152-23.211-35.453-34.207-49.715l7.535-3.058s.203 0 .203-.204c2.852 1.63 5.903 2.446 8.551 2.852v.207c-.406 3.055-.203 5.5.816 7.742 1.016 2.852 3.254 4.89 5.903 5.703.816.204 1.629.204 2.441.204 1.223 0 2.445-.204 3.668-.407 3.664-.61 7.734-1.222 11.606-1.425 2.644 0 5.293 0 7.937.203 2.649.203 5.496.203 8.145.203 3.46 0 6.921-.61 10.18-1.426-3.462 4.281-6.11 9.984-7.329 16.707-1.223 6.523-1.426 13.246-1.426 19.766l-.203 36.882c-.203 10.797-.203 21.801 1.016 32.805 0 .61.613 1.223 1.223 1.426h.203c.613 0 1.222-.41 1.425-1.02 1.426-3.261 2.446-6.722 3.664-9.984 1.63-4.89 3.461-10.188 6.11-14.672 3.46-6.11 9.773-12.836 17.508-13.445-2.239 6.316-5.09 17.316-9.567 35.047-.207.61-.41 1.425-.613 2.035-.203 0-.406 0-.813.203-10.382 7.746-18.933 17.523-26.468 27.918h-.61c-10.18 2.238-20.566 3.055-30.949 1.832-6.922-21.598-13.844-43.402-20.36-65-1.628-5.5-3.46-11.613-10.179-16.098-.61-.406-1.219-.406-1.832.207-.406.203-.812.61-1.016.813-7.128-20.985-13.644-42.586-18.937-64.184-.203-.812-1.016-1.222-1.832-1.222-.813.203-1.223 1.02-1.016 1.836 5.496 22.003 12.012 43.808 19.34 65.203-2.644 1.832-5.7 3.257-8.348 4.683l-55.785 27.918a18.508 18.508 0 0 0-2.648 1.63c-7.125-11.821-14.25-23.84-19.543-36.677-8.754-19.968-13.234-36.27-13.031-47.07zm2.851 29.953c-4.074-3.465-8.55-6.316-12.215-8.355-1.832-1.016-3.257-3.668-3.87-7.13-.61-3.667 0-7.335 1.425-8.964 2.238-2.445 5.293-3.875 8.754-4.89 0 7.945 2.039 17.726 5.906 29.34zm-24.23-32.805c.207-2.445.41-5.093 1.02-7.539 1.019-4.074 2.445-7.945 4.073-12.023 5.293-12.836 11.602-26.078 21.172-36.879 2.852 2.04 5.907 3.465 9.164 4.484v.204c-2.242 16.3 1.422 33.21 9.973 47.27-3.258-.407-6.719.206-10.383 1.019-4.476 1.02-8.754 2.039-13.234 3.058-5.7 1.223-10.992 2.852-14.656 6.926-2.649 2.852-2.852 7.945-2.035 11.613-1.836-2.238-3.055-4.683-3.668-6.52-1.016-3.257-1.63-7.132-1.426-11.613zm86.125-287.097c-.207 0-.614 0-.817-.203-.609-.407-.812-1.426-.406-2.243 5.496-7.742 5.902-18.949.813-27.097-.407-.613-.204-1.63.41-2.04.812-.405 1.629-.202 2.035.41 5.7 9.169 5.293 21.802-1.02 30.563-.203.407-.609.61-1.015.61zm108.719-17.113c.816-1.223 1.019-2.852.816-5.094-.41-3.465-2.04-6.93-4.277-9.578-.407.613-.61 1.02-.817 1.629-.812 2.039-1.219 4.484-1.422 6.726l-.613 4.89c0 .813-.813 1.427-1.426 1.427h-.203c-.812-.204-1.426-.817-1.426-1.63l.614-4.89c.203-2.445.609-5.094 1.628-7.746 1.426-3.258 3.665-5.703 5.903-7.945a1.604 1.604 0 0 1 2.242 0c.61.613.61 1.629 0 2.242-.816.816-1.629 1.832-2.445 2.851 2.851 3.262 4.683 7.54 5.293 11.82.41 3.055 0 5.5-1.22 7.333-.206.41-.815.613-1.222.613-.203 0-.61 0-.816-.203-1.016-.613-1.219-1.633-.61-2.445zM252.597 104c-10.383 0-18.73 8.559-18.73 18.95v1.425c-4.684.61-9.368 3.262-12.423 6.723-.203.41-.61.816-.812 1.222-3.461-3.668-8.348-6.113-13.844-6.113-3.258 0-6.516.816-9.164 2.445 2.648-3.46 4.277-7.742 4.684-12.222a22.016 22.016 0 0 0-3.868-14.266c-.41-.61-1.425-.812-2.035-.406-.613.406-.816 1.426-.41 2.039 2.445 3.668 3.664 7.945 3.258 12.43-.406 4.48-2.238 8.554-5.09 11.816-.61.61-.61 1.629 0 2.242.203.203.406.203.613.406-4.074 3.465-6.925 8.762-6.925 14.47a18.688 18.688 0 0 0 18.734 18.741c10.383 0 18.73-8.554 18.73-18.742 0-3.668-1.02-6.93-2.851-9.984.203-.207.406-.613.406-1.02 0-.41.406-1.02.613-1.222 2.848-2.852 6.72-4.891 10.79-5.504a18.824 18.824 0 0 0 18.324 14.265c10.382 0 18.73-8.558 18.73-18.746 0-10.187-8.348-18.949-18.73-18.949zm-30.133 41.363c0 8.762-7.125 15.89-15.88 15.89-8.757 0-15.882-7.128-15.882-15.89 0-8.761 7.125-15.894 15.883-15.894 8.754 0 15.879 7.133 15.879 15.894zm30.133-38.308c8.754 0 15.879 7.132 15.879 15.894s-7.125 15.895-15.88 15.895c-8.753 0-15.882-7.133-15.882-15.895 0-8.761 7.129-15.894 15.883-15.894zm-9.977 40.343c-.203 0-.406 0-.61-.203-.206 0-.613-.203-1.019-.203h-.406c-.816-.203-1.426-1.02-1.223-1.832.203-.816 1.02-1.43 1.832-1.222h.407c1.425.203 2.242.406 2.445 1.425.203.813-.203 1.63-1.02 1.832 0 .203-.203.203-.406.203zm-9.57 6.727c-1.219-.203-1.426-1.223-1.63-2.04v-.405c-.202-.817.204-1.633 1.02-1.836.813-.203 1.63.203 1.832 1.02 0 .202 0 .406.204.613v.203c.406.406.406 1.222 0 1.832-.407.41-1.016.613-1.426.613zm.816 12.633c.203-.41.406-.817.813-1.223 1.02-1.836 2.035-3.87 4.074-5.094 1.219-.613 2.441-1.02 3.664-1.222 1.223-.203 2.441-.614 3.258-1.223.203-.203.61-.613.812-1.02.203-.406.407-.613.614-.816 1.832-2.238 5.09-3.46 8.55-3.258 3.051.203 5.7 1.223 8.141 2.239.816.41 1.223 1.222.816 2.039-.406.816-1.222 1.222-2.035.816-2.445-.816-4.887-1.836-7.332-2.039-2.441-.203-4.68.613-5.902 2.242l-.61.61c-.41.41-.816 1.02-1.222 1.632-1.426 1.223-3.055 1.63-4.684 2.036-1.02.203-2.035.41-2.851.816-1.22.816-2.036 2.242-3.051 3.871-.207.406-.613 1.02-.817 1.426-1.425 2.445-3.46 4.484-5.699 6.113.203 0-.203.203-.41.203-.406 0-1.016-.203-1.219-.61a1.654 1.654 0 0 1 .407-2.241 19.534 19.534 0 0 0 4.683-5.297zm7.938 4.277c5.297-.61 10.18-3.258 13.644-7.133.61-.609 1.63-.609 2.238-.203.61.613.61 1.633.204 2.242-3.868 4.485-9.57 7.54-15.676 8.153h-.203c-.817 0-1.426-.614-1.426-1.43-.203-.812.406-1.426 1.219-1.629zm0 0"/></g></svg>