<svg xmlns="http://www.w3.org/2000/svg" xmlns:xlink="http://www.w3.org/1999/xlink" width="1080" zoomAndPan="magnify" viewBox="0 0 810 809.999993" height="1080" preserveAspectRatio="xMidYMid meet" version="1.0"><rect x="-81" width="972" fill="#ffffff" y="-80.999999" height="971.999992" fill-opacity="1"/><rect x="-81" width="972" fill="#ffffff" y="-80.999999" height="971.999992" fill-opacity="1"/><rect x="-81" width="972" fill="#ffffff" y="-80.999999" height="971.999992" fill-opacity="1"/><path fill="#ffffff" d="M 167.125 450.933594 C 166.640625 450.933594 166.160156 450.980469 165.6875 451.074219 C 165.210938 451.171875 164.75 451.3125 164.300781 451.496094 C 163.855469 451.679688 163.429688 451.910156 163.023438 452.179688 C 162.621094 452.449219 162.25 452.753906 161.90625 453.097656 C 161.5625 453.4375 161.257812 453.8125 160.988281 454.214844 C 160.71875 454.617188 160.492188 455.042969 160.304688 455.492188 C 160.121094 455.9375 159.980469 456.402344 159.886719 456.875 C 159.792969 457.351562 159.746094 457.832031 159.746094 458.316406 C 159.746094 458.800781 159.792969 459.28125 159.886719 459.757812 C 159.980469 460.230469 160.121094 460.695312 160.304688 461.140625 C 160.492188 461.589844 160.71875 462.015625 160.988281 462.417969 C 161.257812 462.820312 161.5625 463.195312 161.90625 463.535156 C 162.25 463.878906 162.621094 464.183594 163.023438 464.453125 C 163.429688 464.722656 163.855469 464.953125 164.300781 465.136719 C 164.75 465.320312 165.210938 465.460938 165.6875 465.558594 C 166.160156 465.652344 166.640625 465.699219 167.125 465.699219 C 167.609375 465.699219 168.089844 465.652344 168.566406 465.558594 C 169.042969 465.460938 169.503906 465.320312 169.953125 465.136719 C 170.398438 464.953125 170.824219 464.722656 171.226562 464.453125 C 171.632812 464.183594 172.003906 463.878906 172.347656 463.535156 C 172.6875 463.195312 172.996094 462.820312 173.265625 462.417969 C 173.535156 462.015625 173.761719 461.589844 173.945312 461.140625 C 174.132812 460.695312 174.273438 460.230469 174.367188 459.757812 C 174.460938 459.28125 174.507812 458.800781 174.507812 458.316406 C 174.507812 457.832031 174.460938 457.351562 174.367188 456.875 C 174.273438 456.402344 174.132812 455.9375 173.945312 455.492188 C 173.761719 455.042969 173.535156 454.617188 173.265625 454.214844 C 172.996094 453.8125 172.6875 453.4375 172.347656 453.097656 C 172.003906 452.753906 171.632812 452.449219 171.226562 452.179688 C 170.824219 451.910156 170.398438 451.679688 169.953125 451.496094 C 169.503906 451.3125 169.042969 451.171875 168.566406 451.074219 C 168.089844 450.980469 167.609375 450.933594 167.125 450.933594 Z M 651.074219 248.332031 C 650.699219 248.332031 650.324219 248.367188 649.957031 248.441406 C 649.585938 248.515625 649.226562 248.625 648.878906 248.769531 C 648.53125 248.914062 648.199219 249.089844 647.886719 249.300781 C 647.574219 249.507812 647.28125 249.746094 647.015625 250.011719 C 646.75 250.28125 646.511719 250.570312 646.300781 250.882812 C 646.09375 251.195312 645.914062 251.527344 645.769531 251.875 C 645.628906 252.222656 645.519531 252.582031 645.445312 252.953125 C 645.371094 253.324219 645.335938 253.695312 645.335938 254.074219 C 645.335938 254.449219 645.371094 254.824219 645.445312 255.195312 C 645.519531 255.5625 645.628906 255.921875 645.769531 256.269531 C 645.914062 256.617188 646.09375 256.949219 646.300781 257.261719 C 646.511719 257.578125 646.75 257.867188 647.015625 258.132812 C 647.28125 258.398438 647.574219 258.636719 647.886719 258.847656 C 648.199219 259.058594 648.53125 259.234375 648.878906 259.378906 C 649.226562 259.523438 649.585938 259.632812 649.957031 259.703125 C 650.324219 259.777344 650.699219 259.816406 651.074219 259.816406 C 651.453125 259.816406 651.828125 259.777344 652.195312 259.703125 C 652.566406 259.632812 652.925781 259.523438 653.273438 259.378906 C 653.621094 259.234375 653.953125 259.058594 654.265625 258.847656 C 654.578125 258.636719 654.871094 258.398438 655.136719 258.132812 C 655.402344 257.867188 655.640625 257.578125 655.851562 257.261719 C 656.058594 256.949219 656.234375 256.617188 656.378906 256.269531 C 656.523438 255.921875 656.632812 255.5625 656.707031 255.195312 C 656.78125 254.824219 656.816406 254.449219 656.816406 254.074219 C 656.816406 253.695312 656.78125 253.324219 656.707031 252.953125 C 656.632812 252.582031 656.523438 252.222656 656.378906 251.875 C 656.234375 251.527344 656.058594 251.195312 655.851562 250.882812 C 655.640625 250.570312 655.402344 250.28125 655.136719 250.011719 C 654.871094 249.746094 654.578125 249.507812 654.265625 249.300781 C 653.953125 249.089844 653.621094 248.914062 653.273438 248.769531 C 652.925781 248.625 652.566406 248.515625 652.195312 248.441406 C 651.828125 248.367188 651.453125 248.332031 651.074219 248.332031 Z M 651.074219 248.332031 " fill-opacity="1" fill-rule="nonzero"/><path fill="#f1bc19" d="M 629.75 90.023438 C 629.265625 90.023438 628.785156 90.070312 628.308594 90.164062 C 627.832031 90.257812 627.371094 90.398438 626.925781 90.585938 C 626.476562 90.769531 626.050781 90.996094 625.648438 91.265625 C 625.246094 91.535156 624.871094 91.84375 624.527344 92.183594 C 624.1875 92.527344 623.878906 92.902344 623.609375 93.304688 C 623.34375 93.707031 623.113281 94.132812 622.929688 94.578125 C 622.742188 95.027344 622.601562 95.488281 622.507812 95.964844 C 622.414062 96.441406 622.367188 96.921875 622.367188 97.40625 C 622.367188 97.890625 622.414062 98.371094 622.507812 98.84375 C 622.601562 99.320312 622.742188 99.78125 622.929688 100.230469 C 623.113281 100.679688 623.34375 101.101562 623.609375 101.507812 C 623.878906 101.910156 624.1875 102.28125 624.527344 102.625 C 624.871094 102.96875 625.246094 103.273438 625.648438 103.542969 C 626.050781 103.8125 626.476562 104.039062 626.925781 104.226562 C 627.371094 104.410156 627.832031 104.550781 628.308594 104.644531 C 628.785156 104.738281 629.265625 104.789062 629.75 104.789062 C 630.234375 104.789062 630.714844 104.738281 631.191406 104.644531 C 631.664062 104.550781 632.125 104.410156 632.574219 104.226562 C 633.023438 104.039062 633.449219 103.8125 633.851562 103.542969 C 634.253906 103.273438 634.625 102.96875 634.96875 102.625 C 635.3125 102.28125 635.617188 101.910156 635.886719 101.507812 C 636.15625 101.101562 636.382812 100.679688 636.570312 100.230469 C 636.753906 99.78125 636.894531 99.320312 636.988281 98.84375 C 637.085938 98.371094 637.132812 97.890625 637.132812 97.40625 C 637.132812 96.921875 637.085938 96.441406 636.988281 95.964844 C 636.894531 95.488281 636.753906 95.027344 636.570312 94.578125 C 636.382812 94.132812 636.15625 93.707031 635.886719 93.304688 C 635.617188 92.902344 635.3125 92.527344 634.96875 92.183594 C 634.625 91.84375 634.253906 91.535156 633.851562 91.265625 C 633.449219 90.996094 633.023438 90.769531 632.574219 90.585938 C 632.125 90.398438 631.664062 90.257812 631.191406 90.164062 C 630.714844 90.070312 630.234375 90.023438 629.75 90.023438 Z M 171.226562 513.273438 C 170.742188 513.273438 170.261719 513.320312 169.789062 513.414062 C 169.3125 513.511719 168.851562 513.648438 168.402344 513.835938 C 167.953125 514.019531 167.53125 514.25 167.125 514.515625 C 166.722656 514.785156 166.351562 515.09375 166.007812 515.4375 C 165.664062 515.777344 165.359375 516.152344 165.089844 516.554688 C 164.820312 516.957031 164.59375 517.382812 164.40625 517.832031 C 164.222656 518.277344 164.082031 518.738281 163.988281 519.214844 C 163.894531 519.691406 163.84375 520.171875 163.84375 520.65625 C 163.84375 521.140625 163.894531 521.621094 163.988281 522.097656 C 164.082031 522.570312 164.222656 523.03125 164.40625 523.480469 C 164.59375 523.929688 164.820312 524.355469 165.089844 524.757812 C 165.359375 525.160156 165.664062 525.53125 166.007812 525.875 C 166.351562 526.21875 166.722656 526.523438 167.125 526.792969 C 167.53125 527.0625 167.953125 527.289062 168.402344 527.476562 C 168.851562 527.660156 169.3125 527.800781 169.789062 527.894531 C 170.261719 527.992188 170.742188 528.039062 171.226562 528.039062 C 171.710938 528.039062 172.191406 527.992188 172.667969 527.894531 C 173.144531 527.800781 173.605469 527.660156 174.054688 527.476562 C 174.5 527.289062 174.925781 527.0625 175.328125 526.792969 C 175.730469 526.523438 176.105469 526.21875 176.449219 525.875 C 176.789062 525.53125 177.097656 525.160156 177.367188 524.757812 C 177.636719 524.355469 177.863281 523.929688 178.046875 523.480469 C 178.234375 523.03125 178.375 522.570312 178.46875 522.097656 C 178.5625 521.621094 178.609375 521.140625 178.609375 520.65625 C 178.609375 520.171875 178.5625 519.691406 178.46875 519.214844 C 178.375 518.738281 178.234375 518.277344 178.046875 517.832031 C 177.863281 517.382812 177.636719 516.957031 177.367188 516.554688 C 177.097656 516.152344 176.789062 515.777344 176.449219 515.4375 C 176.105469 515.09375 175.730469 514.785156 175.328125 514.515625 C 174.925781 514.25 174.5 514.019531 174.054688 513.835938 C 173.605469 513.648438 173.144531 513.511719 172.667969 513.414062 C 172.191406 513.320312 171.710938 513.273438 171.226562 513.273438 Z M 171.226562 513.273438 " fill-opacity="1" fill-rule="nonzero"/><path fill="#e4e4f9" d="M 407.460938 96.585938 C 402.441406 96.585938 397.421875 96.707031 392.40625 96.953125 C 387.394531 97.199219 382.386719 97.570312 377.390625 98.0625 C 372.394531 98.554688 367.414062 99.167969 362.449219 99.90625 C 357.480469 100.640625 352.535156 101.5 347.613281 102.480469 C 342.6875 103.457031 337.789062 104.558594 332.921875 105.777344 C 328.050781 107 323.214844 108.335938 318.410156 109.792969 C 313.605469 111.25 308.839844 112.828125 304.113281 114.519531 C 299.382812 116.210938 294.703125 118.015625 290.0625 119.9375 C 285.425781 121.859375 280.835938 123.890625 276.296875 126.039062 C 271.757812 128.183594 267.277344 130.441406 262.847656 132.808594 C 258.421875 135.175781 254.054688 137.648438 249.746094 140.230469 C 245.441406 142.8125 241.199219 145.496094 237.027344 148.285156 C 232.851562 151.074219 228.746094 153.964844 224.714844 156.957031 C 220.683594 159.945312 216.726562 163.035156 212.84375 166.21875 C 208.964844 169.40625 205.164062 172.683594 201.445312 176.054688 C 197.722656 179.425781 194.089844 182.886719 190.539062 186.4375 C 186.988281 189.988281 183.527344 193.621094 180.15625 197.34375 C 176.785156 201.0625 173.503906 204.863281 170.320312 208.742188 C 167.136719 212.625 164.046875 216.582031 161.058594 220.613281 C 158.066406 224.648438 155.175781 228.75 152.386719 232.925781 C 149.597656 237.097656 146.914062 241.339844 144.332031 245.644531 C 141.75 249.953125 139.277344 254.320312 136.910156 258.746094 C 134.542969 263.175781 132.285156 267.65625 130.140625 272.195312 C 127.992188 276.734375 125.960938 281.324219 124.039062 285.960938 C 122.117188 290.601562 120.308594 295.28125 118.617188 300.011719 C 116.925781 304.738281 115.351562 309.503906 113.894531 314.308594 C 112.4375 319.113281 111.101562 323.949219 109.878906 328.820312 C 108.660156 333.691406 107.558594 338.585938 106.582031 343.511719 C 105.601562 348.433594 104.742188 353.378906 104.007812 358.347656 C 103.269531 363.3125 102.65625 368.292969 102.164062 373.289062 C 101.671875 378.285156 101.300781 383.292969 101.054688 388.308594 C 100.808594 393.320312 100.6875 398.339844 100.6875 403.359375 C 100.6875 408.378906 100.808594 413.398438 101.054688 418.414062 C 101.300781 423.425781 101.671875 428.433594 102.164062 433.429688 C 102.65625 438.425781 103.269531 443.40625 104.007812 448.371094 C 104.742188 453.339844 105.601562 458.285156 106.582031 463.207031 C 107.558594 468.132812 108.660156 473.03125 109.878906 477.898438 C 111.097656 482.769531 112.4375 487.605469 113.894531 492.410156 C 115.351562 497.214844 116.925781 501.980469 118.617188 506.707031 C 120.308594 511.4375 122.117188 516.117188 124.039062 520.757812 C 125.960938 525.394531 127.992188 529.984375 130.140625 534.523438 C 132.285156 539.0625 134.542969 543.542969 136.910156 547.972656 C 139.277344 552.398438 141.75 556.765625 144.332031 561.074219 C 146.914062 565.378906 149.597656 569.621094 152.386719 573.792969 C 155.175781 577.96875 158.066406 582.074219 161.058594 586.105469 C 164.046875 590.136719 167.136719 594.09375 170.320312 597.976562 C 173.503906 601.855469 176.785156 605.65625 180.15625 609.375 C 183.527344 613.097656 186.988281 616.730469 190.539062 620.28125 C 194.089844 623.832031 197.722656 627.292969 201.445312 630.664062 C 205.164062 634.035156 208.964844 637.316406 212.84375 640.5 C 216.726562 643.683594 220.683594 646.773438 224.714844 649.761719 C 228.746094 652.753906 232.851562 655.644531 237.027344 658.433594 C 241.199219 661.222656 245.441406 663.90625 249.746094 666.488281 C 254.054688 669.070312 258.421875 671.542969 262.847656 673.910156 C 267.277344 676.277344 271.757812 678.535156 276.296875 680.679688 C 280.835938 682.828125 285.425781 684.859375 290.0625 686.78125 C 294.703125 688.703125 299.382812 690.511719 304.113281 692.203125 C 308.839844 693.894531 313.605469 695.46875 318.410156 696.925781 C 323.214844 698.382812 328.050781 699.71875 332.921875 700.941406 C 337.789062 702.160156 342.6875 703.261719 347.613281 704.238281 C 352.535156 705.21875 357.480469 706.078125 362.449219 706.8125 C 367.414062 707.550781 372.394531 708.164062 377.390625 708.65625 C 382.386719 709.148438 387.394531 709.519531 392.40625 709.765625 C 397.421875 710.011719 402.441406 710.132812 407.460938 710.132812 C 412.480469 710.132812 417.5 710.011719 422.511719 709.765625 C 427.527344 709.519531 432.535156 709.148438 437.53125 708.65625 C 442.527344 708.164062 447.507812 707.550781 452.472656 706.8125 C 457.441406 706.078125 462.386719 705.21875 467.308594 704.238281 C 472.234375 703.261719 477.128906 702.160156 482 700.941406 C 486.871094 699.71875 491.707031 698.382812 496.511719 696.925781 C 501.316406 695.46875 506.082031 693.894531 510.808594 692.203125 C 515.535156 690.511719 520.21875 688.703125 524.859375 686.78125 C 529.496094 684.859375 534.085938 682.828125 538.625 680.679688 C 543.164062 678.535156 547.644531 676.277344 552.074219 673.910156 C 556.5 671.542969 560.867188 669.070312 565.175781 666.488281 C 569.480469 663.90625 573.722656 661.222656 577.894531 658.433594 C 582.070312 655.644531 586.171875 652.753906 590.207031 649.761719 C 594.238281 646.773438 598.195312 643.683594 602.078125 640.5 C 605.957031 637.316406 609.757812 634.035156 613.476562 630.664062 C 617.199219 627.292969 620.832031 623.832031 624.382812 620.28125 C 627.933594 616.730469 631.394531 613.097656 634.765625 609.375 C 638.136719 605.65625 641.414062 601.855469 644.601562 597.976562 C 647.785156 594.09375 650.875 590.136719 653.863281 586.105469 C 656.855469 582.074219 659.746094 577.96875 662.535156 573.792969 C 665.324219 569.621094 668.007812 565.378906 670.589844 561.074219 C 673.171875 556.765625 675.644531 552.398438 678.011719 547.972656 C 680.378906 543.542969 682.636719 539.0625 684.78125 534.523438 C 686.929688 529.984375 688.960938 525.394531 690.882812 520.757812 C 692.804688 516.117188 694.609375 511.4375 696.300781 506.707031 C 697.992188 501.980469 699.570312 497.214844 701.027344 492.410156 C 702.484375 487.605469 703.820312 482.769531 705.042969 477.898438 C 706.261719 473.03125 707.363281 468.132812 708.339844 463.207031 C 709.320312 458.285156 710.179688 453.339844 710.914062 448.371094 C 711.652344 443.40625 712.265625 438.425781 712.757812 433.429688 C 713.25 428.433594 713.621094 423.425781 713.867188 418.414062 C 714.113281 413.398438 714.234375 408.378906 714.234375 403.359375 C 714.234375 398.339844 714.113281 393.320312 713.867188 388.308594 C 713.621094 383.292969 713.25 378.285156 712.757812 373.289062 C 712.265625 368.292969 711.652344 363.3125 710.914062 358.347656 C 710.179688 353.378906 709.320312 348.433594 708.339844 343.511719 C 707.363281 338.585938 706.261719 333.691406 705.042969 328.820312 C 703.820312 323.949219 702.484375 319.113281 701.027344 314.308594 C 699.570312 309.503906 697.992188 304.738281 696.300781 300.011719 C 694.609375 295.28125 692.804688 290.601562 690.882812 285.960938 C 688.960938 281.324219 686.929688 276.734375 684.78125 272.195312 C 682.636719 267.65625 680.378906 263.175781 678.011719 258.746094 C 675.644531 254.320312 673.171875 249.953125 670.589844 245.644531 C 668.007812 241.339844 665.324219 237.097656 662.535156 232.925781 C 659.746094 228.75 656.855469 224.648438 653.863281 220.613281 C 650.875 216.582031 647.785156 212.625 644.601562 208.742188 C 641.414062 204.863281 638.136719 201.0625 634.765625 197.34375 C 631.394531 193.621094 627.933594 189.988281 624.382812 186.4375 C 620.832031 182.886719 617.199219 179.425781 613.476562 176.054688 C 609.757812 172.683594 605.957031 169.40625 602.078125 166.21875 C 598.195312 163.035156 594.238281 159.945312 590.207031 156.957031 C 586.171875 153.964844 582.070312 151.074219 577.894531 148.285156 C 573.722656 145.496094 569.480469 142.8125 565.175781 140.230469 C 560.867188 137.648438 556.5 135.175781 552.074219 132.808594 C 547.644531 130.441406 543.164062 128.183594 538.625 126.039062 C 534.085938 123.890625 529.496094 121.859375 524.859375 119.9375 C 520.21875 118.015625 515.535156 116.210938 510.808594 114.519531 C 506.082031 112.828125 501.316406 111.25 496.511719 109.792969 C 491.707031 108.335938 486.871094 107 482 105.777344 C 477.128906 104.558594 472.234375 103.457031 467.308594 102.480469 C 462.386719 101.5 457.441406 100.640625 452.472656 99.90625 C 447.507812 99.167969 442.527344 98.554688 437.53125 98.0625 C 432.535156 97.570312 427.527344 97.199219 422.511719 96.953125 C 417.5 96.707031 412.480469 96.585938 407.460938 96.585938 Z M 407.460938 96.585938 " fill-opacity="1" fill-rule="nonzero"/><path fill="#f1bc19" d="M 674.042969 82.640625 C 672.96875 82.640625 671.894531 82.691406 670.824219 82.796875 C 669.757812 82.902344 668.695312 83.058594 667.640625 83.269531 C 666.585938 83.476562 665.542969 83.738281 664.515625 84.050781 C 663.488281 84.359375 662.476562 84.722656 661.480469 85.132812 C 660.488281 85.542969 659.519531 86.003906 658.570312 86.507812 C 657.621094 87.015625 656.699219 87.566406 655.808594 88.164062 C 654.914062 88.761719 654.050781 89.402344 653.21875 90.082031 C 652.386719 90.765625 651.59375 91.484375 650.832031 92.246094 C 650.070312 93.003906 649.351562 93.800781 648.667969 94.628906 C 647.988281 95.460938 647.347656 96.324219 646.75 97.21875 C 646.152344 98.109375 645.601562 99.03125 645.09375 99.980469 C 644.585938 100.925781 644.128906 101.898438 643.714844 102.890625 C 643.304688 103.882812 642.941406 104.894531 642.628906 105.921875 C 642.320312 106.953125 642.058594 107.992188 641.847656 109.046875 C 641.636719 110.101562 641.480469 111.164062 641.375 112.234375 C 641.269531 113.304688 641.21875 114.375 641.21875 115.449219 C 641.21875 116.527344 641.269531 117.597656 641.375 118.667969 C 641.480469 119.738281 641.636719 120.800781 641.847656 121.855469 C 642.058594 122.90625 642.320312 123.949219 642.628906 124.976562 C 642.941406 126.007812 643.304688 127.015625 643.714844 128.011719 C 644.128906 129.003906 644.585938 129.972656 645.09375 130.921875 C 645.601562 131.871094 646.152344 132.789062 646.75 133.683594 C 647.347656 134.578125 647.988281 135.441406 648.667969 136.269531 C 649.351562 137.101562 650.070312 137.898438 650.832031 138.65625 C 651.59375 139.417969 652.386719 140.136719 653.21875 140.820312 C 654.050781 141.5 654.914062 142.140625 655.808594 142.738281 C 656.699219 143.332031 657.621094 143.886719 658.570312 144.390625 C 659.519531 144.898438 660.488281 145.355469 661.480469 145.769531 C 662.476562 146.179688 663.488281 146.539062 664.515625 146.851562 C 665.542969 147.164062 666.585938 147.425781 667.640625 147.632812 C 668.695312 147.84375 669.757812 148 670.824219 148.105469 C 671.894531 148.210938 672.96875 148.261719 674.042969 148.261719 C 675.117188 148.261719 676.191406 148.210938 677.261719 148.105469 C 678.328125 148 679.390625 147.84375 680.445312 147.632812 C 681.5 147.421875 682.542969 147.164062 683.570312 146.851562 C 684.597656 146.539062 685.609375 146.179688 686.605469 145.769531 C 687.597656 145.355469 688.566406 144.898438 689.515625 144.390625 C 690.464844 143.886719 691.386719 143.332031 692.277344 142.738281 C 693.171875 142.140625 694.035156 141.5 694.867188 140.820312 C 695.699219 140.136719 696.492188 139.417969 697.253906 138.65625 C 698.015625 137.898438 698.734375 137.101562 699.417969 136.269531 C 700.097656 135.441406 700.738281 134.578125 701.335938 133.683594 C 701.933594 132.789062 702.484375 131.871094 702.992188 130.921875 C 703.5 129.972656 703.957031 129.003906 704.371094 128.011719 C 704.78125 127.015625 705.144531 126.007812 705.457031 124.976562 C 705.765625 123.949219 706.027344 122.90625 706.238281 121.855469 C 706.449219 120.800781 706.605469 119.738281 706.710938 118.667969 C 706.816406 117.597656 706.867188 116.527344 706.871094 115.449219 C 706.867188 114.375 706.816406 113.304688 706.710938 112.234375 C 706.605469 111.164062 706.449219 110.101562 706.238281 109.046875 C 706.027344 107.992188 705.765625 106.953125 705.457031 105.921875 C 705.144531 104.894531 704.78125 103.882812 704.371094 102.890625 C 703.957031 101.898438 703.5 100.925781 702.992188 99.980469 C 702.484375 99.03125 701.933594 98.109375 701.335938 97.21875 C 700.738281 96.324219 700.097656 95.460938 699.417969 94.628906 C 698.734375 93.800781 698.015625 93.003906 697.253906 92.246094 C 696.492188 91.484375 695.699219 90.765625 694.867188 90.082031 C 694.035156 89.402344 693.171875 88.761719 692.277344 88.164062 C 691.386719 87.566406 690.464844 87.015625 689.515625 86.507812 C 688.566406 86.003906 687.597656 85.542969 686.605469 85.132812 C 685.609375 84.722656 684.597656 84.359375 683.570312 84.050781 C 682.542969 83.738281 681.5 83.476562 680.445312 83.269531 C 679.390625 83.058594 678.328125 82.902344 677.261719 82.796875 C 676.191406 82.691406 675.117188 82.640625 674.042969 82.640625 Z M 674.042969 82.640625 " fill-opacity="1" fill-rule="nonzero"/><path fill="#ee3e54" d="M 706.851562 174.507812 C 705.828125 174.507812 704.816406 174.609375 703.8125 174.808594 C 702.808594 175.007812 701.835938 175.304688 700.890625 175.695312 C 699.945312 176.085938 699.046875 176.566406 698.195312 177.136719 C 697.34375 177.703125 696.554688 178.351562 695.832031 179.074219 C 695.109375 179.796875 694.464844 180.585938 693.894531 181.433594 C 693.328125 182.285156 692.847656 183.183594 692.453125 184.128906 C 692.0625 185.074219 691.765625 186.050781 691.566406 187.054688 C 691.367188 188.058594 691.269531 189.070312 691.269531 190.09375 C 691.269531 191.117188 691.367188 192.128906 691.566406 193.132812 C 691.765625 194.136719 692.0625 195.113281 692.453125 196.058594 C 692.847656 197.003906 693.328125 197.902344 693.894531 198.753906 C 694.464844 199.601562 695.109375 200.390625 695.832031 201.113281 C 696.554688 201.835938 697.34375 202.484375 698.195312 203.050781 C 699.046875 203.621094 699.945312 204.101562 700.890625 204.492188 C 701.835938 204.882812 702.808594 205.179688 703.8125 205.378906 C 704.816406 205.578125 705.828125 205.679688 706.851562 205.679688 C 707.875 205.679688 708.890625 205.578125 709.894531 205.378906 C 710.898438 205.179688 711.871094 204.882812 712.816406 204.492188 C 713.761719 204.101562 714.660156 203.621094 715.511719 203.050781 C 716.363281 202.484375 717.148438 201.835938 717.875 201.113281 C 718.597656 200.390625 719.242188 199.601562 719.8125 198.753906 C 720.378906 197.902344 720.859375 197.003906 721.25 196.058594 C 721.644531 195.113281 721.9375 194.136719 722.136719 193.132812 C 722.339844 192.128906 722.4375 191.117188 722.4375 190.09375 C 722.4375 189.070312 722.339844 188.058594 722.136719 187.054688 C 721.9375 186.050781 721.644531 185.074219 721.25 184.128906 C 720.859375 183.183594 720.378906 182.285156 719.8125 181.433594 C 719.242188 180.585938 718.597656 179.796875 717.875 179.074219 C 717.148438 178.351562 716.363281 177.703125 715.511719 177.136719 C 714.660156 176.566406 713.761719 176.085938 712.816406 175.695312 C 711.871094 175.304688 710.898438 175.007812 709.894531 174.808594 C 708.890625 174.609375 707.875 174.507812 706.851562 174.507812 Z M 706.851562 174.507812 " fill-opacity="1" fill-rule="nonzero"/><path fill="#fbcd59" d="M 633.851562 604.320312 C 632.824219 604.320312 631.8125 604.417969 630.804688 604.617188 C 629.800781 604.8125 628.824219 605.109375 627.878906 605.5 C 626.929688 605.890625 626.03125 606.371094 625.175781 606.9375 C 624.324219 607.503906 623.535156 608.152344 622.8125 608.875 C 622.085938 609.597656 621.4375 610.386719 620.867188 611.238281 C 620.296875 612.089844 619.816406 612.988281 619.425781 613.933594 C 619.03125 614.882812 618.734375 615.855469 618.535156 616.863281 C 618.335938 617.867188 618.234375 618.882812 618.234375 619.90625 C 618.234375 620.929688 618.335938 621.945312 618.535156 622.949219 C 618.734375 623.957031 619.03125 624.929688 619.425781 625.878906 C 619.816406 626.824219 620.296875 627.722656 620.867188 628.574219 C 621.4375 629.425781 622.085938 630.214844 622.8125 630.9375 C 623.535156 631.660156 624.324219 632.308594 625.175781 632.875 C 626.03125 633.445312 626.929688 633.921875 627.878906 634.3125 C 628.824219 634.703125 629.800781 635 630.804688 635.195312 C 631.8125 635.394531 632.824219 635.492188 633.851562 635.492188 C 634.875 635.492188 635.890625 635.394531 636.894531 635.195312 C 637.902344 635 638.875 634.703125 639.824219 634.3125 C 640.769531 633.921875 641.671875 633.445312 642.523438 632.875 C 643.375 632.308594 644.164062 631.660156 644.890625 630.9375 C 645.617188 630.214844 646.261719 629.425781 646.832031 628.574219 C 647.402344 627.722656 647.882812 626.824219 648.277344 625.878906 C 648.667969 624.929688 648.964844 623.957031 649.164062 622.949219 C 649.367188 621.945312 649.464844 620.929688 649.464844 619.90625 C 649.464844 618.882812 649.367188 617.867188 649.164062 616.863281 C 648.964844 615.855469 648.667969 614.882812 648.277344 613.933594 C 647.882812 612.988281 647.402344 612.089844 646.832031 611.238281 C 646.261719 610.386719 645.617188 609.597656 644.890625 608.875 C 644.164062 608.152344 643.375 607.503906 642.523438 606.9375 C 641.671875 606.371094 640.769531 605.890625 639.824219 605.5 C 638.875 605.109375 637.902344 604.8125 636.894531 604.617188 C 635.890625 604.417969 634.875 604.320312 633.851562 604.320312 Z M 115.449219 481.285156 C 114.375 481.285156 113.304688 481.335938 112.234375 481.441406 C 111.164062 481.546875 110.105469 481.703125 109.050781 481.914062 C 107.996094 482.125 106.953125 482.382812 105.925781 482.695312 C 104.898438 483.007812 103.886719 483.371094 102.894531 483.78125 C 101.902344 484.191406 100.933594 484.652344 99.984375 485.15625 C 99.035156 485.664062 98.117188 486.214844 97.222656 486.8125 C 96.328125 487.410156 95.464844 488.050781 94.636719 488.730469 C 93.804688 489.414062 93.011719 490.132812 92.25 490.894531 C 91.492188 491.652344 90.769531 492.449219 90.089844 493.277344 C 89.40625 494.109375 88.765625 494.972656 88.171875 495.867188 C 87.574219 496.757812 87.019531 497.679688 86.515625 498.628906 C 86.007812 499.574219 85.550781 500.546875 85.136719 501.539062 C 84.726562 502.53125 84.363281 503.542969 84.054688 504.570312 C 83.742188 505.597656 83.480469 506.640625 83.269531 507.691406 C 83.0625 508.746094 82.902344 509.808594 82.796875 510.878906 C 82.691406 511.945312 82.640625 513.019531 82.640625 514.09375 C 82.640625 515.167969 82.691406 516.242188 82.796875 517.308594 C 82.902344 518.378906 83.0625 519.441406 83.269531 520.496094 C 83.480469 521.546875 83.742188 522.589844 84.054688 523.617188 C 84.363281 524.644531 84.726562 525.65625 85.136719 526.648438 C 85.550781 527.640625 86.007812 528.613281 86.515625 529.558594 C 87.019531 530.507812 87.574219 531.429688 88.171875 532.320312 C 88.765625 533.214844 89.40625 534.078125 90.089844 534.910156 C 90.769531 535.738281 91.492188 536.535156 92.25 537.292969 C 93.011719 538.054688 93.804688 538.773438 94.636719 539.457031 C 95.464844 540.136719 96.328125 540.777344 97.222656 541.375 C 98.117188 541.972656 99.035156 542.523438 99.984375 543.03125 C 100.933594 543.535156 101.902344 543.996094 102.894531 544.40625 C 103.886719 544.816406 104.898438 545.179688 105.925781 545.492188 C 106.953125 545.804688 107.996094 546.0625 109.050781 546.273438 C 110.105469 546.484375 111.164062 546.640625 112.234375 546.746094 C 113.304688 546.851562 114.375 546.902344 115.449219 546.902344 C 116.523438 546.902344 117.597656 546.851562 118.667969 546.746094 C 119.734375 546.640625 120.796875 546.484375 121.851562 546.273438 C 122.90625 546.0625 123.945312 545.804688 124.976562 545.492188 C 126.003906 545.179688 127.015625 544.816406 128.007812 544.40625 C 129 543.996094 129.96875 543.535156 130.917969 543.03125 C 131.863281 542.523438 132.785156 541.972656 133.679688 541.375 C 134.574219 540.777344 135.433594 540.136719 136.265625 539.457031 C 137.097656 538.773438 137.890625 538.054688 138.652344 537.292969 C 139.410156 536.535156 140.132812 535.738281 140.8125 534.90625 C 141.496094 534.078125 142.132812 533.214844 142.730469 532.320312 C 143.328125 531.429688 143.878906 530.507812 144.386719 529.558594 C 144.894531 528.613281 145.351562 527.640625 145.761719 526.648438 C 146.175781 525.65625 146.535156 524.644531 146.847656 523.617188 C 147.160156 522.589844 147.421875 521.546875 147.628906 520.496094 C 147.839844 519.441406 147.996094 518.378906 148.101562 517.308594 C 148.207031 516.242188 148.261719 515.167969 148.261719 514.09375 C 148.261719 513.019531 148.207031 511.945312 148.101562 510.878906 C 147.996094 509.808594 147.839844 508.746094 147.628906 507.691406 C 147.421875 506.640625 147.160156 505.597656 146.847656 504.570312 C 146.535156 503.542969 146.175781 502.53125 145.761719 501.539062 C 145.351562 500.546875 144.894531 499.574219 144.386719 498.628906 C 143.878906 497.679688 143.328125 496.757812 142.730469 495.867188 C 142.132812 494.972656 141.496094 494.109375 140.8125 493.277344 C 140.132812 492.449219 139.410156 491.652344 138.652344 490.894531 C 137.890625 490.132812 137.097656 489.414062 136.265625 488.730469 C 135.433594 488.050781 134.574219 487.410156 133.679688 486.8125 C 132.785156 486.214844 131.863281 485.664062 130.917969 485.15625 C 129.96875 484.652344 129 484.191406 128.007812 483.78125 C 127.015625 483.371094 126.003906 483.007812 124.976562 482.695312 C 123.945312 482.382812 122.90625 482.125 121.851562 481.914062 C 120.796875 481.703125 119.734375 481.546875 118.667969 481.441406 C 117.597656 481.335938 116.523438 481.285156 115.449219 481.285156 Z M 115.449219 481.285156 " fill-opacity="1" fill-rule="nonzero"/><path fill="#ee3e54" d="M 199.117188 696.191406 C 198.09375 696.191406 197.078125 696.289062 196.074219 696.488281 C 195.074219 696.6875 194.097656 696.984375 193.152344 697.375 C 192.207031 697.769531 191.308594 698.246094 190.457031 698.816406 C 189.605469 699.386719 188.820312 700.03125 188.097656 700.753906 C 187.371094 701.476562 186.726562 702.265625 186.15625 703.117188 C 185.589844 703.96875 185.109375 704.863281 184.71875 705.8125 C 184.328125 706.757812 184.03125 707.730469 183.832031 708.734375 C 183.632812 709.738281 183.53125 710.75 183.53125 711.773438 C 183.53125 712.796875 183.632812 713.8125 183.832031 714.816406 C 184.03125 715.820312 184.328125 716.792969 184.71875 717.738281 C 185.109375 718.683594 185.589844 719.582031 186.15625 720.433594 C 186.726562 721.285156 187.371094 722.070312 188.097656 722.792969 C 188.820312 723.519531 189.605469 724.164062 190.457031 724.734375 C 191.308594 725.300781 192.207031 725.78125 193.152344 726.171875 C 194.097656 726.566406 195.074219 726.859375 196.074219 727.058594 C 197.078125 727.257812 198.09375 727.359375 199.117188 727.359375 C 200.140625 727.359375 201.152344 727.257812 202.15625 727.058594 C 203.160156 726.859375 204.136719 726.566406 205.082031 726.171875 C 206.027344 725.78125 206.925781 725.300781 207.773438 724.734375 C 208.625 724.164062 209.414062 723.519531 210.136719 722.792969 C 210.859375 722.070312 211.507812 721.285156 212.074219 720.433594 C 212.644531 719.582031 213.125 718.683594 213.515625 717.738281 C 213.90625 716.792969 214.203125 715.820312 214.402344 714.816406 C 214.601562 713.8125 214.703125 712.796875 214.703125 711.773438 C 214.703125 710.75 214.601562 709.738281 214.402344 708.734375 C 214.203125 707.730469 213.90625 706.757812 213.515625 705.8125 C 213.125 704.863281 212.644531 703.96875 212.074219 703.117188 C 211.507812 702.265625 210.859375 701.476562 210.136719 700.753906 C 209.414062 700.03125 208.625 699.386719 207.773438 698.816406 C 206.925781 698.246094 206.027344 697.769531 205.082031 697.375 C 204.136719 696.984375 203.160156 696.6875 202.15625 696.488281 C 201.152344 696.289062 200.140625 696.191406 199.117188 696.191406 Z M 199.117188 696.191406 " fill-opacity="1" fill-rule="nonzero"/><path fill="#ffffff" d="M 622.367188 227.003906 C 621.398438 227.003906 620.4375 227.101562 619.488281 227.289062 C 618.535156 227.476562 617.613281 227.757812 616.71875 228.128906 C 615.820312 228.5 614.96875 228.953125 614.164062 229.492188 C 613.359375 230.03125 612.613281 230.644531 611.925781 231.328125 C 611.242188 232.015625 610.628906 232.761719 610.089844 233.566406 C 609.550781 234.371094 609.097656 235.222656 608.726562 236.121094 C 608.355469 237.015625 608.074219 237.9375 607.886719 238.890625 C 607.695312 239.839844 607.601562 240.800781 607.601562 241.769531 C 607.601562 242.738281 607.695312 243.699219 607.886719 244.648438 C 608.074219 245.601562 608.355469 246.523438 608.726562 247.417969 C 609.097656 248.316406 609.550781 249.167969 610.089844 249.972656 C 610.628906 250.777344 611.242188 251.523438 611.925781 252.210938 C 612.613281 252.894531 613.359375 253.507812 614.164062 254.046875 C 614.96875 254.585938 615.820312 255.039062 616.71875 255.410156 C 617.613281 255.78125 618.535156 256.0625 619.488281 256.25 C 620.4375 256.441406 621.398438 256.535156 622.367188 256.535156 C 623.335938 256.535156 624.296875 256.441406 625.246094 256.25 C 626.199219 256.0625 627.121094 255.78125 628.015625 255.410156 C 628.914062 255.039062 629.761719 254.585938 630.570312 254.046875 C 631.375 253.507812 632.121094 252.894531 632.808594 252.210938 C 633.492188 251.523438 634.105469 250.777344 634.644531 249.972656 C 635.183594 249.167969 635.636719 248.316406 636.007812 247.417969 C 636.378906 246.523438 636.660156 245.601562 636.847656 244.648438 C 637.035156 243.699219 637.132812 242.738281 637.132812 241.769531 C 637.132812 240.800781 637.035156 239.839844 636.847656 238.890625 C 636.660156 237.9375 636.378906 237.015625 636.007812 236.121094 C 635.636719 235.222656 635.183594 234.371094 634.644531 233.566406 C 634.105469 232.761719 633.492188 232.015625 632.808594 231.328125 C 632.121094 230.644531 631.375 230.03125 630.570312 229.492188 C 629.761719 228.953125 628.914062 228.5 628.015625 228.128906 C 627.121094 227.757812 626.199219 227.476562 625.246094 227.289062 C 624.296875 227.101562 623.335938 227.003906 622.367188 227.003906 Z M 145.800781 393.515625 C 145.128906 393.515625 144.457031 393.550781 143.789062 393.613281 C 143.121094 393.679688 142.457031 393.78125 141.800781 393.910156 C 141.140625 394.042969 140.488281 394.203125 139.847656 394.398438 C 139.203125 394.59375 138.574219 394.820312 137.953125 395.078125 C 137.332031 395.335938 136.726562 395.621094 136.132812 395.9375 C 135.542969 396.253906 134.964844 396.597656 134.40625 396.972656 C 133.847656 397.34375 133.308594 397.746094 132.789062 398.171875 C 132.273438 398.597656 131.773438 399.046875 131.300781 399.523438 C 130.824219 399.996094 130.375 400.496094 129.949219 401.015625 C 129.523438 401.53125 129.121094 402.070312 128.75 402.628906 C 128.375 403.1875 128.03125 403.765625 127.714844 404.355469 C 127.398438 404.949219 127.113281 405.554688 126.855469 406.175781 C 126.597656 406.796875 126.371094 407.425781 126.175781 408.070312 C 125.980469 408.710938 125.820312 409.363281 125.6875 410.023438 C 125.558594 410.679688 125.457031 411.34375 125.390625 412.011719 C 125.328125 412.679688 125.292969 413.351562 125.292969 414.023438 C 125.292969 414.695312 125.328125 415.363281 125.390625 416.03125 C 125.457031 416.703125 125.558594 417.363281 125.6875 418.023438 C 125.820312 418.683594 125.980469 419.332031 126.175781 419.976562 C 126.371094 420.617188 126.597656 421.25 126.855469 421.871094 C 127.113281 422.492188 127.398438 423.097656 127.714844 423.6875 C 128.03125 424.28125 128.375 424.855469 128.75 425.414062 C 129.121094 425.972656 129.523438 426.511719 129.949219 427.03125 C 130.375 427.550781 130.824219 428.046875 131.300781 428.523438 C 131.773438 428.996094 132.273438 429.449219 132.789062 429.875 C 133.308594 430.300781 133.847656 430.699219 134.40625 431.074219 C 134.964844 431.445312 135.542969 431.792969 136.132812 432.109375 C 136.726562 432.425781 137.332031 432.710938 137.953125 432.96875 C 138.574219 433.226562 139.203125 433.449219 139.847656 433.644531 C 140.488281 433.839844 141.140625 434.003906 141.800781 434.136719 C 142.457031 434.265625 143.121094 434.363281 143.789062 434.429688 C 144.457031 434.496094 145.128906 434.527344 145.800781 434.527344 C 146.472656 434.527344 147.140625 434.496094 147.808594 434.429688 C 148.476562 434.363281 149.140625 434.265625 149.800781 434.136719 C 150.460938 434.003906 151.109375 433.839844 151.753906 433.644531 C 152.394531 433.453125 153.027344 433.226562 153.648438 432.96875 C 154.269531 432.710938 154.875 432.425781 155.464844 432.109375 C 156.058594 431.792969 156.632812 431.445312 157.191406 431.074219 C 157.75 430.699219 158.289062 430.300781 158.808594 429.875 C 159.328125 429.449219 159.824219 428.996094 160.300781 428.523438 C 160.773438 428.046875 161.226562 427.550781 161.652344 427.03125 C 162.078125 426.511719 162.476562 425.972656 162.851562 425.414062 C 163.222656 424.855469 163.566406 424.28125 163.886719 423.6875 C 164.203125 423.097656 164.488281 422.492188 164.746094 421.871094 C 165.003906 421.25 165.226562 420.617188 165.421875 419.976562 C 165.617188 419.332031 165.78125 418.683594 165.914062 418.023438 C 166.042969 417.363281 166.140625 416.703125 166.207031 416.03125 C 166.273438 415.363281 166.304688 414.695312 166.304688 414.023438 C 166.304688 413.351562 166.273438 412.679688 166.207031 412.011719 C 166.140625 411.34375 166.042969 410.679688 165.914062 410.023438 C 165.78125 409.363281 165.617188 408.710938 165.421875 408.070312 C 165.226562 407.425781 165.003906 406.796875 164.746094 406.175781 C 164.488281 405.554688 164.203125 404.949219 163.886719 404.355469 C 163.566406 403.765625 163.222656 403.1875 162.851562 402.628906 C 162.476562 402.070312 162.078125 401.53125 161.652344 401.015625 C 161.226562 400.496094 160.773438 399.996094 160.300781 399.523438 C 159.824219 399.046875 159.328125 398.597656 158.808594 398.171875 C 158.289062 397.746094 157.75 397.34375 157.191406 396.972656 C 156.632812 396.597656 156.058594 396.253906 155.464844 395.9375 C 154.875 395.621094 154.269531 395.335938 153.648438 395.078125 C 153.027344 394.820312 152.394531 394.59375 151.753906 394.398438 C 151.109375 394.203125 150.460938 394.042969 149.800781 393.910156 C 149.140625 393.78125 148.476562 393.679688 147.808594 393.613281 C 147.140625 393.550781 146.472656 393.515625 145.800781 393.515625 Z M 145.800781 393.515625 " fill-opacity="1" fill-rule="nonzero"/><path fill="#e5ac80" d="M 559.207031 577.253906 C 555.925781 559.207031 548.542969 549.363281 532.140625 544.441406 L 528.859375 543.621094 L 523.9375 541.980469 C 513.273438 537.882812 452.574219 514.914062 452.574219 514.914062 C 447.652344 514.09375 444.371094 510.8125 442.730469 505.890625 C 441.089844 497.6875 440.269531 490.304688 441.089844 482.105469 C 427.96875 487.023438 414.023438 490.304688 400.078125 493.585938 C 384.492188 495.226562 350.863281 474.722656 350.863281 474.722656 C 350.863281 474.722656 350.042969 499.328125 349.222656 505.070312 C 347.582031 509.992188 343.480469 513.273438 338.558594 514.09375 L 279.5 535.421875 C 272.9375 537.0625 267.199219 539.523438 261.457031 542.800781 C 249.152344 551.003906 240.128906 562.488281 235.207031 577.253906 C 235.207031 577.253906 231.105469 604.320312 231.105469 605.140625 C 231.105469 609.242188 230.285156 613.34375 230.285156 617.445312 C 294.265625 660.917969 345.121094 672.402344 432.886719 669.121094 C 473.082031 667.480469 532.140625 647.796875 563.308594 632.210938 C 561.667969 597.757812 559.207031 577.253906 559.207031 577.253906 Z M 559.207031 577.253906 " fill-opacity="1" fill-rule="nonzero"/><path fill="#8889b9" d="M 529.679688 542.800781 L 527.21875 541.980469 L 522.296875 540.34375 C 515.734375 537.882812 490.304688 528.039062 471.441406 521.476562 L 470.621094 521.476562 C 450.113281 532.140625 420.585938 547.722656 393.515625 547.722656 C 366.449219 547.722656 339.378906 532.960938 316.414062 520.65625 L 313.953125 521.476562 L 277.859375 534.601562 C 271.296875 536.242188 265.558594 538.703125 259.816406 541.980469 C 247.511719 550.183594 238.488281 562.488281 233.566406 576.433594 C 233.566406 576.433594 229.464844 603.5 229.464844 604.320312 C 229.464844 608.421875 228.644531 648.613281 228.644531 653.535156 C 292.625 697.011719 343.480469 708.492188 431.25 705.210938 C 471.441406 703.570312 530.5 683.886719 561.667969 668.300781 C 560.027344 633.03125 557.566406 576.433594 557.566406 576.433594 C 554.285156 558.386719 546.902344 548.542969 529.679688 542.800781 Z M 529.679688 542.800781 " fill-opacity="1" fill-rule="nonzero"/><path fill="#a1a1ca" d="M 459.957031 518.195312 C 459.136719 518.195312 459.136719 518.195312 458.316406 517.375 C 423.046875 554.285156 363.988281 555.925781 327.074219 520.65625 C 326.253906 519.835938 326.253906 519.835938 325.433594 519.015625 C 321.335938 521.476562 317.234375 523.117188 313.132812 523.9375 C 346.761719 560.027344 417.304688 586.277344 468.980469 520.65625 C 466.519531 519.835938 463.238281 518.195312 459.957031 518.195312 Z M 459.957031 518.195312 " fill-opacity="1" fill-rule="evenodd"/><path fill="#6a6c99" d="M 286.882812 689.628906 C 285.242188 689.628906 284.421875 688.808594 284.421875 687.167969 L 284.421875 654.355469 C 284.421875 652.714844 285.242188 651.894531 286.882812 651.894531 C 288.523438 651.894531 289.34375 652.714844 289.34375 654.355469 L 289.34375 687.167969 C 288.523438 688.808594 287.703125 689.628906 286.882812 689.628906 Z M 502.609375 695.371094 C 500.96875 695.371094 500.148438 694.550781 500.148438 692.910156 L 500.148438 655.175781 C 500.148438 653.535156 500.96875 652.714844 502.609375 652.714844 C 504.25 652.714844 505.070312 653.535156 505.070312 655.175781 L 505.070312 692.910156 C 505.070312 694.550781 503.429688 695.371094 502.609375 695.371094 Z M 502.609375 695.371094 " fill-opacity="1" fill-rule="nonzero"/><path fill="#edbc94" d="M 496.046875 361.527344 L 492.765625 361.527344 C 484.566406 361.527344 482.925781 363.988281 482.925781 359.066406 C 483.746094 350.863281 482.105469 315.59375 482.105469 313.953125 C 482.105469 277.859375 443.550781 248.332031 395.976562 246.691406 L 394.335938 246.691406 C 346.761719 248.332031 309.03125 277.859375 309.03125 313.953125 C 309.03125 315.59375 307.390625 350.863281 308.210938 359.066406 C 308.210938 363.988281 306.570312 360.707031 298.367188 361.527344 L 295.085938 361.527344 C 286.882812 361.527344 280.320312 366.449219 277.859375 374.652344 C 278.679688 375.472656 282.78125 405 289.34375 416.484375 C 292.625 423.046875 298.367188 423.867188 304.109375 427.96875 C 306.570312 429.609375 308.210938 432.886719 309.03125 436.167969 C 313.132812 449.292969 320.515625 459.957031 331.175781 468.980469 C 336.097656 473.902344 368.089844 507.53125 395.976562 505.890625 C 423.867188 504.25 455.855469 473.902344 460.777344 468.980469 C 470.621094 459.957031 478.824219 449.292969 482.925781 436.167969 C 483.746094 432.886719 485.386719 429.609375 487.84375 427.96875 C 493.585938 423.867188 499.328125 423.046875 502.609375 416.484375 C 509.171875 405 513.273438 375.472656 514.09375 374.652344 C 510.8125 366.449219 503.429688 361.527344 496.046875 361.527344 Z M 496.046875 361.527344 " fill-opacity="1" fill-rule="nonzero"/><path fill="#512c2b" d="M 395.976562 425.507812 C 401.71875 425.507812 406.640625 423.046875 410.742188 418.945312 C 410.742188 418.945312 410.742188 418.125 410.742188 417.304688 C 410.742188 417.304688 409.921875 417.304688 409.101562 417.304688 C 405.820312 420.585938 400.898438 423.046875 395.976562 422.226562 C 391.054688 422.226562 386.132812 420.585938 382.851562 417.304688 C 382.851562 417.304688 382.03125 417.304688 382.03125 417.304688 C 382.03125 417.304688 382.03125 417.304688 381.210938 417.304688 C 381.210938 417.304688 381.210938 418.125 381.210938 418.945312 C 385.3125 423.046875 390.234375 425.507812 395.976562 425.507812 Z M 377.929688 341.839844 L 381.210938 335.277344 C 365.628906 331.996094 350.042969 331.996094 334.457031 336.917969 L 338.558594 343.480469 C 352.503906 339.378906 365.628906 338.558594 377.929688 341.839844 Z M 453.394531 341.839844 L 456.675781 335.277344 C 441.089844 331.996094 425.507812 331.996094 409.921875 336.917969 L 414.023438 343.480469 C 427.148438 339.378906 441.089844 338.558594 453.394531 341.839844 Z M 356.605469 351.683594 C 353.324219 351.683594 350.042969 354.144531 348.402344 357.425781 C 349.222656 357.425781 349.222656 357.425781 350.042969 357.425781 C 353.324219 357.425781 355.785156 359.886719 355.785156 363.167969 C 355.785156 366.449219 353.324219 368.910156 350.042969 368.910156 C 349.222656 368.910156 348.402344 368.910156 347.582031 368.089844 C 348.402344 373.011719 352.503906 377.113281 357.425781 377.933594 C 364.808594 376.292969 368.910156 368.910156 367.269531 361.527344 C 365.628906 356.605469 361.527344 353.324219 356.605469 351.683594 Z M 435.347656 351.683594 C 432.066406 351.683594 429.609375 353.324219 427.96875 355.785156 C 428.789062 355.785156 429.609375 355.785156 429.609375 355.785156 C 432.886719 355.785156 435.347656 358.246094 435.347656 361.527344 C 435.347656 364.808594 432.886719 367.269531 429.609375 367.269531 C 427.96875 367.269531 426.328125 366.449219 425.507812 364.808594 C 427.148438 370.550781 432.886719 373.832031 438.628906 372.191406 C 444.371094 370.550781 447.652344 364.808594 446.011719 359.066406 C 444.371094 354.964844 440.269531 351.683594 435.347656 351.683594 Z M 435.347656 351.683594 " fill-opacity="1" fill-rule="nonzero"/><path fill="#472b29" d="M 405 710.953125 C 331.996094 710.953125 285.242188 696.191406 228.644531 658.457031 C 227.824219 657.636719 227.003906 656.816406 227.003906 655.175781 C 227.003906 654.355469 227.003906 651.894531 227.003906 647.792969 C 227.003906 629.75 227.824219 592.019531 231.925781 577.253906 C 235.207031 561.667969 245.050781 548.542969 259.816406 541.160156 C 265.558594 537.882812 272.117188 535.421875 278.679688 533.78125 L 336.917969 512.453125 C 341.019531 511.632812 344.300781 509.171875 345.121094 505.070312 C 345.121094 502.609375 345.941406 495.226562 345.941406 487.84375 C 340.199219 483.746094 333.636719 478.824219 328.714844 474.722656 C 318.054688 464.878906 309.851562 452.574219 305.75 439.449219 C 305.75 436.167969 304.109375 433.707031 302.46875 432.066406 C 300.828125 430.429688 299.1875 429.609375 297.546875 428.789062 C 293.445312 426.328125 290.164062 424.6875 286.882812 418.945312 C 280.320312 405 276.21875 390.234375 275.398438 374.652344 C 275.398438 374.652344 275.398438 373.832031 275.398438 373.832031 C 277.859375 364.808594 286.0625 358.246094 295.90625 358.246094 L 299.1875 358.246094 C 301.648438 358.246094 304.109375 358.246094 305.75 359.066406 C 304.929688 350.863281 305.75 327.894531 306.570312 318.054688 C 306.570312 315.59375 306.570312 313.953125 306.570312 313.953125 C 306.570312 275.398438 345.941406 243.410156 395.976562 241.769531 L 397.617188 241.769531 C 447.652344 243.410156 487.023438 275.398438 487.023438 313.953125 C 487.023438 313.953125 487.023438 315.59375 487.023438 318.054688 C 487.023438 327.894531 487.84375 351.683594 487.84375 359.066406 C 489.484375 359.066406 491.125 358.246094 494.40625 358.246094 L 497.6875 358.246094 C 507.53125 358.246094 515.734375 364.808594 518.195312 373.832031 C 518.195312 373.832031 518.195312 374.652344 518.195312 374.652344 C 516.554688 390.234375 512.453125 405 505.890625 418.945312 C 502.609375 424.6875 499.328125 426.328125 495.226562 428.789062 C 493.585938 429.609375 491.945312 430.429688 490.304688 432.066406 C 488.664062 433.707031 487.023438 436.167969 487.023438 438.628906 C 482.925781 453.394531 474.722656 465.699219 464.058594 474.722656 C 458.316406 479.644531 451.753906 484.566406 445.191406 489.484375 C 445.191406 495.226562 446.011719 500.148438 447.652344 505.890625 C 449.292969 509.171875 451.753906 511.632812 455.855469 512.453125 C 458.316406 513.273438 517.375 535.421875 527.21875 539.523438 L 534.601562 542.800781 C 551.003906 547.722656 560.027344 558.386719 564.128906 578.074219 C 564.128906 578.074219 564.128906 578.074219 564.128906 578.894531 C 564.128906 578.894531 566.589844 635.492188 568.230469 670.761719 C 568.230469 672.402344 567.410156 673.222656 566.589844 674.042969 C 533.78125 690.449219 473.902344 710.132812 434.527344 711.773438 C 423.046875 710.953125 414.023438 710.953125 405 710.953125 Z M 233.566406 654.355469 C 294.265625 695.371094 345.121094 707.671875 432.886719 704.390625 C 469.800781 702.75 527.21875 684.707031 560.027344 668.300781 C 558.386719 634.671875 555.925781 582.996094 555.925781 578.894531 C 552.644531 561.667969 545.261719 553.464844 530.5 548.542969 L 522.296875 545.261719 C 512.453125 541.160156 451.753906 519.015625 450.933594 518.195312 C 446.011719 516.554688 441.089844 512.453125 438.628906 507.53125 C 436.167969 500.96875 436.167969 493.585938 436.167969 487.023438 C 436.167969 486.203125 436.988281 485.386719 437.808594 484.566406 C 444.371094 479.644531 450.933594 474.722656 457.496094 469.800781 C 467.339844 460.777344 474.722656 450.113281 478.824219 436.988281 C 478.824219 433.707031 481.285156 429.609375 484.566406 427.148438 C 487.023438 425.507812 488.664062 424.6875 490.304688 423.046875 C 493.585938 421.40625 496.046875 419.765625 498.507812 415.664062 C 504.25 402.539062 508.351562 388.59375 509.992188 374.652344 C 508.351562 368.910156 502.609375 364.808594 496.046875 364.808594 L 492.765625 364.808594 C 490.304688 364.808594 488.664062 364.808594 487.023438 365.628906 C 484.566406 365.628906 482.925781 366.449219 481.285156 364.808594 C 479.644531 363.167969 479.644531 360.707031 479.644531 359.066406 C 480.464844 352.503906 479.644531 327.074219 478.824219 317.234375 C 478.824219 314.773438 478.824219 313.132812 478.824219 313.132812 C 478.824219 277.859375 442.730469 249.152344 395.976562 247.511719 L 394.335938 247.511719 C 348.402344 249.152344 311.492188 277.859375 311.492188 313.132812 C 311.492188 313.132812 311.492188 314.773438 311.492188 317.234375 C 311.492188 327.074219 310.671875 351.683594 310.671875 359.066406 C 310.671875 361.527344 310.671875 363.167969 309.03125 363.988281 C 307.390625 365.628906 305.75 364.808594 303.289062 364.808594 C 301.648438 364.808594 300.007812 363.988281 297.546875 363.988281 L 294.265625 363.988281 C 287.703125 363.988281 282.78125 368.089844 280.320312 373.832031 C 281.960938 387.773438 285.242188 401.71875 290.984375 414.84375 C 292.625 418.125 295.90625 419.765625 299.1875 421.40625 C 300.828125 422.226562 303.289062 423.867188 304.929688 425.507812 C 308.210938 427.96875 310.671875 432.066406 310.671875 436.167969 C 314.773438 448.472656 321.335938 459.136719 331.175781 468.160156 C 336.917969 473.082031 343.480469 478.003906 349.222656 482.105469 C 350.042969 482.925781 350.863281 483.746094 350.863281 484.566406 C 350.863281 492.765625 350.042969 501.789062 349.222656 505.070312 C 346.761719 511.632812 341.839844 515.734375 336.097656 517.375 L 277.859375 538.703125 C 271.296875 540.339844 265.558594 542.800781 260.636719 546.082031 C 247.511719 552.644531 239.308594 564.128906 236.027344 578.074219 C 231.925781 592.019531 231.925781 630.570312 231.105469 646.976562 C 233.566406 651.074219 233.566406 652.714844 233.566406 654.355469 Z M 233.566406 654.355469 " fill-opacity="1" fill-rule="nonzero"/><path fill="#d3a47d" d="M 496.046875 400.078125 L 491.125 399.257812 L 492.765625 384.492188 L 484.566406 387.773438 L 482.925781 382.851562 L 495.226562 377.933594 C 496.046875 377.933594 496.867188 377.933594 497.6875 377.933594 C 498.507812 378.75 498.507812 379.570312 498.507812 380.390625 Z M 297.546875 396.796875 L 295.085938 377.933594 C 295.085938 377.113281 295.085938 376.292969 295.90625 375.472656 C 296.726562 374.652344 297.546875 374.652344 298.367188 375.472656 L 310.671875 380.390625 L 309.03125 385.3125 L 300.828125 382.03125 L 302.46875 396.796875 Z M 297.546875 396.796875 " fill-opacity="1" fill-rule="nonzero"/><path fill="#472b29" d="M 308.210938 433.707031 C 307.390625 433.707031 306.570312 432.886719 306.570312 432.066406 L 308.210938 360.707031 C 308.210938 359.886719 309.03125 359.066406 309.851562 359.066406 C 310.671875 359.066406 311.492188 359.886719 311.492188 360.707031 L 309.851562 432.066406 C 309.851562 432.886719 309.03125 433.707031 308.210938 433.707031 Z M 483.746094 433.707031 C 482.925781 433.707031 482.105469 432.886719 482.105469 432.066406 L 480.464844 360.707031 C 480.464844 359.886719 481.285156 359.066406 482.105469 359.066406 C 482.925781 359.066406 483.746094 359.886719 483.746094 360.707031 L 485.386719 432.066406 C 485.386719 432.886719 484.566406 433.707031 483.746094 433.707031 Z M 449.292969 478.003906 C 434.527344 487.84375 406.640625 493.585938 401.71875 484.566406 C 397.617188 478.003906 391.875 478.003906 388.59375 484.566406 C 382.851562 494.40625 353.324219 484.566406 337.738281 473.082031 C 333.636719 473.082031 337.738281 474.722656 334.457031 477.183594 C 354.144531 494.40625 393.515625 517.375 395.15625 516.554688 C 414.84375 506.710938 433.707031 494.40625 451.753906 480.464844 C 447.652344 478.003906 454.214844 478.003906 449.292969 478.003906 Z M 449.292969 478.003906 " fill-opacity="1" fill-rule="nonzero"/><path fill="#ee3e54" d="M 384.492188 352.503906 C 368.089844 338.558594 306.570312 348.402344 306.570312 348.402344 C 307.390625 351.683594 309.03125 354.964844 309.851562 358.246094 C 313.953125 358.246094 314.773438 365.628906 314.773438 368.910156 C 317.234375 382.03125 329.535156 391.054688 354.964844 391.054688 C 380.390625 391.054688 386.132812 377.113281 387.773438 368.910156 C 388.59375 362.347656 387.773438 356.605469 384.492188 352.503906 Z M 382.03125 368.089844 C 380.390625 379.570312 370.550781 386.132812 354.964844 386.953125 L 350.042969 386.953125 C 324.613281 386.953125 320.515625 371.371094 319.695312 360.707031 C 319.695312 354.964844 325.433594 350.042969 333.636719 349.222656 C 338.558594 349.222656 343.480469 349.222656 350.042969 349.222656 C 368.910156 349.222656 377.113281 352.503906 379.570312 354.964844 C 381.210938 359.066406 382.851562 363.988281 382.03125 368.089844 Z M 402.539062 367.269531 C 403.359375 375.472656 409.921875 388.59375 435.347656 389.414062 C 460.777344 390.234375 473.082031 380.390625 475.542969 367.269531 C 475.542969 364.808594 476.363281 357.425781 480.464844 356.605469 C 481.285156 353.324219 482.105469 350.042969 483.746094 346.761719 C 483.746094 346.761719 422.226562 336.917969 405.820312 350.863281 C 403.359375 356.605469 401.71875 362.347656 402.539062 367.269531 Z M 412.382812 355.785156 C 414.84375 353.324219 423.046875 350.042969 441.910156 350.042969 C 447.652344 350.042969 453.394531 350.042969 458.316406 350.042969 C 466.519531 350.863281 472.261719 355.785156 472.261719 361.527344 C 471.441406 371.371094 467.339844 387.773438 441.910156 387.773438 L 436.988281 387.773438 C 420.585938 386.953125 410.742188 380.390625 409.921875 368.910156 C 408.28125 363.167969 409.921875 359.066406 412.382812 355.785156 Z M 412.382812 355.785156 " fill-opacity="1" fill-rule="nonzero"/><path fill="#ee3e54" d="M 406.640625 363.167969 C 403.359375 361.527344 399.257812 360.707031 395.15625 360.707031 C 391.875 360.707031 387.773438 361.527344 384.492188 363.167969 L 381.210938 356.605469 L 409.921875 356.605469 Z M 406.640625 363.167969 " fill-opacity="1" fill-rule="nonzero"/><path fill="#6d1b18" d="M 367.269531 445.191406 C 367.269531 446.832031 366.449219 447.652344 366.449219 449.292969 C 366.449219 460.777344 378.75 469.800781 394.335938 469.800781 C 409.921875 469.800781 422.226562 460.777344 422.226562 449.292969 C 422.226562 447.652344 422.226562 446.832031 422.226562 445.191406 Z M 367.269531 445.191406 " fill-opacity="1" fill-rule="nonzero"/><path fill="#ee3e54" d="M 409.921875 466.519531 C 400.898438 459.957031 388.59375 459.957031 380.390625 466.519531 C 390.234375 470.621094 400.898438 470.621094 409.921875 466.519531 Z M 409.921875 466.519531 " fill-opacity="1" fill-rule="nonzero"/><path fill="#fdfcef" d="M 375.472656 445.191406 L 375.472656 448.472656 C 375.472656 451.753906 379.570312 454.214844 384.492188 454.214844 L 405.820312 454.214844 C 410.742188 454.214844 414.84375 451.753906 414.84375 448.472656 L 414.84375 445.191406 Z M 375.472656 445.191406 " fill-opacity="1" fill-rule="nonzero"/><path fill="#472b29" d="M 395.15625 471.441406 C 378.75 471.441406 365.628906 461.597656 365.628906 449.292969 C 365.628906 447.652344 365.628906 446.011719 366.449219 445.191406 C 366.449219 444.371094 367.269531 444.371094 368.089844 444.371094 L 423.046875 444.371094 C 423.867188 444.371094 424.6875 445.191406 424.6875 446.011719 C 424.6875 447.652344 425.507812 448.472656 425.507812 450.113281 C 425.507812 461.597656 411.5625 471.441406 395.15625 471.441406 Z M 368.910156 446.832031 C 368.910156 447.652344 368.910156 448.472656 368.910156 449.292969 C 368.910156 459.957031 380.390625 468.160156 395.15625 468.160156 C 409.921875 468.160156 421.40625 459.957031 421.40625 449.292969 C 421.40625 448.472656 421.40625 447.652344 421.40625 446.832031 Z M 496.867188 239.308594 C 496.046875 235.207031 491.125 235.207031 486.203125 236.027344 C 470.621094 236.847656 467.339844 231.925781 435.347656 215.523438 C 408.28125 200.757812 376.292969 202.398438 350.863281 219.621094 C 252.433594 240.128906 309.851562 359.886719 309.851562 359.886719 C 309.851562 359.886719 309.851562 296.726562 340.199219 277.039062 C 391.054688 308.210938 439.449219 312.3125 468.980469 293.445312 C 480.464844 317.234375 480.464844 359.886719 480.464844 359.886719 C 494.40625 334.457031 497.6875 304.109375 489.484375 275.398438 C 485.386719 264.738281 498.507812 253.253906 496.867188 239.308594 Z M 496.867188 239.308594 " fill-opacity="1" fill-rule="nonzero"/><path fill="#fdfcee" d="M 575.613281 473.082031 C 573.679688 473.082031 571.746094 473.128906 569.816406 473.222656 C 567.886719 473.316406 565.957031 473.460938 564.035156 473.648438 C 562.113281 473.839844 560.195312 474.074219 558.28125 474.359375 C 556.371094 474.644531 554.464844 474.972656 552.570312 475.351562 C 550.671875 475.726562 548.789062 476.152344 546.914062 476.621094 C 545.039062 477.089844 543.175781 477.605469 541.324219 478.167969 C 539.476562 478.726562 537.640625 479.335938 535.820312 479.984375 C 534 480.636719 532.199219 481.332031 530.410156 482.070312 C 528.625 482.8125 526.859375 483.59375 525.109375 484.421875 C 523.363281 485.246094 521.636719 486.117188 519.933594 487.027344 C 518.226562 487.9375 516.546875 488.890625 514.886719 489.886719 C 513.230469 490.878906 511.597656 491.914062 509.992188 492.988281 C 508.382812 494.0625 506.804688 495.175781 505.25 496.324219 C 503.699219 497.476562 502.175781 498.664062 500.679688 499.890625 C 499.1875 501.117188 497.722656 502.378906 496.289062 503.679688 C 494.859375 504.976562 493.457031 506.308594 492.089844 507.675781 C 490.726562 509.042969 489.390625 510.441406 488.09375 511.875 C 486.796875 513.308594 485.535156 514.769531 484.308594 516.265625 C 483.082031 517.757812 481.890625 519.28125 480.742188 520.835938 C 479.589844 522.386719 478.476562 523.96875 477.402344 525.574219 C 476.328125 527.183594 475.292969 528.816406 474.300781 530.472656 C 473.308594 532.132812 472.355469 533.8125 471.441406 535.519531 C 470.53125 537.222656 469.664062 538.949219 468.835938 540.695312 C 468.011719 542.445312 467.226562 544.210938 466.488281 545.996094 C 465.746094 547.78125 465.050781 549.585938 464.402344 551.40625 C 463.75 553.226562 463.144531 555.058594 462.582031 556.910156 C 462.019531 558.761719 461.503906 560.621094 461.035156 562.496094 C 460.566406 564.371094 460.144531 566.257812 459.765625 568.152344 C 459.386719 570.050781 459.058594 571.953125 458.773438 573.867188 C 458.492188 575.777344 458.253906 577.695312 458.066406 579.621094 C 457.875 581.542969 457.734375 583.472656 457.636719 585.402344 C 457.542969 587.332031 457.496094 589.265625 457.496094 591.199219 C 457.496094 593.128906 457.542969 595.0625 457.636719 596.992188 C 457.734375 598.925781 457.875 600.851562 458.066406 602.773438 C 458.253906 604.699219 458.492188 606.617188 458.773438 608.527344 C 459.058594 610.441406 459.386719 612.34375 459.765625 614.242188 C 460.144531 616.136719 460.566406 618.023438 461.035156 619.898438 C 461.503906 621.773438 462.019531 623.636719 462.582031 625.484375 C 463.144531 627.335938 463.75 629.167969 464.402344 630.988281 C 465.050781 632.808594 465.746094 634.613281 466.488281 636.398438 C 467.226562 638.183594 468.011719 639.953125 468.835938 641.699219 C 469.664062 643.445312 470.53125 645.171875 471.441406 646.878906 C 472.355469 648.582031 473.308594 650.261719 474.300781 651.921875 C 475.292969 653.578125 476.328125 655.210938 477.402344 656.820312 C 478.476562 658.425781 479.589844 660.007812 480.742188 661.558594 C 481.890625 663.113281 483.082031 664.636719 484.308594 666.128906 C 485.535156 667.625 486.796875 669.085938 488.09375 670.519531 C 489.390625 671.953125 490.726562 673.351562 492.089844 674.71875 C 493.457031 676.085938 494.859375 677.417969 496.289062 678.714844 C 497.722656 680.015625 499.1875 681.277344 500.679688 682.503906 C 502.175781 683.730469 503.699219 684.917969 505.25 686.070312 C 506.804688 687.222656 508.382812 688.332031 509.992188 689.40625 C 511.597656 690.480469 513.230469 691.515625 514.886719 692.507812 C 516.546875 693.503906 518.226562 694.457031 519.933594 695.367188 C 521.636719 696.277344 523.363281 697.148438 525.109375 697.972656 C 526.859375 698.800781 528.625 699.582031 530.410156 700.324219 C 532.199219 701.0625 534 701.757812 535.820312 702.410156 C 537.640625 703.058594 539.476562 703.667969 541.324219 704.226562 C 543.175781 704.789062 545.039062 705.304688 546.914062 705.773438 C 548.789062 706.242188 550.671875 706.667969 552.570312 707.042969 C 554.464844 707.421875 556.371094 707.75 558.28125 708.035156 C 560.195312 708.320312 562.113281 708.554688 564.035156 708.746094 C 565.957031 708.933594 567.886719 709.078125 569.816406 709.171875 C 571.746094 709.265625 573.679688 709.3125 575.613281 709.3125 C 577.546875 709.3125 579.476562 709.265625 581.410156 709.171875 C 583.339844 709.078125 585.265625 708.933594 587.191406 708.746094 C 589.113281 708.554688 591.03125 708.320312 592.945312 708.035156 C 594.855469 707.75 596.761719 707.421875 598.65625 707.042969 C 600.550781 706.667969 602.4375 706.242188 604.3125 705.773438 C 606.1875 705.304688 608.050781 704.789062 609.898438 704.226562 C 611.75 703.667969 613.585938 703.058594 615.40625 702.410156 C 617.226562 701.757812 619.027344 701.0625 620.8125 700.324219 C 622.601562 699.582031 624.367188 698.800781 626.113281 697.972656 C 627.859375 697.148438 629.585938 696.277344 631.292969 695.367188 C 632.996094 694.457031 634.679688 693.503906 636.335938 692.507812 C 637.996094 691.515625 639.628906 690.480469 641.234375 689.40625 C 642.84375 688.332031 644.421875 687.222656 645.972656 686.070312 C 647.527344 684.917969 649.050781 683.730469 650.542969 682.503906 C 652.039062 681.277344 653.503906 680.015625 654.933594 678.714844 C 656.367188 677.417969 657.765625 676.085938 659.132812 674.71875 C 660.5 673.351562 661.832031 671.953125 663.132812 670.519531 C 664.429688 669.085938 665.691406 667.625 666.917969 666.128906 C 668.144531 664.636719 669.332031 663.113281 670.484375 661.558594 C 671.636719 660.007812 672.75 658.425781 673.824219 656.820312 C 674.898438 655.210938 675.929688 653.578125 676.925781 651.921875 C 677.917969 650.261719 678.871094 648.582031 679.78125 646.878906 C 680.691406 645.171875 681.5625 643.445312 682.386719 641.699219 C 683.214844 639.953125 684 638.183594 684.738281 636.398438 C 685.476562 634.613281 686.171875 632.808594 686.824219 630.988281 C 687.476562 629.167969 688.082031 627.335938 688.644531 625.484375 C 689.203125 623.636719 689.71875 621.773438 690.1875 619.898438 C 690.660156 618.023438 691.082031 616.136719 691.460938 614.242188 C 691.835938 612.34375 692.167969 610.441406 692.449219 608.527344 C 692.734375 606.617188 692.972656 604.699219 693.160156 602.773438 C 693.351562 600.851562 693.492188 598.925781 693.585938 596.992188 C 693.683594 595.0625 693.730469 593.128906 693.730469 591.199219 C 693.730469 589.265625 693.683594 587.332031 693.585938 585.402344 C 693.492188 583.472656 693.351562 581.542969 693.160156 579.621094 C 692.972656 577.695312 692.734375 575.777344 692.449219 573.867188 C 692.167969 571.953125 691.835938 570.050781 691.460938 568.152344 C 691.082031 566.257812 690.660156 564.371094 690.1875 562.496094 C 689.71875 560.621094 689.203125 558.761719 688.644531 556.910156 C 688.082031 555.058594 687.476562 553.226562 686.824219 551.40625 C 686.171875 549.585938 685.476562 547.78125 684.738281 545.996094 C 684 544.210938 683.214844 542.445312 682.386719 540.695312 C 681.5625 538.949219 680.691406 537.222656 679.78125 535.519531 C 678.871094 533.8125 677.917969 532.132812 676.925781 530.472656 C 675.929688 528.816406 674.898438 527.183594 673.824219 525.574219 C 672.75 523.96875 671.636719 522.386719 670.484375 520.835938 C 669.332031 519.28125 668.144531 517.757812 666.917969 516.265625 C 665.691406 514.769531 664.429688 513.308594 663.132812 511.875 C 661.832031 510.441406 660.5 509.042969 659.132812 507.675781 C 657.765625 506.308594 656.367188 504.976562 654.933594 503.679688 C 653.503906 502.378906 652.039062 501.117188 650.542969 499.890625 C 649.050781 498.664062 647.527344 497.476562 645.972656 496.324219 C 644.421875 495.175781 642.84375 494.0625 641.234375 492.988281 C 639.628906 491.914062 637.996094 490.878906 636.335938 489.886719 C 634.679688 488.890625 632.996094 487.9375 631.292969 487.027344 C 629.585938 486.117188 627.859375 485.246094 626.113281 484.421875 C 624.367188 483.59375 622.601562 482.8125 620.8125 482.070312 C 619.027344 481.332031 617.226562 480.636719 615.40625 479.984375 C 613.585938 479.335938 611.75 478.726562 609.898438 478.167969 C 608.050781 477.605469 606.1875 477.089844 604.3125 476.621094 C 602.4375 476.152344 600.550781 475.726562 598.65625 475.351562 C 596.761719 474.972656 594.855469 474.644531 592.945312 474.359375 C 591.03125 474.074219 589.113281 473.839844 587.191406 473.648438 C 585.265625 473.460938 583.339844 473.316406 581.410156 473.222656 C 579.476562 473.128906 577.546875 473.082031 575.613281 473.082031 Z M 575.613281 473.082031 " fill-opacity="1" fill-rule="nonzero"/><path fill="#472b29" d="M 575.613281 712.59375 C 508.351562 712.59375 454.214844 658.457031 454.214844 591.199219 C 454.214844 523.9375 508.351562 469.800781 575.613281 469.800781 C 642.875 469.800781 697.011719 523.9375 697.011719 591.199219 C 697.011719 657.636719 642.875 712.59375 575.613281 712.59375 Z M 575.613281 475.542969 C 511.632812 475.542969 459.957031 527.21875 459.957031 591.199219 C 459.957031 655.175781 511.632812 706.851562 575.613281 706.851562 C 639.59375 706.851562 691.269531 655.175781 691.269531 591.199219 C 691.269531 527.21875 638.773438 475.542969 575.613281 475.542969 Z M 575.613281 475.542969 " fill-opacity="1" fill-rule="nonzero"/><path fill="#93bc39" d="M 575.613281 493.585938 C 574.015625 493.585938 572.417969 493.625 570.824219 493.703125 C 569.226562 493.785156 567.636719 493.902344 566.046875 494.058594 C 564.457031 494.214844 562.871094 494.410156 561.289062 494.644531 C 559.710938 494.878906 558.136719 495.152344 556.570312 495.464844 C 555.003906 495.773438 553.445312 496.125 551.894531 496.511719 C 550.34375 496.902344 548.804688 497.328125 547.277344 497.789062 C 545.75 498.253906 544.234375 498.753906 542.730469 499.292969 C 541.222656 499.832031 539.734375 500.40625 538.257812 501.015625 C 536.78125 501.628906 535.324219 502.277344 533.878906 502.957031 C 532.433594 503.640625 531.007812 504.359375 529.597656 505.113281 C 528.191406 505.867188 526.800781 506.652344 525.429688 507.472656 C 524.0625 508.296875 522.710938 509.148438 521.382812 510.039062 C 520.054688 510.925781 518.75 511.84375 517.464844 512.796875 C 516.183594 513.746094 514.925781 514.730469 513.6875 515.742188 C 512.453125 516.757812 511.246094 517.800781 510.0625 518.875 C 508.878906 519.945312 507.722656 521.046875 506.59375 522.175781 C 505.460938 523.304688 504.359375 524.460938 503.289062 525.644531 C 502.214844 526.832031 501.171875 528.039062 500.160156 529.273438 C 499.144531 530.507812 498.164062 531.769531 497.210938 533.050781 C 496.261719 534.335938 495.339844 535.640625 494.453125 536.96875 C 493.566406 538.296875 492.710938 539.644531 491.890625 541.015625 C 491.066406 542.386719 490.28125 543.777344 489.527344 545.183594 C 488.773438 546.59375 488.058594 548.019531 487.375 549.464844 C 486.691406 550.90625 486.042969 552.367188 485.433594 553.84375 C 484.820312 555.320312 484.246094 556.808594 483.707031 558.3125 C 483.171875 559.816406 482.667969 561.332031 482.207031 562.863281 C 481.742188 564.390625 481.316406 565.929688 480.925781 567.480469 C 480.539062 569.03125 480.191406 570.585938 479.878906 572.15625 C 479.566406 573.722656 479.292969 575.292969 479.058594 576.875 C 478.824219 578.457031 478.628906 580.039062 478.472656 581.628906 C 478.316406 583.21875 478.199219 584.8125 478.121094 586.40625 C 478.042969 588.003906 478.003906 589.601562 478.003906 591.199219 C 478.003906 592.796875 478.042969 594.390625 478.121094 595.988281 C 478.199219 597.582031 478.316406 599.175781 478.472656 600.765625 C 478.628906 602.355469 478.824219 603.941406 479.058594 605.519531 C 479.292969 607.101562 479.566406 608.671875 479.878906 610.238281 C 480.191406 611.808594 480.539062 613.363281 480.929688 614.914062 C 481.316406 616.464844 481.742188 618.003906 482.207031 619.53125 C 482.667969 621.0625 483.171875 622.578125 483.707031 624.082031 C 484.246094 625.585938 484.820312 627.074219 485.433594 628.550781 C 486.042969 630.027344 486.691406 631.488281 487.375 632.929688 C 488.058594 634.375 488.773438 635.800781 489.527344 637.210938 C 490.28125 638.621094 491.066406 640.007812 491.890625 641.378906 C 492.710938 642.75 493.566406 644.097656 494.453125 645.425781 C 495.339844 646.753906 496.261719 648.0625 497.210938 649.34375 C 498.164062 650.625 499.144531 651.886719 500.160156 653.121094 C 501.171875 654.355469 502.214844 655.566406 503.289062 656.75 C 504.359375 657.933594 505.460938 659.089844 506.59375 660.21875 C 507.722656 661.347656 508.878906 662.449219 510.0625 663.523438 C 511.246094 664.59375 512.453125 665.636719 513.6875 666.652344 C 514.925781 667.664062 516.183594 668.648438 517.464844 669.597656 C 518.75 670.550781 520.054688 671.46875 521.382812 672.355469 C 522.710938 673.246094 524.0625 674.097656 525.429688 674.921875 C 526.800781 675.742188 528.191406 676.527344 529.597656 677.28125 C 531.007812 678.035156 532.433594 678.753906 533.878906 679.4375 C 535.324219 680.117188 536.78125 680.765625 538.257812 681.378906 C 539.734375 681.988281 541.222656 682.5625 542.730469 683.101562 C 544.234375 683.640625 545.75 684.140625 547.277344 684.605469 C 548.804688 685.066406 550.347656 685.492188 551.894531 685.882812 C 553.445312 686.269531 555.003906 686.621094 556.570312 686.933594 C 558.136719 687.242188 559.710938 687.515625 561.289062 687.75 C 562.871094 687.984375 564.457031 688.179688 566.046875 688.335938 C 567.636719 688.492188 569.226562 688.613281 570.824219 688.691406 C 572.417969 688.769531 574.015625 688.808594 575.613281 688.808594 C 577.210938 688.808594 578.804688 688.769531 580.402344 688.691406 C 581.996094 688.613281 583.589844 688.492188 585.179688 688.335938 C 586.769531 688.179688 588.355469 687.984375 589.933594 687.75 C 591.515625 687.515625 593.089844 687.242188 594.65625 686.933594 C 596.222656 686.621094 597.78125 686.269531 599.328125 685.882812 C 600.878906 685.492188 602.417969 685.066406 603.949219 684.605469 C 605.476562 684.140625 606.992188 683.640625 608.496094 683.101562 C 610 682.5625 611.492188 681.988281 612.964844 681.378906 C 614.441406 680.765625 615.902344 680.117188 617.347656 679.4375 C 618.789062 678.753906 620.21875 678.035156 621.625 677.28125 C 623.035156 676.527344 624.425781 675.742188 625.792969 674.921875 C 627.164062 674.097656 628.511719 673.246094 629.84375 672.355469 C 631.171875 671.46875 632.476562 670.550781 633.757812 669.597656 C 635.042969 668.648438 636.300781 667.664062 637.535156 666.652344 C 638.769531 665.636719 639.980469 664.59375 641.164062 663.523438 C 642.347656 662.449219 643.503906 661.347656 644.632812 660.21875 C 645.761719 659.089844 646.863281 657.933594 647.9375 656.75 C 649.007812 655.566406 650.054688 654.355469 651.066406 653.121094 C 652.078125 651.886719 653.0625 650.625 654.015625 649.34375 C 654.964844 648.0625 655.886719 646.753906 656.773438 645.425781 C 657.660156 644.097656 658.515625 642.75 659.335938 641.378906 C 660.15625 640.007812 660.945312 638.621094 661.695312 637.210938 C 662.449219 635.800781 663.167969 634.375 663.851562 632.929688 C 664.535156 631.488281 665.179688 630.027344 665.792969 628.550781 C 666.402344 627.074219 666.980469 625.585938 667.515625 624.082031 C 668.054688 622.578125 668.554688 621.0625 669.019531 619.53125 C 669.484375 618.003906 669.910156 616.464844 670.296875 614.914062 C 670.6875 613.363281 671.035156 611.808594 671.347656 610.238281 C 671.660156 608.671875 671.933594 607.101562 672.167969 605.519531 C 672.402344 603.941406 672.597656 602.355469 672.753906 600.765625 C 672.910156 599.175781 673.027344 597.582031 673.105469 595.988281 C 673.183594 594.390625 673.222656 592.796875 673.222656 591.199219 C 673.222656 589.601562 673.183594 588.003906 673.105469 586.40625 C 673.027344 584.8125 672.910156 583.21875 672.753906 581.628906 C 672.597656 580.039062 672.402344 578.457031 672.167969 576.875 C 671.933594 575.292969 671.660156 573.722656 671.347656 572.15625 C 671.035156 570.585938 670.6875 569.03125 670.296875 567.480469 C 669.910156 565.929688 669.484375 564.390625 669.019531 562.863281 C 668.554688 561.335938 668.054688 559.816406 667.515625 558.3125 C 666.980469 556.808594 666.402344 555.320312 665.792969 553.84375 C 665.179688 552.367188 664.535156 550.90625 663.851562 549.464844 C 663.167969 548.019531 662.449219 546.59375 661.695312 545.183594 C 660.945312 543.777344 660.15625 542.386719 659.335938 541.015625 C 658.515625 539.644531 657.660156 538.296875 656.773438 536.96875 C 655.886719 535.640625 654.964844 534.335938 654.015625 533.050781 C 653.0625 531.769531 652.078125 530.507812 651.066406 529.273438 C 650.054688 528.039062 649.007812 526.832031 647.9375 525.644531 C 646.863281 524.460938 645.761719 523.304688 644.632812 522.175781 C 643.503906 521.046875 642.347656 519.945312 641.164062 518.875 C 639.980469 517.800781 638.769531 516.757812 637.535156 515.742188 C 636.300781 514.730469 635.042969 513.746094 633.757812 512.796875 C 632.476562 511.84375 631.171875 510.925781 629.84375 510.039062 C 628.511719 509.148438 627.164062 508.296875 625.792969 507.472656 C 624.425781 506.652344 623.035156 505.867188 621.625 505.113281 C 620.21875 504.359375 618.789062 503.640625 617.347656 502.957031 C 615.902344 502.277344 614.441406 501.628906 612.964844 501.015625 C 611.492188 500.40625 610 499.832031 608.496094 499.292969 C 606.992188 498.753906 605.476562 498.253906 603.949219 497.789062 C 602.417969 497.328125 600.878906 496.902344 599.328125 496.511719 C 597.78125 496.125 596.222656 495.773438 594.65625 495.460938 C 593.089844 495.152344 591.515625 494.878906 589.933594 494.644531 C 588.355469 494.410156 586.769531 494.214844 585.179688 494.058594 C 583.589844 493.902344 581.996094 493.785156 580.402344 493.703125 C 578.804688 493.625 577.210938 493.585938 575.613281 493.585938 Z M 575.613281 493.585938 " fill-opacity="1" fill-rule="nonzero"/><path fill="#472b29" d="M 575.613281 691.269531 C 520.65625 691.269531 475.542969 646.15625 475.542969 591.199219 C 475.542969 536.242188 520.65625 491.125 575.613281 491.125 C 630.570312 491.125 675.683594 536.242188 675.683594 591.199219 C 675.683594 646.15625 630.570312 691.269531 575.613281 691.269531 Z M 575.613281 495.226562 C 523.117188 495.226562 479.644531 537.882812 479.644531 591.199219 C 479.644531 644.515625 522.296875 687.167969 575.613281 687.167969 C 628.929688 687.167969 671.582031 644.515625 671.582031 591.199219 C 671.582031 537.882812 628.109375 495.226562 575.613281 495.226562 Z M 575.613281 495.226562 " fill-opacity="1" fill-rule="nonzero"/><path fill="#c0d078" d="M 575.613281 507.53125 C 617.445312 507.53125 655.175781 533.78125 669.941406 573.152344 C 660.097656 520.65625 609.242188 487.023438 557.566406 496.867188 C 519.015625 504.25 488.664062 534.601562 481.285156 573.152344 C 496.046875 533.78125 532.960938 507.53125 575.613281 507.53125 Z M 575.613281 507.53125 " fill-opacity="0.7882" fill-rule="nonzero"/><path fill="#fdfcee" d="M 561.667969 638.773438 C 559.207031 638.773438 557.566406 637.953125 555.925781 636.3125 L 524.757812 604.320312 C 521.476562 601.039062 521.476562 596.117188 524.757812 592.839844 C 526.398438 591.199219 528.039062 590.378906 530.5 590.378906 C 532.960938 590.378906 534.601562 591.199219 536.242188 592.839844 L 560.847656 619.085938 L 613.34375 560.847656 C 614.984375 559.207031 617.445312 558.386719 619.085938 558.386719 C 624.007812 558.386719 627.289062 561.667969 627.289062 566.589844 C 627.289062 569.050781 626.46875 570.691406 624.828125 572.332031 L 566.589844 637.132812 C 565.769531 637.953125 563.308594 639.59375 561.667969 638.773438 Z M 561.667969 638.773438 " fill-opacity="1" fill-rule="nonzero"/><path fill="#472b29" d="M 619.90625 560.847656 C 622.367188 560.847656 624.828125 563.308594 624.828125 566.589844 C 624.828125 567.410156 624.828125 568.230469 624.007812 569.050781 L 565.769531 633.851562 C 564.949219 634.671875 563.308594 635.492188 562.488281 635.492188 C 560.847656 635.492188 560.027344 634.671875 559.207031 633.851562 L 528.039062 601.859375 C 526.398438 600.21875 526.398438 596.9375 528.039062 594.476562 C 529.679688 592.839844 532.960938 592.839844 535.421875 594.476562 L 562.488281 622.367188 L 617.445312 561.667969 C 617.445312 561.667969 619.085938 560.847656 619.90625 560.847656 M 619.90625 554.285156 C 616.625 554.285156 614.164062 555.925781 611.703125 557.566406 L 560.847656 613.34375 L 537.882812 589.558594 C 533.78125 585.457031 526.398438 585.457031 521.476562 589.558594 C 517.375 593.660156 517.375 600.21875 521.476562 605.140625 L 552.644531 637.132812 C 556.746094 642.054688 564.128906 642.054688 569.050781 637.132812 L 627.289062 572.332031 C 631.390625 568.230469 631.390625 560.847656 627.289062 556.746094 C 627.289062 556.746094 627.289062 556.746094 626.46875 555.925781 C 624.828125 555.105469 622.367188 554.285156 619.90625 554.285156 Z M 619.90625 554.285156 " fill-opacity="1" fill-rule="nonzero"/></svg>