<svg xmlns="http://www.w3.org/2000/svg" width="1080" viewBox="0 0 810 810" height="1080" version="1.0"><path fill="#fff" d="M-81-81h972v972H-81z"/><path fill="#fff" d="M-81-81h972v972H-81z"/><path fill="#fff" d="M-81-81h972v972H-81z"/><path fill="#fff" d="M167.125 450.934a7.38 7.38 0 0 0-1.438.14 7.445 7.445 0 0 0-3.781 2.023 7.426 7.426 0 0 0-1.602 2.395 7.425 7.425 0 0 0-.417 4.266c.093.472.234.937.418 1.383a7.426 7.426 0 0 0 1.601 2.394 7.39 7.39 0 0 0 5.219 2.164 7.45 7.45 0 0 0 1.441-.14 7.783 7.783 0 0 0 1.387-.422 7.268 7.268 0 0 0 1.274-.684 7.431 7.431 0 0 0 2.04-2.035c.268-.402.495-.828.678-1.277.188-.446.328-.91.422-1.383a7.45 7.45 0 0 0 0-2.883 7.153 7.153 0 0 0-.422-1.383 7.148 7.148 0 0 0-.68-1.277 7.431 7.431 0 0 0-.917-1.117 7.232 7.232 0 0 0-1.121-.918c-.403-.27-.829-.5-1.274-.684a7.783 7.783 0 0 0-1.387-.422 7.45 7.45 0 0 0-1.441-.14zm483.95-202.602a5.642 5.642 0 0 0-2.196.438c-.348.144-.68.32-.992.53a5.63 5.63 0 0 0-1.586 1.583 5.903 5.903 0 0 0-.531.992 6.02 6.02 0 0 0-.325 1.078c-.074.371-.11.742-.11 1.121a5.71 5.71 0 0 0 .966 3.188 5.696 5.696 0 0 0 1.586 1.586 5.633 5.633 0 0 0 2.07.855 5.646 5.646 0 0 0 2.238 0 5.633 5.633 0 0 0 2.07-.855 5.696 5.696 0 0 0 2.113-2.578c.145-.348.255-.707.329-1.075a5.71 5.71 0 0 0 .11-1.12 5.681 5.681 0 0 0-.438-2.2 5.884 5.884 0 0 0-.527-.992 5.63 5.63 0 0 0-1.586-1.582 5.728 5.728 0 0 0-3.191-.969zm0 0"/><path fill="#f1bc19" d="M629.75 90.023a7.45 7.45 0 0 0-1.441.141 7.071 7.071 0 0 0-1.383.422c-.45.184-.875.41-1.278.68-.402.27-.777.578-1.12.918-.34.343-.65.718-.919 1.12a7.518 7.518 0 0 0-.68 1.274 7.19 7.19 0 0 0-.421 1.387 7.45 7.45 0 0 0 0 2.879 7.553 7.553 0 0 0 1.102 2.664c.269.402.578.773.917 1.117a7.42 7.42 0 0 0 5.223 2.164 7.454 7.454 0 0 0 2.824-.562 7.426 7.426 0 0 0 2.395-1.602 7.39 7.39 0 0 0 1.601-2.395c.184-.449.325-.91.418-1.386.098-.473.145-.953.145-1.438a7.16 7.16 0 0 0-.145-1.441 7.463 7.463 0 0 0-.418-1.387 7.537 7.537 0 0 0-1.601-2.394 7.632 7.632 0 0 0-1.117-.918 7.148 7.148 0 0 0-1.278-.68 7.237 7.237 0 0 0-2.824-.563zm-458.523 423.25a7.38 7.38 0 0 0-4.102 1.243c-.402.27-.773.578-1.117.922a7.426 7.426 0 0 0-1.602 2.395 7.454 7.454 0 0 0-.563 2.824 7.454 7.454 0 0 0 .563 2.823 7.426 7.426 0 0 0 1.602 2.395 7.39 7.39 0 0 0 2.394 1.602c.45.183.91.324 1.387.418.473.097.953.144 1.438.144a7.16 7.16 0 0 0 1.441-.144 7.463 7.463 0 0 0 1.387-.418 7.537 7.537 0 0 0 2.394-1.602c.34-.344.649-.715.918-1.117.27-.403.496-.828.68-1.278a7.237 7.237 0 0 0 .562-2.824 7.45 7.45 0 0 0-.14-1.441 7.071 7.071 0 0 0-.422-1.383 7.148 7.148 0 0 0-.68-1.277 7.431 7.431 0 0 0-2.039-2.04 7.475 7.475 0 0 0-2.66-1.102 7.45 7.45 0 0 0-1.441-.14zm0 0"/><path fill="#e4e4f9" d="M407.46 96.586c-5.019 0-10.038.121-15.054.367a306.51 306.51 0 0 0-29.957 2.953 301.77 301.77 0 0 0-14.836 2.574 303.365 303.365 0 0 0-14.691 3.297 310.28 310.28 0 0 0-14.512 4.016 305.975 305.975 0 0 0-14.297 4.727 305.646 305.646 0 0 0-27.816 11.52 304.69 304.69 0 0 0-13.45 6.769 307.196 307.196 0 0 0-50.004 33.41 310.176 310.176 0 0 0-11.398 9.836 304.017 304.017 0 0 0-10.906 10.382 304.017 304.017 0 0 0-10.383 10.907 306.457 306.457 0 0 0-9.836 11.398 308.11 308.11 0 0 0-17.933 24.184 307.195 307.195 0 0 0-15.477 25.82 306.387 306.387 0 0 0-12.871 27.215 305.703 305.703 0 0 0-10.144 28.348 310.28 310.28 0 0 0-4.016 14.511 304.411 304.411 0 0 0-3.297 14.692c-.98 4.922-1.84 9.867-2.574 14.836a306.31 306.31 0 0 0-2.953 29.96 306.911 306.911 0 0 0-.368 15.051c0 5.02.122 10.04.368 15.055a306.51 306.51 0 0 0 2.953 29.957 301.772 301.772 0 0 0 2.574 14.836 305.558 305.558 0 0 0 7.313 29.203 305.924 305.924 0 0 0 10.144 28.348 306.387 306.387 0 0 0 20.293 40.316 307.195 307.195 0 0 0 25.988 36.903 306.457 306.457 0 0 0 9.836 11.398 304.017 304.017 0 0 0 10.383 10.906c3.55 3.551 7.184 7.012 10.906 10.383a306.457 306.457 0 0 0 11.399 9.836 308.11 308.11 0 0 0 24.183 17.934 307.196 307.196 0 0 0 25.82 15.476 306.386 306.386 0 0 0 27.215 12.871 305.702 305.702 0 0 0 28.348 10.145 310.28 310.28 0 0 0 14.512 4.015 303.365 303.365 0 0 0 14.691 3.297c4.922.98 9.867 1.84 14.836 2.574a306.51 306.51 0 0 0 29.957 2.953 307.19 307.19 0 0 0 15.055.368c5.02 0 10.039-.121 15.05-.367a306.31 306.31 0 0 0 29.962-2.953 301.77 301.77 0 0 0 14.836-2.575A304.41 304.41 0 0 0 482 700.941a305.926 305.926 0 0 0 42.86-14.16 306.385 306.385 0 0 0 40.316-20.293 307.196 307.196 0 0 0 36.902-25.988 306.457 306.457 0 0 0 11.399-9.836 304.015 304.015 0 0 0 10.906-10.383c3.55-3.55 7.012-7.183 10.383-10.906a310.175 310.175 0 0 0 9.836-11.398 308.11 308.11 0 0 0 17.933-24.184 307.196 307.196 0 0 0 15.477-25.82 306.384 306.384 0 0 0 18.29-41.266 305.975 305.975 0 0 0 4.725-14.297 310.28 310.28 0 0 0 4.016-14.512 303.366 303.366 0 0 0 3.297-14.691 301.77 301.77 0 0 0 2.574-14.836 306.51 306.51 0 0 0 2.953-29.957 307.19 307.19 0 0 0 .367-15.055c0-5.02-.12-10.039-.367-15.05a306.31 306.31 0 0 0-2.953-29.961 301.77 301.77 0 0 0-2.574-14.836 304.411 304.411 0 0 0-3.297-14.692 310.28 310.28 0 0 0-4.016-14.511 305.975 305.975 0 0 0-4.726-14.297 305.643 305.643 0 0 0-11.52-27.817 304.69 304.69 0 0 0-6.77-13.449 307.196 307.196 0 0 0-33.41-50.004 310.175 310.175 0 0 0-9.835-11.398 304.016 304.016 0 0 0-10.383-10.906 304.015 304.015 0 0 0-10.906-10.383 310.176 310.176 0 0 0-11.399-9.836 308.11 308.11 0 0 0-24.183-17.934 307.196 307.196 0 0 0-25.82-15.476 306.385 306.385 0 0 0-41.266-18.29 305.975 305.975 0 0 0-14.297-4.726A310.28 310.28 0 0 0 482 105.777a304.41 304.41 0 0 0-14.691-3.297 301.77 301.77 0 0 0-14.836-2.574 306.31 306.31 0 0 0-29.96-2.953 306.911 306.911 0 0 0-15.052-.367zm0 0"/><path fill="#f1bc19" d="M674.043 82.64a32.82 32.82 0 0 0-6.402.63 31.765 31.765 0 0 0-3.125.78 32.622 32.622 0 0 0-8.707 4.114 33.592 33.592 0 0 0-2.59 1.918 32.938 32.938 0 0 0-2.387 2.164 32.878 32.878 0 0 0-2.164 2.383c-.68.832-1.32 1.695-1.918 2.59a33.007 33.007 0 0 0-3.035 5.672c-.41.992-.774 2.004-1.086 3.03a34.46 34.46 0 0 0-.781 3.126 32.483 32.483 0 0 0-.63 6.402 32.762 32.762 0 0 0 .63 6.406c.21 1.051.472 2.094.78 3.122.313 1.03.677 2.039 1.087 3.035a32.886 32.886 0 0 0 9.504 12.809c.832.679 1.695 1.32 2.59 1.917.89.594 1.812 1.149 2.761 1.653.95.507 1.918.964 2.91 1.379.997.41 2.008.77 3.036 1.082 1.027.312 2.07.574 3.125.78a32.58 32.58 0 0 0 6.402.63 32.82 32.82 0 0 0 6.402-.63 32.908 32.908 0 0 0 6.16-1.862 33.541 33.541 0 0 0 5.672-3.032 33.592 33.592 0 0 0 2.59-1.918 32.937 32.937 0 0 0 6.469-7.136 32.886 32.886 0 0 0 4.121-8.707c.309-1.028.57-2.07.781-3.122.211-1.054.367-2.117.473-3.187.105-1.07.156-2.14.16-3.219a34.001 34.001 0 0 0-.16-3.215 32.483 32.483 0 0 0-.473-3.187 34.459 34.459 0 0 0-.781-3.125 33.316 33.316 0 0 0-1.086-3.031 33.007 33.007 0 0 0-4.953-8.262 32.879 32.879 0 0 0-2.164-2.383 32.938 32.938 0 0 0-2.387-2.164 33.593 33.593 0 0 0-2.59-1.918 32.27 32.27 0 0 0-2.761-1.656 32.622 32.622 0 0 0-5.945-2.457 31.765 31.765 0 0 0-3.126-.781 32.58 32.58 0 0 0-6.402-.63zm0 0"/><path fill="#ee3e54" d="M706.852 174.508a15.568 15.568 0 0 0-5.961 1.187c-.946.39-1.844.871-2.696 1.442a15.406 15.406 0 0 0-2.363 1.937 15.803 15.803 0 0 0-1.937 2.36 15.943 15.943 0 0 0-1.442 2.695 15.602 15.602 0 0 0 0 11.93c.395.945.875 1.843 1.442 2.695.57.848 1.214 1.637 1.937 2.36a15.406 15.406 0 0 0 2.363 1.937 15.563 15.563 0 0 0 11.7 2.328 15.563 15.563 0 0 0 5.617-2.328 15.596 15.596 0 0 0 4.3-4.297 15.65 15.65 0 0 0 2.625-8.66c0-1.024-.097-2.035-.3-3.04a15.65 15.65 0 0 0-2.324-5.621 15.596 15.596 0 0 0-6.996-5.738 15.563 15.563 0 0 0-5.965-1.187zm0 0"/><path fill="#fbcd59" d="M633.852 604.32a15.643 15.643 0 0 0-8.676 2.617 15.406 15.406 0 0 0-2.364 1.938 15.456 15.456 0 0 0-3.386 5.059 15.608 15.608 0 0 0-.89 9.016c.198 1.007.495 1.98.89 2.929a15.456 15.456 0 0 0 3.387 5.059 15.455 15.455 0 0 0 5.066 3.375 15.643 15.643 0 0 0 5.973 1.18c1.023 0 2.039-.098 3.043-.298a15.343 15.343 0 0 0 2.93-.883 15.627 15.627 0 0 0 5.066-3.375 15.688 15.688 0 0 0 3.387-5.059 15.64 15.64 0 0 0 0-11.944 15.688 15.688 0 0 0-3.387-5.059 15.627 15.627 0 0 0-5.067-3.375c-.949-.39-1.922-.688-2.93-.883-1.003-.199-2.019-.297-3.042-.297zM115.449 481.285a32.741 32.741 0 0 0-18.226 5.527 32.787 32.787 0 0 0-10.707 11.817 32.15 32.15 0 0 0-2.46 5.941 33.15 33.15 0 0 0-.786 3.121 32.682 32.682 0 0 0-.629 6.402 32.682 32.682 0 0 0 .629 6.403 33.15 33.15 0 0 0 1.867 6.152 33.007 33.007 0 0 0 4.953 8.262 32.825 32.825 0 0 0 22.144 11.836c1.07.106 2.141.156 3.215.156a32.82 32.82 0 0 0 6.403-.629 33.208 33.208 0 0 0 3.125-.78 33.316 33.316 0 0 0 5.941-2.462 33.526 33.526 0 0 0 2.762-1.656 32.938 32.938 0 0 0 4.973-4.082 32.085 32.085 0 0 0 2.16-2.387 31.841 31.841 0 0 0 1.917-2.586 32.27 32.27 0 0 0 1.657-2.761 31.9 31.9 0 0 0 1.375-2.91c.414-.993.773-2.004 1.086-3.032.312-1.027.574-2.07.78-3.12a32.685 32.685 0 0 0 .633-6.402c0-1.075-.054-2.15-.16-3.216a32.483 32.483 0 0 0-.472-3.188 31.969 31.969 0 0 0-.781-3.12 32.178 32.178 0 0 0-1.086-3.032 31.9 31.9 0 0 0-1.375-2.91 32.27 32.27 0 0 0-1.657-2.762 32.6 32.6 0 0 0-6.464-7.137 33.526 33.526 0 0 0-2.586-1.918 33.526 33.526 0 0 0-2.762-1.656 33.316 33.316 0 0 0-5.941-2.46 33.208 33.208 0 0 0-6.309-1.255 32.82 32.82 0 0 0-3.219-.156zm0 0"/><path fill="#ee3e54" d="M199.117 696.191c-1.023 0-2.039.098-3.043.297-1 .2-1.976.496-2.922.887a15.607 15.607 0 0 0-8.434 8.438 15.563 15.563 0 0 0-.886 9.003 15.65 15.65 0 0 0 2.324 5.617 15.4 15.4 0 0 0 1.942 2.36 15.4 15.4 0 0 0 5.054 3.379 15.608 15.608 0 0 0 5.965 1.188c1.024 0 2.035-.102 3.04-.301 1.003-.2 1.98-.493 2.925-.887a15.473 15.473 0 0 0 5.055-3.379 15.376 15.376 0 0 0 1.937-2.36 15.563 15.563 0 0 0 2.328-11.7 15.563 15.563 0 0 0-2.328-5.616 15.406 15.406 0 0 0-1.937-2.363 15.638 15.638 0 0 0-7.98-4.266 15.564 15.564 0 0 0-3.04-.297zm0 0"/><path fill="#fff" d="M622.367 227.004a14.834 14.834 0 0 0-5.648 1.125c-.899.371-1.75.824-2.555 1.363-.805.54-1.55 1.153-2.238 1.836a15.048 15.048 0 0 0-1.836 2.238c-.54.805-.992 1.657-1.363 2.555a14.525 14.525 0 0 0-.84 2.77c-.192.949-.285 1.91-.285 2.879 0 .968.093 1.93.285 2.878.187.954.468 1.875.84 2.77.37.898.824 1.75 1.363 2.555.539.804 1.152 1.55 1.836 2.238a15.048 15.048 0 0 0 2.238 1.836c.805.539 1.656.992 2.555 1.363.894.371 1.816.653 2.77.84.948.191 1.91.285 2.878.285.969 0 1.93-.094 2.88-.285a14.525 14.525 0 0 0 2.769-.84 14.709 14.709 0 0 0 4.793-3.2 15.048 15.048 0 0 0 1.836-2.237c.539-.805.992-1.657 1.363-2.555a14.834 14.834 0 0 0 1.125-5.648 14.834 14.834 0 0 0-1.125-5.649 14.569 14.569 0 0 0-1.363-2.555 15.048 15.048 0 0 0-1.836-2.238 14.709 14.709 0 0 0-4.793-3.2 14.834 14.834 0 0 0-5.648-1.125zM145.801 393.516c-.672 0-1.344.035-2.012.097a20.68 20.68 0 0 0-3.941.785 20.902 20.902 0 0 0-3.715 1.54 20.38 20.38 0 0 0-3.344 2.234c-.516.426-1.016.875-1.488 1.351-.477.473-.926.973-1.352 1.493a20.38 20.38 0 0 0-3.094 5.16 20.245 20.245 0 0 0-1.168 3.847c-.128.657-.23 1.32-.296 1.989-.063.668-.098 1.34-.098 2.011 0 .672.035 1.34.098 2.008.066.672.168 1.332.296 1.992.133.66.293 1.309.489 1.954a20.653 20.653 0 0 0 2.574 5.437 20.335 20.335 0 0 0 2.55 3.11 21.2 21.2 0 0 0 1.49 1.351c.519.426 1.058.824 1.616 1.2.559.37 1.137.718 1.727 1.034a20.22 20.22 0 0 0 3.715 1.535c.64.196 1.293.36 1.953.493a20.34 20.34 0 0 0 4 .39c.672 0 1.34-.03 2.008-.097a21.475 21.475 0 0 0 1.992-.293 21.003 21.003 0 0 0 3.847-1.168 20.304 20.304 0 0 0 3.543-1.895 21.105 21.105 0 0 0 1.618-1.199 21.26 21.26 0 0 0 1.492-1.352 21.26 21.26 0 0 0 1.351-1.492c.426-.52.825-1.058 1.2-1.617a20.304 20.304 0 0 0 2.57-5.438c.195-.644.36-1.292.492-1.953.129-.66.227-1.32.293-1.992.066-.668.098-1.336.098-2.008a20.34 20.34 0 0 0-.883-5.953 20.22 20.22 0 0 0-1.535-3.715 20.3 20.3 0 0 0-2.234-3.34 20.419 20.419 0 0 0-4.462-4.042 20.305 20.305 0 0 0-3.543-1.895 20.653 20.653 0 0 0-1.894-.68 20.983 20.983 0 0 0-3.945-.785 21.523 21.523 0 0 0-2.008-.097zm0 0"/><path fill="#e5ac80" d="M559.207 577.254c-3.281-18.047-10.664-27.89-27.066-32.813l-3.282-.82-4.922-1.64c-10.664-4.098-71.363-27.067-71.363-27.067-4.922-.82-8.203-4.101-9.844-9.023-1.64-8.204-2.46-15.586-1.64-23.786-13.121 4.918-27.067 8.2-41.012 11.48-15.586 1.642-49.215-18.862-49.215-18.862s-.82 24.605-1.64 30.347c-1.641 4.922-5.743 8.203-10.664 9.024L279.5 535.422c-6.563 1.64-12.3 4.101-18.043 7.379-12.305 8.203-21.328 19.687-26.25 34.453 0 0-4.102 27.066-4.102 27.887 0 4.101-.82 8.203-.82 12.304 63.98 43.473 114.836 54.957 202.602 51.676 40.195-1.64 99.254-21.324 130.422-36.91-1.641-34.453-4.102-54.957-4.102-54.957zm0 0"/><path fill="#8889b9" d="m529.68 542.8-2.461-.82-4.922-1.636c-6.563-2.461-31.992-12.305-50.856-18.867h-.82c-20.508 10.664-50.035 26.246-77.105 26.246-27.067 0-54.137-14.762-77.102-27.067l-2.46.82-36.095 13.126c-6.562 1.64-12.3 4.101-18.043 7.378-12.304 8.204-21.328 20.508-26.25 34.454 0 0-4.101 27.066-4.101 27.886 0 4.102-.82 44.293-.82 49.215 63.98 43.477 114.835 54.957 202.605 51.676 40.191-1.64 99.25-21.324 130.418-36.91-1.64-35.27-4.102-91.867-4.102-91.867-3.28-18.047-10.664-27.891-27.886-33.633zm0 0"/><path fill="#a1a1ca" d="M459.957 518.195c-.82 0-.82 0-1.64-.82-35.27 36.91-94.329 38.55-131.243 3.281l-1.64-1.64c-4.098 2.46-8.2 4.101-12.301 4.922 33.629 36.09 104.172 62.34 155.847-3.282-2.46-.82-5.742-2.46-9.023-2.46zm0 0" fill-rule="evenodd"/><path fill="#6a6c99" d="M286.883 689.629c-1.64 0-2.461-.82-2.461-2.461v-32.813c0-1.64.82-2.46 2.46-2.46 1.641 0 2.462.82 2.462 2.46v32.813c-.82 1.64-1.64 2.46-2.461 2.46zm215.726 5.742c-1.64 0-2.46-.82-2.46-2.46v-37.735c0-1.64.82-2.461 2.46-2.461 1.641 0 2.461.82 2.461 2.46v37.735c0 1.64-1.64 2.461-2.46 2.461zm0 0"/><path fill="#edbc94" d="M496.047 361.527h-3.281c-8.2 0-9.84 2.461-9.84-2.46.82-8.204-.82-43.473-.82-45.114 0-36.094-38.555-65.621-86.13-67.262h-1.64c-47.574 1.641-85.305 31.168-85.305 67.262 0 1.64-1.64 36.91-.82 45.113 0 4.922-1.64 1.641-9.844 2.461h-3.281c-8.203 0-14.766 4.922-17.227 13.125.82.82 4.922 30.348 11.485 41.832 3.281 6.563 9.023 7.383 14.765 11.485 2.461 1.64 4.102 4.918 4.922 8.199 4.102 13.125 11.485 23.789 22.145 32.812 4.922 4.922 36.914 38.551 64.8 36.91 27.891-1.64 59.88-31.988 64.801-36.91 9.844-9.023 18.047-19.687 22.149-32.812.82-3.281 2.46-6.559 4.918-8.2 5.742-4.1 11.484-4.921 14.765-11.484 6.563-11.484 10.664-41.011 11.485-41.832-3.282-8.203-10.664-13.125-18.047-13.125zm0 0"/><path fill="#512c2b" d="M395.977 425.508c5.742 0 10.664-2.461 14.765-6.563v-1.64h-1.64c-3.282 3.28-8.204 5.742-13.125 4.922-4.922 0-9.844-1.641-13.125-4.922h-1.641v1.64c4.101 4.102 9.023 6.563 14.766 6.563zM377.93 341.84l3.28-6.563c-15.581-3.28-31.167-3.28-46.753 1.641l4.102 6.562c13.945-4.101 27.07-4.921 39.37-1.64zm75.465 0 3.28-6.563c-15.585-3.28-31.167-3.28-46.753 1.641l4.101 6.562c13.125-4.101 27.067-4.921 39.372-1.64zm-96.79 9.844c-3.28 0-6.562 2.46-8.203 5.742h1.641c3.281 0 5.742 2.46 5.742 5.742 0 3.281-2.46 5.742-5.742 5.742-.82 0-1.64 0-2.461-.82.82 4.922 4.922 9.023 9.844 9.844 7.383-1.641 11.484-9.024 9.844-16.407-1.641-4.922-5.743-8.203-10.665-9.843zm78.743 0c-3.282 0-5.739 1.64-7.38 4.101h1.641c3.278 0 5.739 2.461 5.739 5.742 0 3.282-2.461 5.743-5.739 5.743-1.64 0-3.28-.82-4.101-2.461 1.64 5.742 7.379 9.023 13.12 7.382 5.743-1.64 9.024-7.382 7.384-13.125-1.64-4.101-5.742-7.382-10.664-7.382zm0 0"/><path fill="#472b29" d="M405 710.953c-73.004 0-119.758-14.762-176.355-52.496-.82-.82-1.641-1.64-1.641-3.281v-7.383c0-18.043.82-55.773 4.922-70.54 3.281-15.585 13.125-28.71 27.89-36.093 5.743-3.277 12.301-5.738 18.864-7.379l58.238-21.328c4.102-.82 7.383-3.281 8.203-7.383 0-2.46.82-9.843.82-17.226-5.742-4.098-12.304-9.02-17.226-13.121-10.66-9.844-18.863-22.149-22.965-35.274 0-3.281-1.64-5.742-3.281-7.383-1.64-1.636-3.281-2.457-4.922-3.277-4.102-2.46-7.383-4.101-10.664-9.844-6.563-13.945-10.664-28.71-11.485-44.293v-.82c2.461-9.023 10.664-15.586 20.508-15.586h3.281c2.461 0 4.922 0 6.563.82-.82-8.203 0-31.171.82-41.011v-4.102c0-38.555 39.371-70.543 89.407-72.183h1.64c50.035 1.64 89.406 33.628 89.406 72.183v4.102c0 9.84.82 33.629.82 41.011 1.641 0 3.282-.82 6.563-.82h3.281c9.844 0 18.047 6.563 20.508 15.586v.82c-1.64 15.582-5.742 30.348-12.304 44.293-3.282 5.743-6.563 7.383-10.664 9.844-1.641.82-3.282 1.64-4.922 3.277-1.64 1.641-3.282 4.102-3.282 6.563-4.097 14.766-12.3 27.07-22.964 36.094-5.743 4.922-12.305 9.843-18.868 14.761 0 5.743.82 10.664 2.461 16.407 1.641 3.28 4.102 5.742 8.203 6.562 2.461.82 61.52 22.969 71.364 27.07l7.383 3.278c16.402 4.922 25.425 15.586 29.527 35.273v.82s2.46 56.598 4.101 91.868c0 1.64-.82 2.46-1.64 3.281-32.809 16.406-92.688 36.09-132.063 37.73-11.48-.82-20.504-.82-29.527-.82zm-171.434-56.598c60.7 41.016 111.555 53.317 199.32 50.036 36.915-1.641 94.333-19.684 127.141-36.09-1.64-33.63-4.101-85.305-4.101-89.406-3.281-17.227-10.664-25.43-25.426-30.352l-8.203-3.281c-9.844-4.102-70.543-26.246-71.363-27.067-4.922-1.64-9.844-5.742-12.305-10.664-2.461-6.562-2.461-13.945-2.461-20.508 0-.82.82-1.636 1.64-2.457l19.688-14.765c9.844-9.024 17.227-19.688 21.328-32.813 0-3.281 2.461-7.379 5.742-9.84 2.457-1.64 4.098-2.46 5.739-4.101 3.28-1.64 5.742-3.281 8.203-7.383 5.742-13.125 9.844-27.07 11.484-41.012-1.64-5.742-7.383-9.843-13.945-9.843h-3.281c-2.461 0-4.102 0-5.743.82-2.457 0-4.097.82-5.738-.82-1.64-1.641-1.64-4.102-1.64-5.743.82-6.562 0-31.992-.82-41.832v-4.101c0-35.274-36.095-63.98-82.848-65.621h-1.641c-45.934 1.64-82.844 30.347-82.844 65.62v4.102c0 9.84-.82 34.45-.82 41.832 0 2.461 0 4.102-1.64 4.922-1.641 1.64-3.282.82-5.743.82-1.64 0-3.281-.82-5.742-.82h-3.281c-6.563 0-11.485 4.102-13.946 9.844 1.64 13.941 4.922 27.887 10.664 41.012 1.641 3.281 4.922 4.922 8.204 6.562 1.64.82 4.101 2.461 5.742 4.102 3.28 2.46 5.742 6.558 5.742 10.66 4.101 12.305 10.664 22.969 20.504 31.992 5.742 4.922 12.304 9.844 18.047 13.945.82.82 1.64 1.641 1.64 2.461 0 8.2-.82 17.223-1.64 20.504-2.461 6.563-7.383 10.664-13.125 12.305l-58.239 21.328c-6.562 1.637-12.3 4.098-17.222 7.379-13.125 6.563-21.328 18.047-24.61 31.992-4.101 13.946-4.101 52.496-4.922 68.903 2.461 4.097 2.461 5.738 2.461 7.378zm0 0"/><path fill="#d3a47d" d="m496.047 400.078-4.922-.82 1.64-14.766-8.199 3.281-1.64-4.921 12.3-4.918h2.462c.82.816.82 1.636.82 2.457zm-198.5-3.281-2.461-18.863c0-.82 0-1.641.82-2.461.82-.82 1.64-.82 2.461 0l12.305 4.918-1.64 4.921-8.204-3.28 1.64 14.765zm0 0"/><path fill="#472b29" d="M308.21 433.707c-.82 0-1.64-.82-1.64-1.64l1.64-71.36c0-.82.821-1.64 1.642-1.64.82 0 1.64.82 1.64 1.64l-1.64 71.36c0 .82-.82 1.64-1.641 1.64zm175.536 0c-.82 0-1.64-.82-1.64-1.64l-1.641-71.36c0-.82.82-1.64 1.64-1.64s1.641.82 1.641 1.64l1.64 71.36c0 .82-.82 1.64-1.64 1.64zm-34.453 44.297c-14.766 9.84-42.652 15.582-47.574 6.562-4.102-6.562-9.844-6.562-13.125 0-5.742 9.84-35.27 0-50.856-11.484-4.101 0 0 1.64-3.281 4.102 19.688 17.222 59.059 40.191 60.7 39.37 19.687-9.843 38.55-22.148 56.597-36.09-4.102-2.46 2.46-2.46-2.461-2.46zm0 0"/><path fill="#ee3e54" d="M384.492 352.504c-16.402-13.945-77.922-4.102-77.922-4.102.82 3.282 2.461 6.563 3.282 9.844 4.101 0 4.921 7.383 4.921 10.664 2.461 13.121 14.762 22.145 40.192 22.145 25.426 0 31.168-13.942 32.808-22.145.82-6.562 0-12.305-3.28-16.406zm-2.46 15.586c-1.641 11.48-11.481 18.043-27.067 18.863h-4.922c-25.43 0-29.527-15.582-30.348-26.246 0-5.742 5.739-10.664 13.942-11.484h16.406c18.867 0 27.07 3.28 29.527 5.742 1.64 4.101 3.282 9.023 2.461 13.125zm20.507-.82c.82 8.203 7.383 21.324 32.809 22.144 25.43.82 37.734-9.023 40.195-22.144 0-2.461.82-9.844 4.922-10.665.82-3.28 1.64-6.562 3.281-9.843 0 0-61.52-9.844-77.926 4.101-2.46 5.742-4.101 11.485-3.28 16.407zm9.844-11.485c2.46-2.46 10.664-5.742 29.527-5.742h16.406c8.204.82 13.946 5.742 13.946 11.484-.82 9.844-4.922 26.246-30.352 26.246h-4.922c-16.402-.82-26.246-7.382-27.066-18.863-1.64-5.742 0-9.844 2.46-13.125zm0 0"/><path fill="#ee3e54" d="M406.64 363.168c-3.28-1.64-7.382-2.461-11.484-2.461-3.281 0-7.383.82-10.664 2.461l-3.281-6.563h28.71zm0 0"/><path fill="#6d1b18" d="M367.27 445.191c0 1.641-.82 2.461-.82 4.102 0 11.484 12.3 20.508 27.886 20.508 15.586 0 27.89-9.024 27.89-20.508v-4.102zm0 0"/><path fill="#ee3e54" d="M409.922 466.52c-9.024-6.563-21.328-6.563-29.531 0 9.843 4.101 20.507 4.101 29.53 0zm0 0"/><path fill="#fdfcef" d="M375.473 445.191v3.282c0 3.28 4.097 5.742 9.02 5.742h21.327c4.922 0 9.024-2.461 9.024-5.742v-3.282zm0 0"/><path fill="#472b29" d="M395.156 471.441c-16.406 0-29.527-9.843-29.527-22.148 0-1.64 0-3.281.82-4.102 0-.82.82-.82 1.64-.82h54.958c.82 0 1.64.82 1.64 1.64 0 1.641.82 2.462.82 4.102 0 11.485-13.945 21.328-30.35 21.328zm-26.246-24.609v2.461c0 10.664 11.48 18.867 26.246 18.867 14.766 0 26.25-8.203 26.25-18.867v-2.461zm127.957-207.523c-.82-4.102-5.742-4.102-10.664-3.282-15.582.82-18.863-4.101-50.855-20.504-27.067-14.765-59.055-13.125-84.485 4.098-98.43 20.508-41.011 140.266-41.011 140.266s0-63.16 30.347-82.848c50.856 31.172 99.25 35.274 128.781 16.406 11.485 23.79 11.485 66.442 11.485 66.442 13.941-25.43 17.223-55.778 9.02-84.489-4.098-10.66 9.023-22.144 7.382-36.09zm0 0"/><path fill="#fdfcee" d="M575.613 473.082c-1.933 0-3.867.047-5.797.14-1.93.094-3.859.239-5.78.426a117.86 117.86 0 0 0-17.121 2.973 119.282 119.282 0 0 0-11.094 3.363c-1.821.653-3.622 1.348-5.41 2.086-1.786.743-3.552 1.524-5.302 2.352a116.508 116.508 0 0 0-5.175 2.605c-1.707.91-3.387 1.864-5.047 2.86a116.03 116.03 0 0 0-4.895 3.101 121.594 121.594 0 0 0-4.742 3.336 121.574 121.574 0 0 0-4.57 3.567 118.695 118.695 0 0 0-12.586 11.984 119.103 119.103 0 0 0-10.692 13.7 118.735 118.735 0 0 0-5.96 9.945c-.91 1.703-1.778 3.43-2.606 5.175-.824 1.75-1.61 3.516-2.348 5.301a111.953 111.953 0 0 0-2.086 5.41 117.796 117.796 0 0 0-6.336 28.215 119.103 119.103 0 0 0-.43 5.781 119.482 119.482 0 0 0 0 11.59c.098 1.934.239 3.86.43 5.781.188 1.926.426 3.844.707 5.754a118.016 118.016 0 0 0 2.262 11.371 117.796 117.796 0 0 0 3.367 11.09 118.703 118.703 0 0 0 7.04 15.89 118.734 118.734 0 0 0 5.96 9.941 117.483 117.483 0 0 0 3.34 4.74 119.102 119.102 0 0 0 7.352 8.96 119.321 119.321 0 0 0 3.996 4.2 119.148 119.148 0 0 0 8.59 7.785 117.522 117.522 0 0 0 9.313 6.902 116.03 116.03 0 0 0 4.894 3.102c1.66.996 3.34 1.949 5.047 2.86 1.703.91 3.43 1.78 5.175 2.605 1.75.828 3.516 1.609 5.301 2.351 1.79.739 3.59 1.434 5.41 2.086a119.281 119.281 0 0 0 11.094 3.363 117.86 117.86 0 0 0 34.496 3.398c1.93-.093 3.856-.237 5.781-.425a117.859 117.859 0 0 0 17.121-2.973c1.875-.468 3.739-.984 5.586-1.546a117.897 117.897 0 0 0 5.508-1.817 116.808 116.808 0 0 0 10.707-4.438 118.817 118.817 0 0 0 5.18-2.605c1.703-.91 3.387-1.863 5.043-2.86a113.7 113.7 0 0 0 4.898-3.1 114.689 114.689 0 0 0 4.739-3.337 115.55 115.55 0 0 0 4.57-3.566 112.614 112.614 0 0 0 4.39-3.79 115.83 115.83 0 0 0 4.2-3.995 119.43 119.43 0 0 0 4-4.2 119.102 119.102 0 0 0 10.691-13.699 123.034 123.034 0 0 0 3.102-4.898 118.819 118.819 0 0 0 11.719-26.438c.558-1.847 1.074-3.71 1.543-5.586.472-1.875.894-3.761 1.273-5.656.375-1.898.707-3.8.988-5.715.285-1.91.524-3.828.711-5.754.192-1.921.332-3.847.426-5.78.098-1.93.144-3.864.144-5.794 0-1.933-.046-3.867-.144-5.797-.094-1.93-.234-3.859-.426-5.78a113.382 113.382 0 0 0-.71-5.755 117.988 117.988 0 0 0-.99-5.715 120.594 120.594 0 0 0-2.816-11.242 117.797 117.797 0 0 0-1.82-5.504 116.32 116.32 0 0 0-4.438-10.71 118.65 118.65 0 0 0-5.46-10.223 117.484 117.484 0 0 0-6.441-9.637 119.103 119.103 0 0 0-7.352-8.96 119.43 119.43 0 0 0-4-4.2 115.83 115.83 0 0 0-4.2-3.996c-1.43-1.301-2.894-2.563-4.39-3.79a118.567 118.567 0 0 0-19.25-12.863 118.818 118.818 0 0 0-15.887-7.043 117.899 117.899 0 0 0-5.508-1.816 117.004 117.004 0 0 0-11.242-2.816 117.859 117.859 0 0 0-23.043-2.27zm0 0"/><path fill="#472b29" d="M575.613 712.594c-67.261 0-121.398-54.137-121.398-121.395 0-67.261 54.137-121.398 121.398-121.398 67.262 0 121.399 54.137 121.399 121.398 0 66.438-54.137 121.395-121.399 121.395zm0-237.051c-63.98 0-115.656 51.676-115.656 115.656 0 63.977 51.676 115.653 115.656 115.653 63.98 0 115.657-51.676 115.657-115.653 0-63.98-52.497-115.656-115.657-115.656zm0 0"/><path fill="#93bc39" d="M575.613 493.586c-1.597 0-3.195.039-4.789.117-1.597.082-3.187.2-4.777.356a97.602 97.602 0 0 0-18.77 3.73 99.66 99.66 0 0 0-9.02 3.227 97.45 97.45 0 0 0-8.66 4.098c-1.406.753-2.796 1.538-4.167 2.359a99.426 99.426 0 0 0-7.965 5.324c-1.281.95-2.54 1.933-3.778 2.945a98.698 98.698 0 0 0-3.625 3.133 95.371 95.371 0 0 0-3.468 3.3 92.228 92.228 0 0 0-3.305 3.47 98.2 98.2 0 0 0-8.836 11.324 97.49 97.49 0 0 0-4.926 8.215 97.378 97.378 0 0 0-2.152 4.28 93.171 93.171 0 0 0-1.941 4.38 96.748 96.748 0 0 0-1.727 4.468 96.832 96.832 0 0 0-1.5 4.551 98.409 98.409 0 0 0-1.281 4.617 99.801 99.801 0 0 0-1.867 9.395 97.444 97.444 0 0 0-1.055 14.324 97.959 97.959 0 0 0 1.055 14.32 96.02 96.02 0 0 0 .82 4.72c.312 1.57.66 3.124 1.05 4.675.387 1.55.813 3.09 1.278 4.617.461 1.532.965 3.047 1.5 4.551a96.748 96.748 0 0 0 1.727 4.469 93.171 93.171 0 0 0 1.941 4.379 95.156 95.156 0 0 0 4.516 8.45 98.005 98.005 0 0 0 5.32 7.965 98.021 98.021 0 0 0 12.852 14.178c1.183 1.07 2.39 2.114 3.625 3.13a101.028 101.028 0 0 0 3.777 2.945 99.424 99.424 0 0 0 7.965 5.324c1.37.82 2.761 1.605 4.168 2.36a97.45 97.45 0 0 0 8.66 4.097 99.66 99.66 0 0 0 9.02 3.226c1.527.461 3.07.887 4.617 1.278 1.55.387 3.109.738 4.675 1.05a97.602 97.602 0 0 0 9.477 1.402c1.59.157 3.18.278 4.777.356a97.84 97.84 0 0 0 9.578 0c1.594-.078 3.188-.199 4.778-.355a96.855 96.855 0 0 0 4.754-.586c1.582-.234 3.156-.508 4.722-.816a99.675 99.675 0 0 0 9.293-2.329 98.252 98.252 0 0 0 13.399-5.168 97.309 97.309 0 0 0 4.277-2.156 96.855 96.855 0 0 0 12.133-7.683 95.002 95.002 0 0 0 3.777-2.946 102.631 102.631 0 0 0 3.63-3.129 98.971 98.971 0 0 0 6.773-6.773 98.716 98.716 0 0 0 6.078-7.406 98.005 98.005 0 0 0 7.68-12.133 97.449 97.449 0 0 0 9.652-26.973 96.02 96.02 0 0 0 1.406-9.472 97.825 97.825 0 0 0-.586-23.891 96.02 96.02 0 0 0-.82-4.719 95.11 95.11 0 0 0-1.051-4.676 93.828 93.828 0 0 0-1.277-4.617 98.403 98.403 0 0 0-3.227-9.02 97.406 97.406 0 0 0-4.098-8.66 97.41 97.41 0 0 0-20.53-26.308 98.82 98.82 0 0 0-3.63-3.133 95.002 95.002 0 0 0-3.777-2.945 94.03 94.03 0 0 0-3.914-2.758 96.857 96.857 0 0 0-8.219-4.926 97.309 97.309 0 0 0-4.277-2.156 104.404 104.404 0 0 0-4.383-1.941 99.507 99.507 0 0 0-9.016-3.227 99.674 99.674 0 0 0-9.293-2.328c-1.566-.309-3.14-.582-4.722-.816a96.855 96.855 0 0 0-4.754-.586c-1.59-.157-3.184-.274-4.778-.356a97.959 97.959 0 0 0-4.789-.117zm0 0"/><path fill="#472b29" d="M575.613 691.27c-54.957 0-100.07-45.114-100.07-100.07 0-54.958 45.113-100.075 100.07-100.075 54.957 0 100.07 45.117 100.07 100.074s-45.113 100.07-100.07 100.07zm0-196.043c-52.496 0-95.968 42.656-95.968 95.972 0 53.317 42.652 95.969 95.968 95.969 53.317 0 95.969-42.652 95.969-95.969 0-53.316-43.473-95.972-95.969-95.972zm0 0"/><path fill="#c0d078" d="M575.613 507.531c41.832 0 79.563 26.25 94.328 65.621-9.843-52.496-60.699-86.129-112.375-76.285-38.55 7.383-68.902 37.735-76.28 76.285 14.76-39.37 51.675-65.62 94.327-65.62zm0 0" fill-opacity=".788"/><path fill="#fdfcee" d="M561.668 638.773c-2.461 0-4.102-.82-5.742-2.46l-31.168-31.993c-3.281-3.28-3.281-8.203 0-11.48 1.64-1.64 3.281-2.461 5.742-2.461 2.46 0 4.102.82 5.742 2.46l24.606 26.247 52.496-58.238c1.64-1.641 4.101-2.461 5.742-2.461 4.922 0 8.203 3.281 8.203 8.203 0 2.46-.82 4.101-2.46 5.742l-58.24 64.8c-.82.821-3.28 2.462-4.921 1.641zm0 0"/><path fill="#472b29" d="M619.906 560.848c2.461 0 4.922 2.46 4.922 5.742 0 .82 0 1.64-.82 2.46l-58.238 64.802c-.82.82-2.461 1.64-3.282 1.64-1.64 0-2.46-.82-3.281-1.64l-31.168-31.993c-1.64-1.64-1.64-4.922 0-7.382 1.64-1.637 4.922-1.637 7.383 0l27.066 27.89 54.957-60.699s1.64-.82 2.461-.82m0-6.563c-3.281 0-5.742 1.64-8.203 3.281l-50.855 55.778-22.965-23.785c-4.102-4.102-11.485-4.102-16.406 0-4.102 4.101-4.102 10.66 0 15.582l31.168 31.992c4.101 4.922 11.484 4.922 16.406 0l58.238-64.801c4.102-4.102 4.102-11.484 0-15.586l-.82-.82c-1.64-.82-4.102-1.64-6.563-1.64zm0 0"/></svg>