<svg width="192" height="35" fill="none" xmlns="http://www.w3.org/2000/svg"><path d="M49.9 24V9.72h3.94l3.76 11.5h.06a241.15 241.15 0 0 0-.08-1.34c-.013-.44-.027-.847-.04-1.22 0-.387-.007-.727-.02-1.02V9.72h2.58V24h-3.98l-3.76-11.6h-.08c.027.48.053.947.08 1.4.027.44.047.86.06 1.26.027.387.04.74.04 1.06.013.307.02.56.02.76V24H49.9zM66.992 24.2c-.933 0-1.74-.167-2.42-.5a4.38 4.38 0 0 1-1.68-1.44c-.44-.64-.767-1.413-.98-2.32-.213-.907-.32-1.94-.32-3.1 0-1.547.194-2.867.58-3.96.387-1.107.974-1.947 1.76-2.52.8-.587 1.82-.88 3.06-.88.933 0 1.74.167 2.42.5.68.333 1.24.82 1.68 1.46.44.627.767 1.4.98 2.32.213.907.32 1.933.32 3.08 0 1.16-.106 2.193-.32 3.1-.213.907-.54 1.68-.98 2.32a4.38 4.38 0 0 1-1.68 1.44c-.68.333-1.487.5-2.42.5zm0-2.5c.573 0 1.04-.18 1.4-.54.36-.373.627-.92.8-1.64.174-.72.26-1.62.26-2.7 0-1.587-.193-2.787-.58-3.6-.386-.827-1.013-1.24-1.88-1.24-.573 0-1.047.187-1.42.56-.36.36-.627.9-.8 1.62-.16.72-.24 1.613-.24 2.68 0 1.067.08 1.96.24 2.68.173.72.44 1.267.8 1.64.373.36.847.54 1.42.54zM74.244 24l-1.06-14.28h2.52c.147 1.44.26 2.647.34 3.62.08.96.134 1.76.16 2.4.04.64.06 1.187.06 1.64.014.44.02.86.02 1.26v1.2c0 .2-.006.4-.02.6v.6c0 .187-.006.367-.02.54h.14c.04-.36.087-.733.14-1.12.054-.4.107-.787.16-1.16.054-.373.1-.707.14-1 .04-.307.074-.54.1-.7l.7-4.52h2.76l.68 4.52c.04.293.087.607.14.94.067.333.127.673.18 1.02l.16 1.04c.067.347.12.68.16 1h.14l-.04-.78c0-.267-.006-.533-.02-.8a160.3 160.3 0 0 0-.04-.8v-1.98c.014-.28.034-.613.06-1l.1-1.46c.04-.573.087-1.273.14-2.1.067-.827.14-1.813.22-2.96h2.52l-1 14.28h-3.6l-.72-4.88c-.04-.267-.086-.567-.14-.9-.04-.333-.086-.687-.14-1.06l-.12-1.1h-.12c-.04.36-.086.727-.14 1.1-.04.373-.086.733-.14 1.08l-.14.88-.72 4.88h-3.56zM90.977 24.2c-.574 0-1.02-.153-1.34-.46-.32-.307-.48-.74-.48-1.3 0-.587.153-1.027.46-1.32.32-.293.773-.44 1.36-.44.573 0 1.013.153 1.32.46.32.307.48.74.48 1.3 0 .533-.16.96-.48 1.28-.32.32-.76.48-1.32.48zM101.529 24v-5.54l-4.16-8.74h3.06l2.56 6.06 2.54-6.06h3.04l-4.14 8.74V24h-2.9zM114.961 24.2c-.933 0-1.74-.167-2.42-.5a4.38 4.38 0 0 1-1.68-1.44c-.44-.64-.767-1.413-.98-2.32-.213-.907-.32-1.94-.32-3.1 0-1.547.193-2.867.58-3.96.387-1.107.973-1.947 1.76-2.52.8-.587 1.82-.88 3.06-.88.933 0 1.74.167 2.42.5.68.333 1.24.82 1.68 1.46.44.627.767 1.4.98 2.32.213.907.32 1.933.32 3.08 0 1.16-.107 2.193-.32 3.1-.213.907-.54 1.68-.98 2.32a4.38 4.38 0 0 1-1.68 1.44c-.68.333-1.487.5-2.42.5zm0-2.5c.573 0 1.04-.18 1.4-.54.36-.373.627-.92.8-1.64.173-.72.26-1.62.26-2.7 0-1.587-.193-2.787-.58-3.6-.387-.827-1.013-1.24-1.88-1.24-.573 0-1.047.187-1.42.56-.36.36-.627.9-.8 1.62-.16.72-.24 1.613-.24 2.68 0 1.067.08 1.96.24 2.68.173.72.44 1.267.8 1.64.373.36.847.54 1.42.54zM126.913 24.2c-1.107 0-2.04-.193-2.8-.58a3.97 3.97 0 0 1-1.7-1.74c-.373-.76-.56-1.673-.56-2.74V9.72h2.9v8.92c0 .747.08 1.347.24 1.8.16.44.4.76.72.96.333.2.747.3 1.24.3.52 0 .94-.1 1.26-.3.333-.213.573-.547.72-1 .147-.453.22-1.047.22-1.78v-8.9h2.9v9.4c0 1.04-.193 1.94-.58 2.7a3.942 3.942 0 0 1-1.7 1.76c-.76.413-1.713.62-2.86.62zM138.945 24.2c-.573 0-1.02-.153-1.34-.46-.32-.307-.48-.74-.48-1.3 0-.587.154-1.027.46-1.32.32-.293.774-.44 1.36-.44.574 0 1.014.153 1.32.46.32.307.48.74.48 1.3 0 .533-.16.96-.48 1.28-.32.32-.76.48-1.32.48zM145.838 24V9.72h4.42c1.24 0 2.313.267 3.22.8.906.52 1.606 1.3 2.1 2.34.506 1.04.76 2.333.76 3.88 0 1.56-.26 2.88-.78 3.96-.507 1.08-1.234 1.9-2.18 2.46-.934.56-2.047.84-3.34.84h-4.2zm4.04-2.46c1.213 0 2.1-.393 2.66-1.18.573-.787.86-1.987.86-3.6 0-1.067-.127-1.933-.38-2.6-.24-.68-.6-1.18-1.08-1.5-.48-.32-1.087-.48-1.82-.48h-1.42v9.36h1.18zM157.13 24l3.94-14.34h3.7L168.73 24h-2.9l-2.28-9.46a18.1 18.1 0 0 0-.22-.9l-.2-.88c-.067-.307-.134-.607-.2-.9a72.96 72.96 0 0 0-.2.9l-.2.88c-.067.293-.14.593-.22.9L159.95 24h-2.82zm3.16-3.54.6-2.4h4.12l.28 2.4h-5zM173.462 24V12.22h-3.94v-2.5h10.8v2.5h-3.96V24h-2.9zM182.514 24V9.72h9v2.5h-6.2v3.12h5.9v2.5h-5.9v3.66h6.2V24h-9zM2.763 2.763H35V35H2.763z" fill="#000"/><path fill="#fff" stroke="#000" stroke-width="2" d="M1 1h30.237v30.237H1z"/><path d="M8.234 8.824h-1.41v5.649h1.41V8.824zM9.649 7.41H8.234v8.473H9.65V7.41z" fill="#FF2968"/><path d="M8.234 13.059h-1.41v4.234h1.41v-4.234zM25.176 13.059h-1.41v4.234h1.41v-4.234zM22.351 15.883h-1.41v4.234h1.41v-4.234z" fill="#C40851"/><path d="M20.942 17.293h-1.41v4.234h1.41v-4.234zM23.766 14.473h-1.41v4.234h1.41v-4.234zM19.527 18.707h-1.41v4.234h1.41v-4.234zM18.117 20.117h-1.41v4.234h1.41v-4.234zM9.644 14.473h-1.41v4.234h1.41v-4.234zM11.059 15.883h-1.41v4.234h1.41v-4.234zM12.469 17.293h-1.41v4.234h1.41v-4.234zM13.883 18.707h-1.41v4.234h1.41v-4.234zM15.293 20.117h-1.41v4.234h1.41v-4.234zM16.703 21.532h-1.41v4.234h1.41v-4.234z" fill="#C40851"/><path d="M11.059 7.41h-1.41v8.473h1.41V7.41zM25.176 8.824h-1.41v4.235h1.41V8.823z" fill="#FF2968"/><path d="M26.586 11.649h-1.41v1.41h1.41v-1.41z" fill="#C40851"/><path d="M12.469 7.41h-1.41v9.883h1.41V7.41zM23.766 7.41h-1.41v7.059h1.41v-7.06zM13.883 8.824h-1.41v9.883h1.41V8.824zM22.351 7.41h-1.41v8.473h1.41V7.41zM18.117 10.234h-1.41v9.883h1.41v-9.883zM15.293 20.117V8.824h-1.41v11.293h1.41z" fill="#FF2968"/><path d="M20.942 17.293V7.41h-1.41v9.883h1.41zM16.703 11.649h-1.41v9.883h1.41v-9.883zM19.527 8.824h-1.41v9.883h1.41V8.824z" fill="#FF2968"/><path d="M12.469 6H8.233v1.41h4.235V6zM23.766 6h-4.234v1.41h4.234V6zM13.883 7.41h-1.41v1.41h1.41V7.41zM19.527 7.41h-1.41v1.41h1.41V7.41zM5.41 11.649H4v2.824h1.41v-2.824z" fill="#07042D"/><path d="M6.82 11.649H5.41v1.41h1.41v-1.41zM6.82 13.059H5.41v1.41h1.41v-1.41zM26.586 13.059h-1.41v1.41h1.41v-1.41z" fill="#C40851"/><path d="M12.469 21.532h-1.41v1.41h1.41v-1.41zM11.059 20.117h-1.41v1.41h1.41v-1.41zM8.234 17.293h-1.41v1.41h1.41v-1.41zM9.644 18.707h-1.41v1.41h1.41v-1.41zM6.82 14.473H5.41v2.824h1.41v-2.824zM6.82 8.824H5.41v2.825h1.41V8.824zM8.234 7.41h-1.41v1.41h1.41V7.41zM15.293 8.824h-1.41v1.41h1.41v-1.41zM16.703 10.234h-1.41v1.41h1.41v-1.41zM18.117 8.824h-1.41v1.41h1.41v-1.41zM28 11.649h-1.41v2.824H28v-2.824zM25.18 17.293h1.41v-2.824h-1.41v2.824zM25.18 11.649h1.41V8.824h-1.41v2.825zM23.766 8.824h1.41v-1.41h-1.41v1.41zM16.703 25.766h-1.41v1.41h1.41v-1.41zM13.883 22.941h-1.41v1.41h1.41v-1.41zM20.942 21.532h-1.41v1.41h1.41v-1.41zM22.351 20.117h-1.41v1.41h1.41v-1.41zM23.766 18.707h-1.41v1.41h1.41v-1.41zM25.176 17.293h-1.41v1.41h1.41v-1.41zM19.527 22.941h-1.41v1.41h1.41v-1.41zM15.293 24.356h-1.41v1.41h1.41v-1.41zM18.117 24.356h-1.41v1.41h1.41v-1.41z" fill="#07042D"/><path d="M9.644 10.234h-1.41v2.825h1.41v-2.825zM11.059 8.824h-1.41v1.41h1.41v-1.41z" fill="#FEF"/></svg>